<?xml version="1.0" encoding="utf-8"?>
<!-- Generator: Adobe Illustrator 23.0.1, SVG Export Plug-In . SVG Version: 6.00 Build 0)  -->
<svg version="1.1" id="Capa_1" xmlns="http://www.w3.org/2000/svg" xmlns:xlink="http://www.w3.org/1999/xlink" x="0px" y="0px"
	 viewBox="0 0 75.1 102.7" enable-background="new 0 0 75.1 102.7" xml:space="preserve">
<path fill="#51DA14" d="M51.1,62.6c0,0.2,0.1,0.5,0.1,0.5l0.2,1.6v0.1c1,9.4-5.5,18.2-14.9,19.2l0,0c-0.7,0-1.4,0.2-2.1,0.2
	c-3.8,0-7.5-1.2-10.5-3.6c-0.8-0.7-1.6-1.3-2.2-2.1l0.1,0.1c0.1,1,0.1,2.1,0.1,3.1c0,3.6-0.5,7.1-1.5,10.4l0,0
	c4.8,3.2,10.6,5.1,16.8,5.1c10,0,19.5-3.9,26.6-11c1.4-1.4,2.7-2.9,3.8-4.4C60.2,77.9,54.1,71.1,51.1,62.6z"/>
<path fill="#59A9D3" d="M67.9,81.8L67.9,81.8C67.9,81.9,67.9,81.8,67.9,81.8L67.9,81.8z M51.1,62.5C51.1,62.6,51.1,62.6,51.1,62.5
	C51.1,62.6,51.1,62.5,51.1,62.5L51.1,62.5z"/>
<path fill="#0DB0FF" d="M67.8,81.9c4.7-6.4,7.2-14.1,7.2-22.2c0-12.6-4.9-24.4-13.8-33.3c-1.3-1.3-2.6-2.4-4-3.5L57,22.7
	C52.2,33,42.3,40.5,30.5,42.1c0.1,0.3,0.1,0.5,0.2,0.6c0.2,0,0.4,0,0.6,0c10.9,0,19.8,8.9,19.8,19.8v0.1
	C54,71.1,60.2,77.9,67.8,81.9L67.8,81.9z"/>
<path fill="#C39201" d="M22.1,81.9c0-1.1,0-2.1-0.1-3.1c-2.3-2.6-3.8-5.8-4.2-9.3c-0.9-7.5,4.5-14.3,11.9-15.2
	c7.5-0.9,14.3,4.5,15.2,11.9c0.6,4.7-1.9,9.1-5.9,11.1c6.6-1.7,11.5-7.7,11.5-14.8c0-10.5-8.6-19.1-19.1-19.1c-13.2,0-24,10.8-24,24
	c0,10.4,5.3,19.5,13.3,24.9l0,0C21.6,88.9,22.1,85.4,22.1,81.9z"/>
<path fill="#FF004D" d="M27.9,12.6c-0.1,0-0.2-0.1-0.3-0.1s-0.1-0.2,0-0.3l2.7-8.4C27.4,3.7,10.6,4.2,0,22.9
	c2.5,0.5,10.5,2.1,12.9,0.6c0.1,0,0.1,0,0.2,0c0.1,0,0.1,0.1,0.2,0.1c0.1,0.1,0,0.3-0.1,0.4c-2.5,1.6-9.9,0.2-12.9-0.4l0,0
	c2.4,2,10.6,8.2,17.9,7.5c3.1-0.3,5.7-1.9,7.7-4.7c0.1-0.1,0.3-0.2,0.5-0.1s0.2,0.3,0.1,0.5c-1.4,1.9-3.1,3.3-5,4.1
	c6.1,3.2,8.4,9.2,9,11.2C42.2,40.5,52.1,33,57,22.7C48.8,16.2,38.6,12.6,27.9,12.6z M11.9,20.5c-1.6,0-2.9-1.2-3.1-2.8
	c0-0.1,0-0.2,0-0.4s0-0.3,0-0.4c0.2-1.6,1.5-2.8,3.1-2.8c1.7,0,3.1,1.4,3.1,3.1C15.1,19.1,13.7,20.5,11.9,20.5L11.9,20.5z"/>
</svg>
