<?xml version="1.0" encoding="utf-8"?>
<!-- Generator: Adobe Illustrator 23.0.3, SVG Export Plug-In . SVG Version: 6.00 Build 0)  -->
<svg version="1.1" id="Capa_1" xmlns="http://www.w3.org/2000/svg" xmlns:xlink="http://www.w3.org/1999/xlink" x="0px" y="0px"
	 viewBox="0 0 128 128" style="enable-background:new 0 0 128 128;" xml:space="preserve">
<style type="text/css">
	.st0{fill:#B9BBC5;}
	.st1{fill-rule:evenodd;clip-rule:evenodd;fill:#C4C7CC;fill-opacity:0.6;}
	.st2{fill-rule:evenodd;clip-rule:evenodd;fill:#F5F6FA;}
	.st3{fill-rule:evenodd;clip-rule:evenodd;fill:#B9BBC5;}
	.st4{fill-rule:evenodd;clip-rule:evenodd;fill:#E8E9ED;}
	.st5{fill-rule:evenodd;clip-rule:evenodd;fill:#C4C7CC;}
	.st6{fill:none;stroke:#B9BBC5;stroke-width:2;stroke-linecap:round;stroke-linejoin:round;}
	.st7{fill-rule:evenodd;clip-rule:evenodd;fill:#FFFFFF;}
</style>
<g>
	<path class="st0" d="M116,112.6h-2.9c-0.6,0-1-0.4-1-1s0.4-1,1-1h2.9c0.9,0,1.8-0.2,2.7-0.5c0.5-0.2,1.1,0,1.3,0.5
		c0.2,0.5,0,1.1-0.5,1.3C118.4,112.4,117.2,112.6,116,112.6z M107.1,112.6h-6c-0.6,0-1-0.4-1-1s0.4-1,1-1h6c0.6,0,1,0.4,1,1
		S107.7,112.6,107.1,112.6z M95.1,112.6h-6c-0.6,0-1-0.4-1-1s0.4-1,1-1h6c0.6,0,1,0.4,1,1S95.7,112.6,95.1,112.6z M83.1,112.6h-6
		c-0.6,0-1-0.4-1-1s0.4-1,1-1h6c0.6,0,1,0.4,1,1S83.7,112.6,83.1,112.6z M71.1,112.6h-6c-0.6,0-1-0.4-1-1s0.4-1,1-1h6
		c0.6,0,1,0.4,1,1S71.7,112.6,71.1,112.6z M59.1,112.6h-6c-0.6,0-1-0.4-1-1s0.4-1,1-1h6c0.6,0,1,0.4,1,1S59.7,112.6,59.1,112.6z
		 M47.1,112.6h-6c-0.6,0-1-0.4-1-1s0.4-1,1-1h6c0.6,0,1,0.4,1,1S47.7,112.6,47.1,112.6z M35.1,112.6h-6c-0.6,0-1-0.4-1-1s0.4-1,1-1
		h6c0.6,0,1,0.4,1,1S35.7,112.6,35.1,112.6z M23.1,112.6h-6c-0.6,0-1-0.4-1-1s0.4-1,1-1h6c0.6,0,1,0.4,1,1S23.7,112.6,23.1,112.6z
		 M11.1,112.6c0,0-0.1,0-0.1,0c-2.3-0.2-4.3-1.3-5.8-3.1c-0.4-0.4-0.3-1,0.1-1.4c0.4-0.4,1-0.3,1.4,0.1c1.2,1.3,2.8,2.2,4.5,2.4
		c0.5,0.1,0.9,0.6,0.9,1.1C12.1,112.2,11.7,112.6,11.1,112.6z M123.3,107.9c-0.1,0-0.3,0-0.4-0.1c-0.5-0.2-0.7-0.8-0.5-1.3
		c0.4-0.9,0.6-1.9,0.6-2.9V101c0-0.6,0.4-1,1-1s1,0.4,1,1v2.6c0,1.3-0.3,2.6-0.8,3.7C124,107.7,123.7,107.9,123.3,107.9z M4,104.3
		c-0.6,0-1-0.4-1-1v-6c0-0.6,0.4-1,1-1s1,0.4,1,1v6C5,103.9,4.6,104.3,4,104.3z M124,96c-0.6,0-1-0.4-1-1v-6c0-0.6,0.4-1,1-1
		s1,0.4,1,1v6C125,95.6,124.6,96,124,96z M4,92.3c-0.6,0-1-0.4-1-1v-6c0-0.6,0.4-1,1-1s1,0.4,1,1v6C5,91.9,4.6,92.3,4,92.3z M124,84
		c-0.6,0-1-0.4-1-1v-6c0-0.6,0.4-1,1-1s1,0.4,1,1v6C125,83.6,124.6,84,124,84z M4,80.3c-0.6,0-1-0.4-1-1v-6c0-0.6,0.4-1,1-1
		s1,0.4,1,1v6C5,79.9,4.6,80.3,4,80.3z M124,72c-0.6,0-1-0.4-1-1v-6c0-0.6,0.4-1,1-1s1,0.4,1,1v6C125,71.6,124.6,72,124,72z M4,68.3
		c-0.6,0-1-0.4-1-1v-6c0-0.6,0.4-1,1-1s1,0.4,1,1v6C5,67.9,4.6,68.3,4,68.3z M124,60c-0.6,0-1-0.4-1-1v-6c0-0.6,0.4-1,1-1s1,0.4,1,1
		v6C125,59.6,124.6,60,124,60z M4,56.3c-0.6,0-1-0.4-1-1v-5.7c0-0.1,0-0.2,0-0.3c0-0.6,0.5-1,1-1c0.6,0,1,0.5,1,1l0,0.2v5.7
		C5,55.9,4.6,56.3,4,56.3z M123.6,48.1c-0.4,0-0.8-0.3-0.9-0.7c-0.6-1.7-1.7-3.1-3.3-3.9c-0.5-0.3-0.7-0.9-0.4-1.4
		c0.3-0.5,0.9-0.7,1.4-0.4c2,1.1,3.5,2.9,4.2,5.1c0.2,0.5-0.1,1.1-0.6,1.3C123.8,48.1,123.7,48.1,123.6,48.1z M6.3,45
		c-0.3,0-0.5-0.1-0.7-0.3c-0.4-0.4-0.4-1,0-1.4c1.6-1.6,3.8-2.6,6-2.6c0.1,0,0.1,0,0.2,0c0.1,0,0.1,0,0.2,0h6c0.6,0,1,0.4,1,1
		s-0.4,1-1,1h-6c0,0-0.1,0-0.1,0c0,0-0.1,0-0.1,0c-1.8,0.1-3.4,0.8-4.7,2C6.9,44.9,6.6,45,6.3,45z M114,42.6h-6c-0.6,0-1-0.4-1-1
		s0.4-1,1-1h6c0.6,0,1,0.4,1,1S114.6,42.6,114,42.6z M102,42.6h-6c-0.6,0-1-0.4-1-1s0.4-1,1-1h6c0.6,0,1,0.4,1,1
		S102.6,42.6,102,42.6z M90,42.6h-6c-0.6,0-1-0.4-1-1s0.4-1,1-1h6c0.6,0,1,0.4,1,1S90.6,42.6,90,42.6z M78,42.6h-6c-0.6,0-1-0.4-1-1
		s0.4-1,1-1h6c0.6,0,1,0.4,1,1S78.6,42.6,78,42.6z M66,42.6h-6c-0.6,0-1-0.4-1-1s0.4-1,1-1h6c0.6,0,1,0.4,1,1S66.6,42.6,66,42.6z
		 M54,42.6h-6c-0.6,0-1-0.4-1-1s0.4-1,1-1h6c0.6,0,1,0.4,1,1S54.6,42.6,54,42.6z M42,42.6h-6c-0.6,0-1-0.4-1-1s0.4-1,1-1h6
		c0.6,0,1,0.4,1,1S42.6,42.6,42,42.6z M30,42.6h-6c-0.6,0-1-0.4-1-1s0.4-1,1-1h6c0.6,0,1,0.4,1,1S30.6,42.6,30,42.6z"/>
</g>
<path class="st1" d="M5.9,36l109.3-19.3c2.2-0.4,4.3,1.1,4.6,3.2c0,0,0,0,0,0l7.6,43.3c0.4,2.2-1.1,4.2-3.2,4.6L15,87.2
	c-2.2,0.4-4.3-1.1-4.6-3.2L2.7,40.6C2.3,38.4,3.8,36.4,5.9,36z"/>
<g>
	<path class="st2" d="M4.1,35c-1.6,0.3-2.7,1.8-2.4,3.5c0,0,0,0,0,0l7.6,43.3c0.3,1.6,1.8,2.7,3.5,2.4c0,0,0,0,0,0l109.3-19.3
		c1.6-0.3,2.7-1.8,2.4-3.5c0,0,0,0,0,0l-7.6-43.3c-0.3-1.6-1.8-2.7-3.5-2.4c0,0,0,0,0,0L4.1,35z"/>
	<path class="st0" d="M12.3,85.2c-1.9,0-3.6-1.4-3.9-3.3L0.7,38.6c-0.2-1.1,0.1-2.1,0.7-3s1.5-1.5,2.6-1.6l109.3-19.3
		c2.2-0.4,4.3,1.1,4.6,3.2l7.6,43.3c0.2,1.1,0,2.1-0.7,3c-0.6,0.9-1.5,1.5-2.6,1.6L13,85.2C12.7,85.2,12.5,85.2,12.3,85.2z
		 M113.9,16.6c-0.1,0-0.2,0-0.3,0L4.3,35.9c-1.1,0.2-1.8,1.2-1.6,2.3l7.6,43.3c0.2,1.1,1.2,1.8,2.3,1.6l109.3-19.3
		c0.5-0.1,1-0.4,1.3-0.8c0.3-0.4,0.4-1,0.3-1.5l-7.6-43.3C115.7,17.3,114.9,16.6,113.9,16.6z"/>
</g>
<path class="st3" d="M57,36.5l50.2-8.9c1.1-0.2,2.1,0.5,2.3,1.6l0,0c0.2,1.1-0.5,2.1-1.6,2.3l-50.2,8.9c-1.1,0.2-2.1-0.5-2.3-1.6
	l0,0C55.2,37.7,56,36.7,57,36.5z"/>
<path class="st3" d="M58,45.6l40.4-7.1c1.1-0.2,2.1,0.5,2.3,1.6l0,0c0.2,1.1-0.5,2.1-1.6,2.3l-40.4,7.1c-1.1,0.2-2.1-0.5-2.3-1.6
	l0,0C56.2,46.8,56.9,45.8,58,45.6z"/>
<path class="st3" d="M59.8,52.9l21.7-3.8c1.1-0.2,2.1,0.5,2.3,1.6l0,0c0.2,1.1-0.5,2.1-1.6,2.3l-21.7,3.8c-1.1,0.2-2.1-0.5-2.3-1.6
	l0,0C58,54.2,58.7,53.1,59.8,52.9z"/>
<path class="st3" d="M60.7,61L60.7,61c1.1-0.2,2.1,0.5,2.3,1.6l0,0c0.2,1.1-0.5,2.1-1.6,2.3l0,0c-1.1,0.2-2.1-0.5-2.3-1.6l0,0
	C58.8,62.3,59.6,61.2,60.7,61z"/>
<path class="st3" d="M68.7,60L68.7,60c1.1-0.2,2.1,0.5,2.3,1.6l0,0c0.2,1.1-0.5,2.1-1.6,2.3l0,0c-1.1,0.2-2.1-0.5-2.3-1.6l0,0
	C66.8,61.3,67.6,60.2,68.7,60z"/>
<path class="st3" d="M76.7,58L76.7,58c1.1-0.2,2.1,0.5,2.3,1.6l0,0c0.2,1.1-0.5,2.1-1.6,2.3l0,0c-1.1,0.2-2.1-0.5-2.3-1.6l0,0
	C74.8,59.3,75.6,58.2,76.7,58z"/>
<path class="st4" d="M32.1,76.7C21,78.6,10.3,71,8.3,59.6s5.4-22.3,16.5-24.2c11.1-2,21.8,5.7,23.8,17.1
	C50.7,63.9,43.3,74.7,32.1,76.7"/>
<path class="st2" d="M20.6,62c0.2,1-0.5,2-1.5,2.2c-1,0.2-2-0.5-2.2-1.6s0.5-2,1.5-2.2C19.4,60.3,20.4,61,20.6,62"/>
<g>
	<path class="st0" d="M18.7,65.3c-0.6,0-1.2-0.2-1.7-0.5c-0.6-0.4-1-1.1-1.2-1.9c-0.1-0.8,0-1.5,0.5-2.2c0.4-0.6,1.1-1.1,1.9-1.2
		c0.8-0.1,1.5,0,2.1,0.5c0.6,0.4,1,1.1,1.2,1.9v0c0.1,0.8,0,1.5-0.5,2.2c-0.4,0.6-1.1,1.1-1.9,1.2C19.1,65.2,18.9,65.3,18.7,65.3z
		 M18.7,61.4c0,0-0.1,0-0.1,0c-0.2,0-0.4,0.2-0.5,0.4c-0.1,0.2-0.2,0.4-0.1,0.7c0,0.2,0.2,0.5,0.4,0.6c0.2,0.1,0.4,0.2,0.6,0.1
		c0.2,0,0.4-0.2,0.5-0.4c0.1-0.2,0.2-0.4,0.1-0.7c0-0.2-0.2-0.5-0.4-0.6C19.1,61.5,18.9,61.4,18.7,61.4z"/>
</g>
<path class="st2" d="M41.3,58.4c0.2,1-0.5,2-1.5,2.2c-1,0.2-2-0.5-2.2-1.6c-0.2-1,0.5-2,1.5-2.2S41.1,57.3,41.3,58.4"/>
<g>
	<path class="st0" d="M39.5,61.6c-1.4,0-2.6-1-2.8-2.4c-0.3-1.6,0.8-3.1,2.3-3.4c1.6-0.3,3,0.8,3.3,2.4c0,0,0,0,0,0
		c0.3,1.6-0.8,3.1-2.3,3.4C39.8,61.6,39.6,61.6,39.5,61.6z M39.4,57.8c0,0-0.1,0-0.1,0c-0.5,0.1-0.8,0.6-0.7,1
		c0.1,0.5,0.5,0.8,1,0.7c0.5-0.1,0.8-0.6,0.7-1l0,0C40.2,58.1,39.9,57.8,39.4,57.8z"/>
</g>
<path class="st2" d="M26.3,44.3c-5.7,1-9.5,6.6-8.5,12.4l0.9,5.3c1,5.8,6.5,9.8,12.2,8.8c5.7-1,9.5-6.6,8.5-12.4l-0.9-5.3
	C37.4,47.2,32,43.3,26.3,44.3"/>
<g>
	<path class="st0" d="M29.2,71.9c-5.5,0-10.4-4.1-11.4-9.8l-0.9-5.3c-1.1-6.4,3-12.5,9.3-13.6c0,0,0,0,0,0
		c6.2-1.1,12.2,3.2,13.4,9.6l0.9,5.3c1.1,6.4-3,12.5-9.3,13.6C30.4,71.8,29.8,71.9,29.2,71.9z M26.3,44.3l0.2,1
		c-5.2,0.9-8.6,6-7.7,11.2l0.9,5.3c0.9,5.3,5.9,8.9,11,8c5.1-0.9,8.6-6,7.6-11.3l-0.9-5.3c-0.9-5.3-5.9-8.9-11-7.9L26.3,44.3z"/>
</g>
<path class="st5" d="M30.2,61.1c0.1,0.5-0.2,1-0.7,1c-0.5,0.1-0.9-0.3-1-0.7c0,0,0,0,0,0c-0.1-0.5,0.2-1,0.7-1S30.1,60.6,30.2,61.1"
	/>
<path class="st4" d="M24.6,63.5l-2.3,0.4c-0.6,0.1-1.1-0.3-1.2-0.9c-0.1-0.6,0.3-1.1,0.8-1.2l2.3-0.4c0.6-0.1,1.1,0.3,1.2,0.9
	C25.5,62.9,25.2,63.4,24.6,63.5 M36.7,61.4l-2.3,0.4c-0.6,0.1-1.1-0.3-1.2-0.9c-0.1-0.6,0.3-1.1,0.8-1.2l2.3-0.4
	c0.6-0.1,1.1,0.3,1.2,0.9C37.6,60.7,37.3,61.3,36.7,61.4"/>
<path class="st6" d="M30.4,61.3c-0.1,0.5-0.5,0.9-1,1c-0.5,0.1-1-0.1-1.3-0.6"/>
<path class="st7" d="M23.6,59l0.3,1.5"/>
<path class="st6" d="M23.6,59l0.3,1.5"/>
<path class="st7" d="M34.2,57.2l0.3,1.5"/>
<g>
	<path class="st0" d="M28.7,65.8c-1.1,0-1.8-0.2-1.8-0.2c-0.5-0.2-0.8-0.7-0.6-1.3c0.2-0.5,0.7-0.8,1.3-0.6c0.1,0,2.2,0.6,4.3-0.8
		c0.5-0.3,1.1-0.2,1.4,0.3c0.3,0.5,0.2,1.1-0.3,1.4C31.3,65.6,29.8,65.8,28.7,65.8z M34.5,59.6c-0.5,0-0.9-0.3-1-0.8l-0.3-1.5
		c-0.1-0.5,0.3-1.1,0.8-1.2c0.5-0.1,1.1,0.3,1.2,0.8l0.3,1.5c0.1,0.5-0.3,1.1-0.8,1.2C34.6,59.6,34.5,59.6,34.5,59.6z M21.6,56
		c-0.5,0-0.9-0.3-1-0.8c-0.1-0.5,0.3-1.1,0.8-1.2l2.1-0.4c0.5-0.1,1.1,0.3,1.2,0.8c0.1,0.5-0.3,1.1-0.8,1.2L21.8,56
		C21.8,56,21.7,56,21.6,56z M32.1,54.1c-0.5,0-0.9-0.3-1-0.8c-0.1-0.5,0.3-1.1,0.8-1.2l2.1-0.4c0.5-0.1,1.1,0.3,1.2,0.8
		c0.1,0.5-0.3,1.1-0.8,1.2l-2.1,0.4C32.2,54.1,32.1,54.1,32.1,54.1z"/>
</g>
<path class="st5" d="M35.5,47.3c-0.2-0.2-0.5-0.4-0.7-0.6c-2.8-2.6-1.9-4.6-1.9-4.6C30.8,42.1,30,43,30,43c-1-1.4-0.4-2.7-0.4-2.7
	c-4.4,1.3-5.8,4.7-5.8,4.7c-0.4-1.4,0-2.2,0-2.2c-3.5,3.2-5,6.8-5.6,8.5c-0.1,0.3-0.2,0.7-0.3,1c0,0.1,0,0.1,0,0.1
	c-0.5,2.4,0,4.4,0,4.4l0.3,1.6c0.5-0.1,0.8-0.5,0.7-1c-0.1-0.4-0.1-0.8-0.1-1.1c-0.4-3.9,3-7.1,6.8-6.3c0.1,0,0.3,0.1,0.4,0.1
	c1,0.2,2,0.1,2.8-0.5c0.1-0.1,0.3-0.2,0.5-0.3c3.2-1.9,7.4-0.1,8.4,3.6c0.1,0.3,0.2,0.7,0.3,1.1c0.1,0.5,0.5,0.8,1,0.7l-0.3-1.6
	C38.5,53.2,38.2,49.8,35.5,47.3"/>
<path class="st6" d="M35.5,47.3c-0.2-0.2-0.5-0.4-0.7-0.6c-2.8-2.6-1.9-4.6-1.9-4.6C30.8,42.1,30,43,30,43c-1-1.4-0.4-2.7-0.4-2.7
	c-4.4,1.3-5.8,4.7-5.8,4.7c-0.4-1.4,0-2.2,0-2.2c-3.5,3.2-5,6.8-5.6,8.5c-0.1,0.3-0.2,0.7-0.3,1c0,0.1,0,0.1,0,0.1
	c-0.5,2.4,0,4.4,0,4.4l0.3,1.6c0.5-0.1,0.8-0.5,0.7-1c-0.1-0.4-0.1-0.8-0.1-1.1c-0.4-3.9,3-7.1,6.8-6.3c0.1,0,0.3,0.1,0.4,0.1
	c1,0.2,2,0.1,2.8-0.5c0.1-0.1,0.3-0.2,0.5-0.3c3.2-1.9,7.4-0.1,8.4,3.6c0.1,0.3,0.2,0.7,0.3,1.1c0.1,0.5,0.5,0.8,1,0.7l-0.3-1.6
	C38.5,53.2,38.2,49.8,35.5,47.3z"/>
<g>
	<path class="st0" d="M28.6,77c-4.2,0-8.3-1.3-11.8-3.9c-4.5-3.2-7.5-8.1-8.5-13.6c-2-11.4,5.4-22.3,16.5-24.2
		c5.4-1,10.8,0.3,15.4,3.5c4.5,3.2,7.5,8.1,8.5,13.6c2,11.4-5.4,22.3-16.5,24.2C31,76.9,29.8,77,28.6,77z M28.4,37
		c-1.1,0-2.1,0.1-3.2,0.3c-10,1.8-16.7,11.6-14.9,21.9c0.9,5,3.6,9.4,7.7,12.3c4.1,2.9,9,4.1,13.8,3.2c10-1.8,16.7-11.6,14.9-21.9
		c-0.9-5-3.6-9.4-7.7-12.3C35.9,38.2,32.2,37,28.4,37z"/>
</g>
</svg>
