<svg xmlns="http://www.w3.org/2000/svg" width="568" height="381" viewBox="0 0 568 381">
    <defs>
        <linearGradient id="a" x1="50.004%" x2="50.004%" y1="100.01%" y2=".014%">
            <stop offset="0%" stop-color="gray" stop-opacity=".25"/>
            <stop offset="54%" stop-color="gray" stop-opacity=".12"/>
            <stop offset="100%" stop-color="gray" stop-opacity=".1"/>
        </linearGradient>
        <linearGradient id="b" x1="49.993%" x2="49.993%" y1="99.996%" y2=".01%">
            <stop offset="0%" stop-color="gray" stop-opacity=".25"/>
            <stop offset="54%" stop-color="gray" stop-opacity=".12"/>
            <stop offset="100%" stop-color="gray" stop-opacity=".1"/>
        </linearGradient>
    </defs>
    <g fill="none" fill-rule="evenodd">
        <g opacity=".2" transform="translate(93.442 48.82)">
            <path fill="#3F3D56" d="M103.18 301.019c.285 1.17.664 2.314 1.134 3.423a665.95 665.95 0 0 1 22.132-8.242c-.063-.31-.126-.635-.205-.955a19.381 19.381 0 0 0-4.651-8.84c-2.982-3.15-6.825-4.673-10.562-3.744-3.738.93-6.452 4.11-7.69 8.295a19.628 19.628 0 0 0-.158 10.063z"/>
            <ellipse cx="110.198" cy="279.238" fill="#3F3D56" rx="11.885" ry="15.901" transform="rotate(-12.59 110.198 279.238)"/>
            <ellipse cx="105.703" cy="260.331" fill="#3F3D56" rx="11.885" ry="15.901" transform="rotate(-12.59 105.703 260.331)"/>
            <ellipse cx="101.198" cy="241.436" fill="#3F3D56" rx="11.885" ry="15.901" transform="rotate(-12.59 101.198 241.436)"/>
            <ellipse cx="96.694" cy="222.536" fill="#3F3D56" rx="11.885" ry="15.901" transform="rotate(-12.59 96.694 222.536)"/>
            <path fill="#6C63FF" d="M109.054 82.386a58.574 58.574 0 0 0 2.761-7.549l-31.497 2.478 32.83-7.942a59.483 59.483 0 0 0-.582-24.925 58.795 58.795 0 0 0-9.045-20.174L65.094 58.632l33.267-40.668C84.78 3.464 64.239-3.433 43.823 1.69 13.318 9.318-5.376 40.836 2.068 72.087a58.133 58.133 0 0 0 20.153 32.022 59.388 59.388 0 0 0-3.848 11.885L62.69 127.09l-45.367-3.932a59.561 59.561 0 0 0 1.407 18.899A58.186 58.186 0 0 0 38.89 174.08a59.241 59.241 0 0 0-3.486 37.938c7.444 31.25 38.206 50.396 68.711 42.774 30.505-7.623 49.199-39.141 41.755-70.391a58.186 58.186 0 0 0-20.158-32.023 59.241 59.241 0 0 0 3.485-37.938 58.15 58.15 0 0 0-20.142-32.054z"/>
            <path fill="#000" d="M18.74 142.037a58.186 58.186 0 0 0 20.16 32.022 59.241 59.241 0 0 0-3.487 37.938c7.444 31.25 38.207 50.396 68.712 42.774 30.505-7.623 49.198-39.141 41.754-70.391a58.186 58.186 0 0 0-20.158-32.023c5.113-11.475-108.492-16.656-106.98-10.32z" opacity=".1"/>
        </g>
        <g opacity=".2" transform="translate(301.323)">
            <path fill="#3F3D56" d="M36.873 344.07a24.526 24.526 0 0 0-.226 4.127c9.152.147 18.338.455 27.56.924.063-.363.126-.73.179-1.103.594-3.849.15-7.787-1.287-11.407-1.9-4.63-5.443-7.943-9.88-8.583-4.435-.64-8.76 1.543-11.884 5.438a21.912 21.912 0 0 0-4.462 10.604z"/>
            <ellipse cx="53.811" cy="324.047" fill="#3F3D56" rx="18.195" ry="13.901" transform="rotate(-81.82 53.811 324.047)"/>
            <ellipse cx="56.974" cy="302.033" fill="#3F3D56" rx="18.195" ry="13.901" transform="rotate(-81.82 56.974 302.033)"/>
            <ellipse cx="60.136" cy="280.025" fill="#3F3D56" rx="18.195" ry="13.901" transform="rotate(-81.82 60.136 280.025)"/>
            <ellipse cx="63.303" cy="258.012" fill="#3F3D56" rx="18.195" ry="13.901" transform="rotate(-81.82 63.303 258.012)"/>
            <path fill="#6C63FF" d="M136.435 114.765a65.787 65.787 0 0 0 6.205-6.824l-35.292-11.087 39.051 5.906a66.711 66.711 0 0 0 8.762-52.034L98.8 70.381l53.483-28.61A66.58 66.58 0 1 0 32.846 99.883a66.711 66.711 0 0 0-9.223 10.935l43.419 31.119-47.619-23.98a66.617 66.617 0 0 0 1.712 63.415c-25.132 23.96-27.628 63.214-5.732 90.164 21.896 26.95 60.829 32.546 89.428 12.853 28.6-19.694 37.26-58.06 19.893-88.13 22.243-21.207 27.082-54.881 11.711-81.494z"/>
            <path fill="#000" d="M12.888 138.598a66.307 66.307 0 0 0 8.247 42.774c-25.132 23.96-27.628 63.214-5.732 90.164 21.896 26.95 60.829 32.546 89.428 12.853 28.6-19.694 37.26-58.06 19.893-88.13 10.446-9.948-110.77-65.057-111.836-57.66z" opacity=".1"/>
        </g>
        <ellipse cx="284" cy="364.318" fill="#6C63FF" opacity=".1" rx="284" ry="16.274"/>
        <ellipse cx="469.676" cy="355.205" fill="#6C63FF" rx="13.281" ry="2.557"/>
        <ellipse cx="469.456" cy="354.123" fill="#3F3D56" rx="1.549" ry="2.026"/>
        <ellipse cx="469.456" cy="351.646" fill="#3F3D56" rx="1.549" ry="2.026"/>
        <ellipse cx="469.456" cy="349.173" fill="#3F3D56" rx="1.549" ry="2.026"/>
        <ellipse cx="469.456" cy="346.7" fill="#3F3D56" rx="1.549" ry="2.026"/>
        <ellipse cx="469.456" cy="344.223" fill="#3F3D56" rx="1.549" ry="2.026"/>
        <ellipse cx="469.456" cy="341.75" fill="#3F3D56" rx="1.549" ry="2.026"/>
        <ellipse cx="469.456" cy="339.278" fill="#3F3D56" rx="1.549" ry="2.026"/>
        <path fill="#6C63FF" d="M475.24 322.348c.213-.27.406-.554.578-.85l-4.063-.667 4.394.031a7.433 7.433 0 0 0 .142-5.869l-5.896 3.06 5.439-4a7.412 7.412 0 1 0-12.237 8.295 7.575 7.575 0 0 0-.845 1.349l5.25 2.74-5.623-1.89a7.397 7.397 0 0 0 1.218 6.961 7.407 7.407 0 1 0 11.644 0 7.402 7.402 0 0 0 0-9.155v-.005z"/>
        <path fill="#000" d="M462.012 326.925a7.376 7.376 0 0 0 1.575 4.578 7.407 7.407 0 1 0 11.643 0c1.003-1.26-13.218-5.407-13.218-4.578z" opacity=".1"/>
        <ellipse cx="164.678" cy="374.911" fill="#6C63FF" rx="17.743" ry="3.412"/>
        <ellipse cx="164.379" cy="373.463" fill="#3F3D56" rx="2.068" ry="2.704"/>
        <ellipse cx="164.379" cy="370.155" fill="#3F3D56" rx="2.068" ry="2.704"/>
        <ellipse cx="164.379" cy="366.848" fill="#3F3D56" rx="2.068" ry="2.704"/>
        <ellipse cx="164.379" cy="363.546" fill="#3F3D56" rx="2.068" ry="2.704"/>
        <ellipse cx="164.379" cy="360.239" fill="#3F3D56" rx="2.068" ry="2.704"/>
        <ellipse cx="164.379" cy="356.932" fill="#3F3D56" rx="2.068" ry="2.704"/>
        <ellipse cx="164.379" cy="353.63" fill="#3F3D56" rx="2.068" ry="2.704"/>
        <path fill="#6C63FF" d="M172.117 331.01c.28-.361.536-.74.766-1.134l-5.423-.893 5.87.048a9.89 9.89 0 0 0 .188-7.843l-7.874 4.084 7.26-5.313a9.895 9.895 0 1 0-16.347 11.077c-.439.56-.817 1.166-1.129 1.806l7.05 3.674-7.517-2.52a9.916 9.916 0 0 0 1.575 9.292 9.895 9.895 0 1 0 15.56 0 9.906 9.906 0 0 0 0-12.236l.02-.042z"/>
        <path fill="#000" d="M154.441 337.125a9.885 9.885 0 0 0 2.1 6.121 9.895 9.895 0 1 0 15.56 0c1.338-1.685-17.66-7.228-17.66-6.12z" opacity=".1"/>
        <path fill="url(#a)" fill-rule="nonzero" d="M258.099 224.643c-1.339-7.002-2.835-14.021-3.082-21.145-.147-4.2.147-8.472-.393-12.662-.268-2.057-.735-4.078-1.197-6.1l-1.859-8.089c.211-1.55.15-3.126-.178-4.656a16.274 16.274 0 0 0-.74-2.368 36.747 36.747 0 0 0 4.257-7.874c.494-1.26.919-2.599.724-3.932-.377-2.557-2.855-4.242-5.16-5.502-1.396-.76-2.866-1.496-4.462-1.617a7.25 7.25 0 0 0-5.88 2.625 12.772 12.772 0 0 1 .379-6.21 119.3 119.3 0 0 0-4.142-1.753 38.028 38.028 0 0 1-.21-5.465c.031-2.19.068-4.4.194-6.593a19.476 19.476 0 0 0 12.798-18.18v-.666a15.79 15.79 0 0 0 1.355-12.116c-1.538-5.25-5.56-9.575-10.405-12.247-4.845-2.672-10.462-3.801-16.021-4a23.05 23.05 0 0 0-5.575.351 26.899 26.899 0 0 0-5.68 2.1c-2.777 1.28-5.575 2.682-7.654 4.893-3.607 3.847-4.415 9.501-4.021 14.698.524 6.825 2.803 13.429 5.438 19.78.877 2.1 1.811 4.232 3.255 6.022 1.118 1.38 3.06 1.464 4.604.498a50.395 50.395 0 0 0-.116 5.04c-2.85-.1-5.627.367-7.916 1.974-1.05.75-2.047 1.932-1.817 3.202a2.976 2.976 0 0 1 2.867 2.546c.115 1.118-.446 2.184-.992 3.15-.237.43-.473.866-.714 1.296-2.258 2.415-4.573 5.439-4.777 8.436-.369.035-.735.09-1.098.163-2.047.378-4.084 1.076-6.094 1.601l-14.552 3.832-3.596.998-5.774 1.522c-3.675.966-7.418 1.958-10.678 3.9-3.26 1.943-6.026 4.993-6.683 8.668-.325 1.826-.126 3.727-.525 5.538 0 .084-.031.163-.052.241a17.717 17.717 0 0 1-1.339 3.313c-3.26 6.871-5.58 14.363-5.144 21.927.267 4.646 1.575 9.176 2.845 13.649a2020.68 2020.68 0 0 1 3.948 13.722 72.045 72.045 0 0 0 3.25 9.607 37.01 37.01 0 0 0 9.726 13.003 17.176 17.176 0 0 0 3.885 2.625 14.127 14.127 0 0 0 6.825 1.107c.63-.042 1.249-.11 1.863-.21 4.51-.714 8.714-2.887 12.573-5.333a82.083 82.083 0 0 0 4.724-3.229 29.97 29.97 0 0 0 1.05 5.208c.341 1.17.761 2.373.625 3.585-.19 1.69-1.417 3.077-2.053 4.662-1.349 3.35.037 7.082.263 10.672.215 3.365-.604 6.704-1.26 10.016a104.576 104.576 0 0 0-1.937 16.757 50.685 50.685 0 0 1-.42 6.373c-.488 2.982-1.633 5.858-1.832 8.872-.305 4.693 1.722 9.286 1.538 13.984-.215 5.518-3.454 10.877-2.326 16.274.142.677.525 1.46 1.145 1.633l-.305.278c-.929.86-1.832 2.451-.777 3.15.243.144.513.237.793.272 1.633.342 3.276.651 4.919.94a15.224 15.224 0 0 0 .567 4.494c.3.215.604.41.908.593-.231.62-.215 1.218.33 1.575.243.144.513.237.793.273a171.382 171.382 0 0 0 41.13 3.412c2.468-.095 5.045-.273 7.15-1.533 2.105-1.26 3.528-3.942 2.525-6.152-.887-1.953-3.207-2.798-5.291-3.45l-2.446-.755a4.2 4.2 0 0 0 .22-3.675c-.887-1.953-3.207-2.798-5.291-3.449l-5.633-1.748a5.528 5.528 0 0 1-2.048-.96 11.118 11.118 0 0 1-1.112-1.292 6.3 6.3 0 0 0-3.071-1.927 23.896 23.896 0 0 1 .078-3.58l1.575-19.008c.352-4.305.698-8.694-.304-12.898-.404-1.707-1.05-3.455-.656-5.166.614-2.793 3.553-4.347 5.559-6.42 3.024-3.15 3.963-7.628 4.656-11.89a240.046 240.046 0 0 0 2.688-53.236 85.042 85.042 0 0 1 19.329-3.108c1.113-.047 1.659-.572 2.005-1.611.346-1.04.137-2.168-.068-3.245zm-31.419.93c.037-.184.079-.368.11-.552l.436.557-.546-.005z"/>
        <path fill="#A1616A" d="M216.444 129.217c-.137 1.827-.782 3.58-1.019 5.402-.267 2.005-.031 4.048-.162 6.069-.132 2.02-.714 4.147-2.253 5.464 8.94.775 17.746 2.68 26.206 5.67-2.556-3.15-2.625-7.549-2.562-11.591.084-5.98.19-12.074 2.142-17.717a43.12 43.12 0 0 0-17.712-.231c-1.27.252-5.118.094-5.69 1.28-.415.872 1.144 4.331 1.05 5.654z"/>
        <path fill="#000" d="M216.444 129.217c-.137 1.827-.782 3.58-1.019 5.402-.267 2.005-.031 4.048-.162 6.069-.132 2.02-.714 4.147-2.253 5.464 8.94.775 17.746 2.68 26.206 5.67-2.556-3.15-2.625-7.549-2.562-11.591.084-5.98.19-12.074 2.142-17.717a43.12 43.12 0 0 0-17.712-.231c-1.27.252-5.118.094-5.69 1.28-.415.872 1.144 4.331 1.05 5.654z" opacity=".1"/>
        <path fill="#46455B" d="M227.027 346.758c.315.466.666.906 1.05 1.318a5.281 5.281 0 0 0 2 .96l5.501 1.749c2.042.65 4.31 1.49 5.176 3.443.977 2.205-.414 4.888-2.472 6.142-2.058 1.255-4.578 1.439-6.987 1.533a164.379 164.379 0 0 1-40.207-3.407 2.1 2.1 0 0 1-.771-.273c-1.05-.708-.152-2.294.756-3.15 3.543-3.36 7.396-6.882 12.22-7.659 2.536-.414 5.082-.246 7.602-.85 1.811-.436 3.522-1.186 5.328-1.633 3.365-.824 8.4-1.118 10.804 1.827z"/>
        <path fill="#000" d="M227.027 346.758c.315.466.666.906 1.05 1.318a5.281 5.281 0 0 0 2 .96l5.501 1.749c2.042.65 4.31 1.49 5.176 3.443.977 2.205-.414 4.888-2.472 6.142-2.058 1.255-4.578 1.439-6.987 1.533a164.379 164.379 0 0 1-40.207-3.407 2.1 2.1 0 0 1-.771-.273c-1.05-.708-.152-2.294.756-3.15 3.543-3.36 7.396-6.882 12.22-7.659 2.536-.414 5.082-.246 7.602-.85 1.811-.436 3.522-1.186 5.328-1.633 3.365-.824 8.4-1.118 10.804 1.827z" opacity=".1"/>
        <path fill="#BBBDC8" d="M199.404 228.024a33.366 33.366 0 0 0-.473 22.316c-1.832-.2-2.625 2.278-2.577 4.126a30.568 30.568 0 0 0 1.16 7.601c.336 1.176.745 2.373.614 3.58-.189 1.691-1.386 3.077-2.01 4.657-1.313 3.344.036 7.071.262 10.657.21 3.364-.593 6.698-1.239 10.005a106.702 106.702 0 0 0-1.89 16.73 50.47 50.47 0 0 1-.414 6.368c-.473 2.982-1.575 5.853-1.785 8.861-.3 4.683 1.68 9.276 1.501 13.97-.21 5.506-3.38 10.86-2.273 16.273.157.761.583 1.659 1.365 1.67 7.916.099 15.313-2.1 23.145-.95.798-18.122 1.575-36.328 5.145-54.118 3.15-15.838 8.488-31.498 7.99-47.645-.29-9.234-2.484-18.29-3.817-27.434a36.09 36.09 0 0 0-24.704 3.333z"/>
        <path fill="#000" d="M199.404 228.024a33.366 33.366 0 0 0-.473 22.316c-1.832-.2-2.625 2.278-2.577 4.126a30.568 30.568 0 0 0 1.16 7.601c.336 1.176.745 2.373.614 3.58-.189 1.691-1.386 3.077-2.01 4.657-1.313 3.344.036 7.071.262 10.657.21 3.364-.593 6.698-1.239 10.005a106.702 106.702 0 0 0-1.89 16.73 50.47 50.47 0 0 1-.414 6.368c-.473 2.982-1.575 5.853-1.785 8.861-.3 4.683 1.68 9.276 1.501 13.97-.21 5.506-3.38 10.86-2.273 16.273.157.761.583 1.659 1.365 1.67 7.916.099 15.313-2.1 23.145-.95.798-18.122 1.575-36.328 5.145-54.118 3.15-15.838 8.488-31.498 7.99-47.645-.29-9.234-2.484-18.29-3.817-27.434a36.09 36.09 0 0 0-24.704 3.333z" opacity=".1"/>
        <path fill="#46455B" d="M234.376 354.633c.316.465.667.906 1.05 1.317a5.281 5.281 0 0 0 2 .96l5.502 1.749c2.042.65 4.31 1.49 5.176 3.444.976 2.204-.415 4.887-2.473 6.142-2.058 1.254-4.577 1.438-6.987 1.532a164.379 164.379 0 0 1-40.206-3.407 2.1 2.1 0 0 1-.772-.272c-1.05-.71-.152-2.295.756-3.15 3.543-3.36 7.397-6.882 12.221-7.66 2.535-.414 5.082-.246 7.601-.85 1.811-.435 3.523-1.186 5.329-1.632 3.365-.824 8.399-1.118 10.803 1.827z"/>
        <path fill="#BBBDC8" d="M202.133 228.544c-2.026 2.625-2.624 6.09-2.351 9.376.273 3.286 1.38 6.44 2.467 9.554-1.444 1.328-1.144 3.617-.955 5.57.687 7.254-1.833 14.493-1.465 21.77.152 3.06.819 6.078.976 9.139.174 3.344-.252 6.688-.65 10.01a597.22 597.22 0 0 0-4.2 64.092c0 1.974-.032 3.98.525 5.87 3.816 2.808 8.609 3.186 13.229 2.136 4.62-1.05 8.835-3.391 12.976-5.701a40.07 40.07 0 0 0 6.426-4.147 3.428 3.428 0 0 0 1.291-1.775c.441-2.1-2.478-3.05-4.152-4.41-2.436-1.978-2.4-5.643-2.147-8.771l1.522-18.983c.347-4.299.683-8.682-.294-12.882-.399-1.7-1.013-3.449-.646-5.16.599-2.783 3.476-4.336 5.434-6.41 2.96-3.15 3.874-7.617 4.556-11.87a245.332 245.332 0 0 0 2.037-61.01c-3.858 1.34-8.43.61-12.499.925-4.068.315-8.11 1.674-12.231 1.784-3.434.08-7.738-1.816-9.849.893z"/>
        <circle cx="229.93" cy="115.49" r="19.423" fill="#A1616A"/>
        <path fill="#46455B" d="M240.907 147.439a104.534 104.534 0 0 0-19.377-6.688c-4.693-1.119-10.052-1.79-13.974 1.018-1.05.75-2 1.932-1.774 3.202a2.919 2.919 0 0 1 2.798 2.541c.115 1.113-.43 2.179-.966 3.15l-4.53 8.399a32.825 32.825 0 0 0-2.231 4.725c-.914 2.666-1.113 5.522-1.308 8.336l-.525 7.622c-.325 4.804-.656 9.628-.22 14.42.325 3.618 1.081 7.25.567 10.846-.415 2.893-1.638 5.607-2.326 8.452-1.291 5.354-.703 11.223-3.207 16.137a4.861 4.861 0 0 1 3.25-.294c7.6 1.402 13.58 7.402 20.96 9.696 1.864-2.72 4.39-4.725 6.473-7.255a14.027 14.027 0 0 0 2.977-6.583c1.575 2.1 2.913 3.738 3.853 6.174.167.566.454 1.09.84 1.538.992.966 2.625.593 3.953.189a81.473 81.473 0 0 1 20.037-3.397c1.092-.047 1.623-.572 1.964-1.611.341-1.04.152-2.163-.053-3.234-1.307-6.998-2.766-14.006-3.008-21.119-.147-4.2.142-8.457-.388-12.646-.263-2.053-.72-4.074-1.17-6.09l-3.749-16.656c-.21-.93-1.207-1.538-1.633-2.394-1.721-3.486-5.013-6.006-6.714-9.502a12.457 12.457 0 0 1-.52-8.976z"/>
        <path fill="#3F3D56" d="M213.656 123.264a1.286 1.286 0 0 1 .184-.777c.208-.218.468-.379.756-.467a3.984 3.984 0 0 0 2.22-4.257l1.838-.383.057-6.4c2.73-1.511 6.452-.367 9.02-2.147 1.443-1.007 2.183-2.719 3.065-4.241.882-1.523 2.194-3.055 3.948-3.181-1.221 3.105-1 6.591.603 9.517a10.84 10.84 0 0 0 4.426-4.137l.913 5.25c.019.324.157.629.389.856.477.351 1.123-.09 1.543-.525l2.378-2.336c1 2.51 1.687 5.136 2.042 7.816 3.906-3.79 5.118-9.88 3.617-15.108-1.501-5.229-5.433-9.56-10.168-12.231-4.736-2.672-10.227-3.796-15.66-3.995a22.269 22.269 0 0 0-5.449.351 25.87 25.87 0 0 0-5.554 2.1c-2.714 1.276-5.454 2.677-7.48 4.882-3.528 3.843-4.32 9.491-3.932 14.699.525 6.824 2.74 13.413 5.317 19.754.856 2.1 1.77 4.226 3.182 6.016 2.126 2.693 7.349.457 6.682-4.866-.462-3.801-3.937-2.336-3.937-6.19z"/>
        <path fill="#6C63FF" d="M221.006 227.252a82.365 82.365 0 0 1-29.11 32.863c-3.774 2.44-7.873 4.614-12.288 5.328-.604.1-1.208.168-1.822.21-2.277.188-4.564-.2-6.651-1.129a16.798 16.798 0 0 1-3.8-2.625 36.91 36.91 0 0 1-9.508-12.982 73.1 73.1 0 0 1-3.176-9.596c-1.288-4.57-2.572-9.143-3.853-13.717-1.254-4.472-2.52-8.998-2.782-13.649-.425-7.554 1.843-15.034 5.029-21.895a18.058 18.058 0 0 0 1.307-3.308c0-.078.037-.157.053-.241.378-1.811.183-3.706.525-5.533.64-3.675 3.349-6.72 6.53-8.657 3.181-1.937 6.824-2.929 10.441-3.895l5.633-1.517 3.496-.94 14.221-3.827c1.969-.524 3.958-1.223 5.959-1.574 2.23-.42 2.215-.2 2.388 1.984.32 3.958.215 7.848 1.05 11.77.793 3.742 2.189 7.349 3.239 11.023 2.651 9.276 3.092 19.04 5.181 28.463.478 2.147 1.14 4.436 2.866 5.775 1.98 1.575 5.313 1.963 5.838 4.43.194 1.098-.294 2.221-.766 3.24z"/>
        <path fill="#000" d="M179.608 265.422c-.604.1-1.208.168-1.822.21a13.596 13.596 0 0 1-6.651-1.108 16.798 16.798 0 0 1-3.8-2.625 36.91 36.91 0 0 1-9.508-12.982 73.1 73.1 0 0 1-3.176-9.596c-1.288-4.57-2.572-9.143-3.853-13.717-1.254-4.472-2.52-8.998-2.782-13.649-.425-7.554 1.843-15.034 5.029-21.895a18.058 18.058 0 0 0 1.307-3.308c0-.078.037-.157.053-.241 8.567 1.506 18.845 17.896 24.148 39.371 3.905 16.059 4.073 30.847 1.055 39.54zM195.094 208.916l-1.433.247c-1.475-3.875-2.945-7.754-4.672-11.523-.898-1.969-1.87-3.911-2.625-5.943-2.835-7.8-2.352-17.055-7.607-23.48a8.037 8.037 0 0 0-1.275-1.292l3.496-.94a47.414 47.414 0 0 1 6.373 15.806c.567 2.74.887 5.544 1.81 8.18a56.543 56.543 0 0 0 2.694 5.847c1.995 4.09 3.496 8.557 3.239 13.098z" opacity=".1"/>
        <path fill="#6C63FF" d="M209.047 149.77c3.775-3.234 8.924-5.009 13.812-4.2 2.876.467 5.548 1.764 8.126 3.15 5.024 2.666 9.974 5.737 13.596 10.12a40.574 40.574 0 0 1 5.365 9.03 21.89 21.89 0 0 1 1.575 4.415c1.281 5.932-1.863 11.827-4.892 17.087l-5.827 10.11c-2.678 4.646-5.376 9.324-8.862 13.403-1.606 1.879-3.37 3.616-5.128 5.354l-7.723 7.622c-.138.164-.32.286-.524.352a1.165 1.165 0 0 1-.909-.362l-2.55-2.032a43.398 43.398 0 0 0 6.519-5.527c3.339-3.455 6.084-7.429 8.814-11.387l8.494-12.315c2.483-3.607 5.076-7.575 4.798-11.943-.131-2.1-.919-4.073-1.743-6a151.953 151.953 0 0 0-4.756-10.116c-1.921-3.722-4.021-7.397-6.788-10.541-2.766-3.144-6.262-5.774-10.289-6.914a8.567 8.567 0 0 0-3.727-.357c-2.761.457-4.725 2.83-6.473 5.035l-5.323 6.824c-1.212 1.549-2.325 3.344-2.399.404-.126-4.194 4.116-8.514 6.814-11.213z"/>
        <path fill="#A1616A" d="M210.695 195.808c1.05 4.042 2.599 8.63 6.489 10.163 2.756 1.087 5.984.205 8.368-1.575 2.383-1.78 4.073-4.289 5.627-6.824a66.28 66.28 0 0 1 4.342-6.583c3.112-3.906 7.349-7.003 9.449-11.55.62-1.354 1.05-2.803 1.753-4.104a25.654 25.654 0 0 1 2.54-3.397 36.815 36.815 0 0 0 5.728-9.943c.483-1.254.898-2.598.709-3.926-.373-2.557-2.793-4.237-5.045-5.491-1.37-.761-2.803-1.502-4.362-1.617-2.279-.179-4.52 1.05-5.922 2.85a11.391 11.391 0 0 0-2.163 6.39c-.157 2.797.389 5.705-.525 8.351a13.124 13.124 0 0 1-1.979 3.423 40.133 40.133 0 0 1-10.767 9.937 18.683 18.683 0 0 0-1.275-5.79c-.4-1.018-8.221 0-9.24.168-2.015.294-5.92.525-7.191 2.446-1.27 1.922.304 5.15.819 7.087l2.645 9.985z"/>
        <path fill="#46455B" d="M210.506 151.696a27.639 27.639 0 0 0-3.233 3.15c-2.331 2.808-3.47 6.462-3.764 10.1-.294 3.638.205 7.291.83 10.887.566 3.227 1.236 6.431 2.01 9.612.215-2.399 2.157-4.383 4.41-5.25 2.251-.866 4.724-.771 7.123-.42a34.82 34.82 0 0 1 8.956 2.589l1.107-15.523c.234-2.094.221-4.208-.036-6.3a13.885 13.885 0 0 0-6.478-9.423c-4.21-2.561-7.145-2.724-10.925.578z"/>
        <path fill="url(#b)" fill-rule="nonzero" d="M408.824 227.231a36.658 36.658 0 0 0-3.623-12.1c-1.16-2.31-2.572-4.52-3.302-6.992-.593-2.01-.708-4.126-1.18-6.168-.473-2.042-1.308-3.995-1.98-5.99-4.75-14.174-1.181-29.68-2.714-44.537-.572-5.48-2.252-11.491-7.003-14.347-2.824-1.696-6.215-1.958-9.538-2.1l-1.517-.068-2.436-.12c-3.528-.174-7.066-.305-10.5.435-4.199.919-9.175 3.874-10.498 8.163-.725-.373-1.454-.704-2.126-1.013a38.133 38.133 0 0 0-8.447-2.625 31.565 31.565 0 0 0 7.171-2.772c5.25-3.055 6.468-11.98 7.538-17.948 1.071-5.969.095-12.137-1.685-17.938a30.841 30.841 0 0 0-2.388-5.942 20.73 20.73 0 0 0-29.482-7.297c-4.897 3.207-9.449 7.874-13.186 12.384-.525.62-2.72 2.813-1.99 3.737.41.525 1.759.105 3.176-.525a19.26 19.26 0 0 0-1.648 7.822 19.486 19.486 0 0 0 9.57 16.757l.524 4.83v.036c.058 1.612.084 3.223.105 4.83 0 1.128 0 2.283-.031 3.438a23.707 23.707 0 0 1-7.832 5.827c2.467.41 4.819-.168 7.108-1.155a10.132 10.132 0 0 1-1.838 3.538c.63-.22 1.26-.42 1.89-.63-.33.53-.622 1.08-.877 1.649-.388.899-.672 1.84-.845 2.803a39.372 39.372 0 0 0-4.65 9.176v.068c-.35 1.008-.66 2.03-.93 3.066-.126.497-.242.996-.347 1.496v.11a45.977 45.977 0 0 0-.525 3.061v.21c-.057.478-.11.96-.147 1.444v.073a30.916 30.916 0 0 0-.089 1.538v1.812c0 .986.063 1.978.158 2.97 0 .121 0 .247.036.368.042.404.09.808.147 1.218 0 .094 0 .189.037.278.068.488.147.971.236 1.454 0 .105.048.215.069.32.073.389.152.772.241 1.16l.095.4c.115.483.236.96.372 1.443.08.273.158.525.242.814.25.995.426 2.007.525 3.029l-2.872.094c-6.145.175-12.285.454-18.42.835-.767-2.955-3.381-4.662-6.672-5.066a13.166 13.166 0 0 0-1.575-.094 8.74 8.74 0 0 0 1.501-1.633 7.234 7.234 0 0 0 1.197-2.625 7.187 7.187 0 0 0-2.173 1.906 15.58 15.58 0 0 0-.525.766v-1.574a.247.247 0 0 0-.252-.252h-.525a.247.247 0 0 0-.252.252v3.207h-.284c-.346.032-.682.073-1.013.136-3.575.667-6.194 2.961-6.194 6.825a8.4 8.4 0 0 0 2.96 6.394 18.41 18.41 0 0 0 .814 3.538c.362 1.14.835 2.378 1.895 2.945a4.33 4.33 0 0 0 2.068.378c5.838 0 11.36-2.693 17.172-3.15 3.59-.288 7.197.268 10.798.158.525 0 1.05-.053 1.575-.095-4.924 24.384-10.882 49.078-7.77 73.709.205 1.638.526 3.412 1.749 4.525 1.622 1.48 4.12 1.239 6.3 1.05a52.653 52.653 0 0 1 17.821 1.423 5.412 5.412 0 0 0 2.51.089c.177-.04.353-.091.525-.152l.146-.058c.11-.042.216-.084.315-.131l.153-.08.257-.157c.042-.031.09-.057.126-.089.091-.063.177-.133.257-.21l.074-.063c.098-.096.19-.198.278-.304l.063-.095c.06-.079.117-.161.168-.246.026-.042.052-.084.073-.126.021-.042.084-.158.121-.237.037-.078.042-.094.058-.141.016-.048.068-.174.1-.263.031-.09 0-.084.042-.131s.073-.263.1-.394v-.084c0-.11.041-.226.057-.336.016-.11 0-.115 0-.173v-.447-.718-.168c0-.468-.052-.94-.1-1.392a8.31 8.31 0 0 0 1.145.247 6.41 6.41 0 0 0 1.092.079h.052c.173 0 .347 0 .525-.042.152-.024.303-.055.452-.095h.068c.137-.04.27-.093.399-.157l.063-.037c.109-.06.213-.13.31-.21l.047-.037c.098-.091.186-.193.262-.304l.047-.079c.078-.126.14-.262.184-.404.3-1.013-.383-2.158.709-3.087 1.05 3.365 2.1 6.735 2.273 10.216.058 1.27 0 2.625.745 3.675.485.573 1.012 1.11 1.575 1.606 1.607 1.738 1.643 4.357 1.533 6.709a140.955 140.955 0 0 1-7.832 40.022 20.032 20.032 0 0 1-1.607 3.675 17.79 17.79 0 0 1-3.942 4.336 50.012 50.012 0 0 1-7.008 4.982 21.444 21.444 0 0 0-3.565 2.367c-.042-.12-.089-.236-.12-.362-.058-.241-.137-.525-.373-.614a.714.714 0 0 0-.525.084c-2.462 1.081-4.924 2.163-7.292 3.428a8.51 8.51 0 0 0-3.076 2.378c-.756 1.05-.982 2.625-.2 3.675.688.918 1.922 1.223 3.061 1.428a54.27 54.27 0 0 0 4.389.577 6.63 6.63 0 0 0-1.937 1.722c-.756 1.05-.982 2.625-.2 3.675.688.918 1.922 1.223 3.06 1.427 9.308 1.644 18.852.525 28.3.247 3.072-.1 6.211-.12 9.12-1.118a4.593 4.593 0 0 0 1.574-.824c1.323-1.166 1.192-3.213.96-4.95l-.96-7.098c-.141 0-.278.047-.414.079a104.896 104.896 0 0 1 4.31-19.633c3.202-9.948 7.968-19.75 7.905-30.159v-.756c-.089-3.26-.672-6.483-1.05-9.727-.593-5.428-.525-10.904-.488-16.358a35.172 35.172 0 0 1 .446-6.389c0-.073.032-.141.048-.215l8.719-.23a6.147 6.147 0 0 0 2.814-.526 1.848 1.848 0 0 0 1.018-2.252c3.717 1.685 8.688-.609 9.785-4.514.077-.275.138-.554.184-.835a.262.262 0 0 1 0-.063c.037-.263.063-.525.074-.782v-.131c.054-1.804-.225-3.601-.825-5.303-1.784-5.055-4.62-9.659-7.286-14.315a259.12 259.12 0 0 1-4.005-7.302l1.139 1.465c.4.597.924 1.1 1.538 1.475 2.126 1.097 4.352-1.113 6.515-2.132 2.871-1.354 6.23-.556 9.401-.33 3.171.225 6.993-.594 8.127-3.533.367-1.2.438-2.473.205-3.707zm-54.664-78.895c0 1.124.074 2.263.163 3.407a31.833 31.833 0 0 0-3.675-4.882l3.512 1.475z"/>
        <path fill="#99D55C" d="M285.575 183.083a7.181 7.181 0 0 1 2.147-1.895 7.202 7.202 0 0 1-1.181 2.625c-.914 1.244-1.874 2.1-2.142 1.895-.268-.205.252-1.381 1.176-2.625z"/>
        <path fill="#000" d="M285.69 183.177a5.297 5.297 0 0 1 1.575-1.412 5.38 5.38 0 0 1-.876 1.943c-.683.923-1.397 1.574-1.575 1.412-.179-.163.194-1.019.876-1.943z" opacity=".1"/>
        <path fill="#F6987E" d="M284.3 182.038h.524a.252.252 0 0 1 .252.252v5.948h-.997v-5.948a.252.252 0 0 1 .22-.252z"/>
        <path fill="#FC4A4A" d="M293.45 192.438a8.4 8.4 0 1 1-16.8 0c0-3.848 2.589-6.127 6.122-6.793a12.342 12.342 0 0 1 2.278-.205c.526 0 1.052.03 1.575.094 3.884.483 6.824 2.804 6.824 6.904z"/>
        <path fill="#000" d="M286.625 185.534c-.152.29-.977.525-1.974.525a3.48 3.48 0 0 1-1.88-.393 12.342 12.342 0 0 1 2.279-.205c.526-.008 1.052.017 1.575.073z" opacity=".1"/>
        <path fill="#000" d="M286.452 200.637a8.4 8.4 0 0 1-8.4-8.399c0-3.78 2.494-6.042 5.927-6.75-.405.03-.808.083-1.207.157-3.533.666-6.121 2.945-6.121 6.793a8.4 8.4 0 0 0 10.283 8.184c-.162.01-.31.015-.482.015z" opacity=".1"/>
        <path fill="#FDA8A8" d="M323.477 356.102c1.16 1.05 2.934 1.024 4.509.909l7.176-.525c5.701-.42 11.596-.893 16.625-3.607a3.953 3.953 0 0 0 1.38-1.05c.4-.686.61-1.468.605-2.262.679-7.776 2.225-15.45 4.609-22.883 3.15-9.895 7.874-19.649 7.811-30.006v-.751c-.09-3.244-.661-6.452-1.013-9.68-.583-5.402-.525-10.846-.483-16.274a35.314 35.314 0 0 1 .44-6.357c.332-1.706 1.576-3.417.815-4.919-1.476-2.913-6.825-3.984-9.702-4.09-3.874-.136-7.685.878-11.428 1.885-1.139.31-2.33.64-3.192 1.444-1.154 1.081-1.485 2.777-1.527 4.357-.2 7.008 3.837 13.528 4.157 20.526.058 1.26 0 2.625.735 3.675a15.224 15.224 0 0 0 1.575 1.6c1.575 1.728 1.622 4.332 1.512 6.673a141.139 141.139 0 0 1-7.738 39.818 20.169 20.169 0 0 1-1.575 3.674 17.806 17.806 0 0 1-3.895 4.315 49.781 49.781 0 0 1-6.924 4.956c-1.632.966-3.375 1.89-4.493 3.423-1.119 1.532-1.365 3.858.02 5.15z"/>
        <path fill="#000" d="M323.477 356.102c1.16 1.05 2.934 1.024 4.509.909l7.176-.525c5.701-.42 11.596-.893 16.625-3.607a3.953 3.953 0 0 0 1.38-1.05c.4-.686.61-1.468.605-2.262.679-7.776 2.225-15.45 4.609-22.883 3.15-9.895 7.874-19.649 7.811-30.006v-.751c-.09-3.244-.661-6.452-1.013-9.68-.583-5.402-.525-10.846-.483-16.274a35.314 35.314 0 0 1 .44-6.357c.332-1.706 1.576-3.417.815-4.919-1.476-2.913-6.825-3.984-9.702-4.09-3.874-.136-7.685.878-11.428 1.885-1.139.31-2.33.64-3.192 1.444-1.154 1.081-1.485 2.777-1.527 4.357-.2 7.008 3.837 13.528 4.157 20.526.058 1.26 0 2.625.735 3.675a15.224 15.224 0 0 0 1.575 1.6c1.575 1.728 1.622 4.332 1.512 6.673a141.139 141.139 0 0 1-7.738 39.818 20.169 20.169 0 0 1-1.575 3.674 17.806 17.806 0 0 1-3.895 4.315 49.781 49.781 0 0 1-6.924 4.956c-1.632.966-3.375 1.89-4.493 3.423-1.119 1.532-1.365 3.858.02 5.15z" opacity=".1"/>
        <path fill="#EEEFF3" d="M323.477 356.102c1.16 1.05 2.934 1.024 4.509.909l7.176-.525c5.701-.42 11.596-.893 16.625-3.607a3.953 3.953 0 0 0 1.38-1.05c.4-.686.61-1.468.605-2.262.679-7.776 2.225-15.45 4.609-22.883 3.15-9.895 7.874-19.649 7.811-30.006-6.067.67-12.17.972-18.274.903a141.139 141.139 0 0 1-7.575 36.983 20.169 20.169 0 0 1-1.575 3.674 17.806 17.806 0 0 1-3.895 4.315 49.781 49.781 0 0 1-6.924 4.956c-1.632.966-3.375 1.89-4.493 3.423-1.119 1.532-1.365 3.879.02 5.17z"/>
        <path fill="#000" d="M323.477 356.102c1.16 1.05 2.934 1.024 4.509.909l7.176-.525c5.701-.42 11.596-.893 16.625-3.607a3.953 3.953 0 0 0 1.38-1.05c.4-.686.61-1.468.605-2.262.679-7.776 2.225-15.45 4.609-22.883 3.15-9.895 7.874-19.649 7.811-30.006-6.067.67-12.17.972-18.274.903a141.139 141.139 0 0 1-7.575 36.983 20.169 20.169 0 0 1-1.575 3.674 17.806 17.806 0 0 1-3.895 4.315 49.781 49.781 0 0 1-6.924 4.956c-1.632.966-3.375 1.89-4.493 3.423-1.119 1.532-1.365 3.879.02 5.17z" opacity=".1"/>
        <path fill="#BBBDC8" d="M339.33 353.887a27.035 27.035 0 0 0 4.945-2.362l7.911-4.462a6.704 6.704 0 0 1 2.347-.95l.945 7.06c.236 1.733.362 3.77-.945 4.93a4.599 4.599 0 0 1-1.575.818c-2.872.993-5.969 1.014-9.008 1.108-9.334.3-18.762 1.391-27.96-.247-1.123-.2-2.34-.525-3.018-1.417-.771-1.05-.551-2.572.194-3.638a8.441 8.441 0 0 1 3.04-2.368c2.341-1.26 4.772-2.33 7.202-3.406a.703.703 0 0 1 .499-.084c.236.078.31.367.373.608.425 1.722 1.81 3.082 3.39 3.896.022 0 8.164 1.627 11.66.514z"/>
        <path fill="#000" d="M339.33 353.887a27.035 27.035 0 0 0 4.945-2.362l7.911-4.462a6.704 6.704 0 0 1 2.347-.95l.945 7.06c.236 1.733.362 3.77-.945 4.93a4.599 4.599 0 0 1-1.575.818c-2.872.993-5.969 1.014-9.008 1.108-9.334.3-18.762 1.391-27.96-.247-1.123-.2-2.34-.525-3.018-1.417-.771-1.05-.551-2.572.194-3.638a8.441 8.441 0 0 1 3.04-2.368c2.341-1.26 4.772-2.33 7.202-3.406a.703.703 0 0 1 .499-.084c.236.078.31.367.373.608.425 1.722 1.81 3.082 3.39 3.896.022 0 8.164 1.627 11.66.514z" opacity=".1"/>
        <path fill="#FDA8A8" d="M328.726 363.452c1.16 1.05 2.935 1.023 4.51.908l7.176-.525c5.7-.42 11.596-.892 16.625-3.606a3.953 3.953 0 0 0 1.38-1.05c.4-.687.609-1.468.604-2.263.68-7.775 2.225-15.45 4.61-22.883 3.149-9.895 7.874-19.649 7.81-30.006v-.75c-.089-3.245-.66-6.452-1.013-9.68-.582-5.403-.525-10.846-.483-16.274a35.314 35.314 0 0 1 .441-6.358c.331-1.706 1.575-3.417.814-4.918-1.475-2.914-6.824-3.985-9.701-4.09-3.874-.136-7.685.877-11.428 1.885-1.14.31-2.331.64-3.192 1.443-1.155 1.082-1.486 2.777-1.528 4.358-.2 7.008 3.838 13.528 4.158 20.525.058 1.26 0 2.625.735 3.675a15.224 15.224 0 0 0 1.575 1.601c1.575 1.727 1.622 4.33 1.512 6.672a141.139 141.139 0 0 1-7.738 39.818 20.169 20.169 0 0 1-1.575 3.675 17.806 17.806 0 0 1-3.895 4.315 49.781 49.781 0 0 1-6.924 4.955c-1.633.966-3.376 1.89-4.494 3.423-1.118 1.533-1.365 3.858.021 5.15z"/>
        <path fill="#EEEFF3" d="M328.726 363.452c1.16 1.05 2.935 1.023 4.51.908l7.176-.525c5.7-.42 11.596-.892 16.625-3.606a3.953 3.953 0 0 0 1.38-1.05c.4-.687.609-1.468.604-2.263.68-7.775 2.225-15.45 4.61-22.883 3.149-9.895 7.874-19.649 7.81-30.006-6.067.67-12.17.972-18.273.903a141.139 141.139 0 0 1-7.575 36.983 20.169 20.169 0 0 1-1.575 3.675 17.806 17.806 0 0 1-3.895 4.315 49.781 49.781 0 0 1-6.924 4.955c-1.633.966-3.376 1.89-4.494 3.423-1.118 1.533-1.365 3.88.021 5.17z"/>
        <path fill="#BBBDC8" d="M344.58 361.236a27.035 27.035 0 0 0 4.945-2.362l7.91-4.462a6.704 6.704 0 0 1 2.347-.95l.945 7.06c.236 1.733.362 3.77-.945 4.93a4.599 4.599 0 0 1-1.575.819c-2.871.992-5.968 1.013-9.008 1.107-9.333.3-18.762 1.392-27.959-.246-1.123-.2-2.341-.525-3.018-1.418-.772-1.05-.551-2.572.194-3.638a8.441 8.441 0 0 1 3.04-2.367c2.34-1.26 4.771-2.331 7.202-3.407a.703.703 0 0 1 .499-.084c.236.079.31.367.372.609.425 1.722 1.811 3.081 3.391 3.895.021 0 8.163 1.627 11.66.514z"/>
        <path fill="#FDA8A8" d="M318.547 150.51c2.557-3.15 2.625-7.55 2.562-11.591 0-1.575-.047-3.203-.105-4.804v-.037a54.149 54.149 0 0 0-.93-8.766 31.86 31.86 0 0 0-1.102-4.095c.347-.079.693-.152 1.05-.215a43.015 43.015 0 0 1 16.668 0c.95.189 3.354.147 4.724.614.39.093.73.332.95.667.268.561-.283 2.189-.682 3.632-.22.651-.343 1.33-.368 2.016.054.645.152 1.285.294 1.916.247 1.16.573 2.31.725 3.486.268 2.005.031 4.047.163 6.068.13 2.022.714 4.148 2.252 5.465a106.114 106.114 0 0 0-26.2 5.644z"/>
        <path fill="#000" d="M343.703 129.616c-.698.058-1.391.126-2.1.205a105.768 105.768 0 0 0-20.599 4.305v-.037l-.93-8.767v-1.6c0-.899-.025-1.807-.046-2.71a43.015 43.015 0 0 1 16.667 0c.95.19 3.354.147 4.724.615 0 .855 0 1.71.032 2.567.034.582.113 1.161.236 1.732a6.593 6.593 0 0 0 2.016 3.69z" opacity=".1"/>
        <circle cx="330.458" cy="112.603" r="19.423" fill="#FDA8A8"/>
        <path fill="#F75842" d="M313.397 185.839c-3.449-12.205-.299-25.313 7.938-34.952 1.832-2.147 3.674-4.351 6.079-5.638 2.86-1.522 6.247-1.574 9.486-1.606 2.86 0 5.81 0 8.44 1.14 3.555 1.516 6.006 4.813 8.075 8.084 2.204 3.485 4.2 7.26 4.535 11.375.179 2.441-.252 4.92.11 7.35.462 3.081 2.179 5.842 2.882 8.877.384 1.637.462 3.333.71 5.002a46.847 46.847 0 0 0 1.616 6.74 241.872 241.872 0 0 0 21.292 49.724c2.625 4.636 5.433 9.219 7.197 14.242.798 2.273 1.376 4.725.725 7.066-1.087 3.885-5.995 6.169-9.665 4.494a1.843 1.843 0 0 1-1.008 2.236 6.016 6.016 0 0 1-2.782.525l-32.421.861c-.852.022-1.698.136-2.525.341-3.811.977-2.378 2.625-2.788 4-.498 1.68-2.908 1.544-4.588 1.05.258 2.452.315 5.45-2.85 6.163a5.35 5.35 0 0 1-2.478-.084 51.666 51.666 0 0 0-17.607-1.417c-2.163.2-4.635.44-6.236-1.05-1.208-1.108-1.523-2.871-1.727-4.499-3.229-25.723 3.412-51.482 8.399-76.895.672-3.428.43-8.982-.578-12.331l-.23-.798z"/>
        <path fill="#6C63FF" d="M356.444 168.111c.76 2.195 1.711 4.352 1.968 6.662.205 1.848-.042 3.717.068 5.57a28.547 28.547 0 0 0 1.266 6.052 95.746 95.746 0 0 0 3.732 11.25c.703 1.654 1.517 3.475.95 5.181s-2.325 2.762-2.83 4.457c-.524 1.79.526 3.675 1.864 4.982 1.339 1.307 3.013 2.236 4.252 3.627 1.35 1.518 2.1 3.455 3.05 5.25a48.569 48.569 0 0 0 4.625 6.746l6.347 8.236a4.956 4.956 0 0 0 1.522 1.47c2.1 1.092 4.3-1.108 6.436-2.1 2.835-1.349 6.153-.556 9.287-.33 3.134.225 6.908-.588 8.026-3.518.37-1.188.448-2.45.226-3.674a36.61 36.61 0 0 0-3.58-12.038c-1.145-2.299-2.541-4.498-3.26-6.96-.588-2-.704-4.106-1.17-6.137-.468-2.032-1.292-3.974-1.954-5.958-4.693-14.1-1.165-29.529-2.682-44.312-.562-5.454-2.226-11.433-6.92-14.273-2.787-1.685-6.136-1.948-9.448-2.1l-1.496-.068-2.41-.121c-3.486-.173-6.982-.304-10.378.436-4.777 1.05-10.526 4.761-10.715 10.095a62.18 62.18 0 0 0 3.224 21.575z"/>
        <path fill="#000" d="M374.34 135.984c.644 3.572.965 7.195.96 10.825.094 10.362 1.213 20.683 2.336 30.972l.74 6.824c.137 1.26.3 2.583 1.05 3.596s2.326 1.544 3.318.761c.609-2.41.488-4.94.367-7.422-.262-5.282-.523-10.564-.782-15.849-.252-5.144-.525-10.294-1.15-15.407a101.92 101.92 0 0 0-2.162-11.764 13.885 13.885 0 0 0-.751-2.347l-1.496-.068-2.43-.121z" opacity=".1"/>
        <path fill="#6C63FF" d="M340.039 140.425c-3.218-.462-6.588-.698-9.644.42-2.918 1.076-5.25 3.286-7.349 5.612a19.507 19.507 0 0 0-3.507 5.087c-1.79 4.115-1.092 8.86 0 13.218 2.977 12 8.888 23.576 18.374 31.497a68.433 68.433 0 0 0 9.192 6.3c4.2 2.462 8.535 4.724 13.181 6.147 1.297.399 2.678.735 4.006.451 1.328-.283 2.582-1.36 2.624-2.719-7.611-4.278-14.436-9.806-21.213-15.308a43.839 43.839 0 0 1-5.202-4.724c-2.405-2.704-4.1-5.969-6.43-8.735-2.1-2.483-4.725-4.578-6.3-7.418a19.79 19.79 0 0 1-1.958-6.184c-.777-4.394-.924-9.06.818-13.171 1.743-4.11 5.738-7.486 10.2-7.412 2.29.036 4.468.945 6.578 1.832l13.281 5.606c-.162-.073.762-2.378.72-2.698-.126-1.003-.305-1.018-1.05-1.78-1.27-1.27-3.245-2.162-4.856-2.903a41.545 41.545 0 0 0-11.465-3.118z"/>
        <path fill="#FFD566" d="M313.602 108.928a22.484 22.484 0 0 0 10.179-5.25l-2.777 14.573a71.651 71.651 0 0 0 8.032-4.326c.373 6.667-.168 13.487-2.625 19.691-2.457 6.205-6.987 11.76-13.066 14.515 5.396.903 10.242-2.97 15.045-5.59 3.35-1.822 9.071.052 12.735-1.05 3.108-.914 6.3-1.712 9.103-3.344 5.208-3.04 6.389-11.917 7.444-17.849 1.055-5.932.095-12.074-1.659-17.848a31.408 31.408 0 0 0-2.357-5.911 20.4 20.4 0 0 0-29.13-7.255c-4.84 3.187-9.328 7.874-13.024 12.32-.525.615-2.693 2.799-1.973 3.717.876 1.113 6.02-2.057 6.892-2.488-.252.95-1.816 5.848-2.819 6.095z"/>
        <g fill="#000" opacity=".1">
            <path d="M335.445 278.714a5.35 5.35 0 0 1-2.477-.084 51.666 51.666 0 0 0-17.607-1.418c-2.163.2-4.636.441-6.237-1.05-1.207-1.107-1.522-2.871-1.727-4.498-3.228-25.723 3.412-51.483 8.4-76.896.671-3.428.43-8.982-.578-12.33l-.236-.814a37.193 37.193 0 0 1 .33-21.172 37.476 37.476 0 0 0-1.916 25.387l.237.814c1.008 3.349 1.249 8.924.577 12.33-4.971 25.414-11.612 51.189-8.4 76.896.206 1.627.526 3.391 1.728 4.499 1.575 1.475 4.074 1.233 6.236 1.05a51.666 51.666 0 0 1 17.607 1.417 5.35 5.35 0 0 0 2.478.084c2.583-.583 3.019-2.688 2.956-4.772a4.11 4.11 0 0 1-1.37.557zM384.403 263.537a1.843 1.843 0 0 1-1.008 2.237 6.016 6.016 0 0 1-2.783.525l-32.42.86c-.852.022-1.699.136-2.526.342-3.81.976-2.378 2.624-2.787 4-.499 1.68-2.908 1.543-4.588 1.05.157 1.496.236 3.191-.441 4.451 1.475.22 3.06.027 3.454-1.302.394-1.328-1.024-3.023 2.787-4 .827-.205 1.674-.32 2.525-.34l32.4-.862a6.016 6.016 0 0 0 2.783-.525 1.843 1.843 0 0 0 1.008-2.236c3.674 1.675 8.578-.609 9.664-4.494a7.554 7.554 0 0 0 .273-1.806c-1.963 2.352-5.517 3.402-8.341 2.1z"/>
        </g>
        <path fill="#FDA8A8" d="M340.91 153.843a181.592 181.592 0 0 1 7.386 18.2c1.722 4.992 3.24 10.237 2.667 15.486-.572 5.25-3.675 10.552-8.714 12.205-2.142.704-4.436.71-6.688.762a141.67 141.67 0 0 0-16.121 1.301c-2.488.412-4.995.69-7.512.835-3.56.116-7.119-.44-10.668-.152-5.743.467-11.197 3.15-16.96 3.15a4.305 4.305 0 0 1-2.048-.378c-1.05-.567-1.517-1.796-1.874-2.93-.803-2.561-1.433-5.501-.074-7.816 1.675-2.85 5.48-3.423 8.783-3.675a528.062 528.062 0 0 1 22.326-1.102c6.357-.179 13.245-.42 18.174-4.441.333-.238.604-.551.793-.914a2.913 2.913 0 0 0-.063-1.874 81.64 81.64 0 0 1-2.489-23.387 3.465 3.465 0 0 1 .525-2.005 3.291 3.291 0 0 1 1.664-.966 24.363 24.363 0 0 1 13.586-.378"/>
        <path fill="#F75842" d="M327.697 159.108a3.942 3.942 0 0 0-1.9 1.402c.21-2.19-.074-4.4-.032-6.604.042-2.205.452-4.504 1.843-6.216 1.769-2.183 4.777-2.965 7.59-3.039 4.085-.11 8.31 1.076 11.303 3.858a11.549 11.549 0 0 1 3.543 6.825c.095.719.41 3.417-.34 3.88-.657.409-3.15-1.003-3.954-1.23a26.52 26.52 0 0 0-18.053 1.124z"/>
        <circle cx="248.303" cy="31.497" r="3.675" fill="#6C63FF" opacity=".1"/>
        <circle cx="272.976" cy="102.366" r="3.675" fill="#6C63FF" opacity=".1"/>
        <circle cx="203.157" cy="35.172" r="3.675" fill="#6C63FF" opacity=".1"/>
        <circle cx="90.292" cy="202.632" r="9.449" fill="#6C63FF" opacity=".1"/>
        <circle cx="470.884" cy="52.495" r="3.675" fill="#6C63FF" opacity=".1"/>
        <circle cx="475.083" cy="102.366" r="12.074" fill="#6C63FF" opacity=".1"/>
        <circle cx="494.506" cy="68.244" r="3.675" fill="#6C63FF" opacity=".1"/>
        <circle cx="461.959" cy="135.438" r="3.675" fill="#6C63FF" opacity=".1"/>
        <circle cx="240.954" cy="60.895" r="3.675" fill="#6C63FF" opacity=".1"/>
        <circle cx="103.416" cy="246.728" r="3.675" fill="#6C63FF" opacity=".1"/>
        <circle cx="97.641" cy="162.736" r="3.675" fill="#6C63FF" opacity=".1"/>
        <circle cx="299.224" cy="27.823" r="3.675" fill="#6C63FF" opacity=".1"/>
        <circle cx="311.298" cy="60.895" r="3.675" fill="#6C63FF" opacity=".1"/>
    </g>
</svg>
