<svg id="Capa_1" enable-background="new 0 0 512.028 512.028" height="512" viewBox="0 0 512.028 512.028" width="512" xmlns="http://www.w3.org/2000/svg" xmlns:xlink="http://www.w3.org/1999/xlink"><linearGradient id="SVGID_1_" gradientUnits="userSpaceOnUse" x1=".048" x2="511.981" y1="256.014" y2="256.014"><stop offset="0" stop-color="#00f2fe"/><stop offset=".0208" stop-color="#03effe"/><stop offset=".2931" stop-color="#24d2fe"/><stop offset=".5538" stop-color="#3cbdfe"/><stop offset=".7956" stop-color="#4ab0fe"/><stop offset="1" stop-color="#4facfe"/></linearGradient><path d="m411.048 307.028c-11.046 0-20 8.954-20 20v65h-271v-352h151c11.046 0 20-8.954 20-20s-8.954-20-20-20h-170.44c-.188-.005-.371-.028-.56-.028s-.373.023-.561.028h-39.439c-33.084 0-60 26.916-60 60v392c0 33.084 26.916 60 60 60h351c11.046 0 20-8.954 20-20s-8.954-20-20-20h-351c-11.028 0-20-8.972-20-20s8.972-20 20-20h351c11.046 0 20-8.954 20-20v-85c0-11.046-8.954-20-20-20zm-371 88.441v-335.441c0-11.028 8.972-20 20-20h20v352h-20c-7.012 0-13.741 1.22-20 3.441zm369.933-395.441c-56.178 0-101.935 45.574-102 101.635.042 43.034 25.267 70.083 49.662 96.243 11.564 12.401 23.522 25.224 32.791 39.835 3.668 5.783 10.041 9.287 16.889 9.287h5.319c6.848 0 13.221-3.504 16.889-9.287 9.269-14.612 21.227-27.435 32.791-39.835 24.395-26.159 49.619-53.209 49.661-96.285-.067-56.018-45.824-101.593-102.002-101.593zm23.085 170.598c-7.713 8.271-15.584 16.712-23.085 25.994-7.5-9.282-15.372-17.723-23.084-25.994-21.728-23.299-38.889-41.702-38.916-68.959.04-33.987 27.853-61.638 62-61.638 34.148 0 61.961 27.651 62 61.596-.027 27.298-17.188 45.702-38.915 69.001zm-3.018-68.598c0 11.046-8.954 20-20 20s-20-8.954-20-20 8.954-20 20-20 20 8.955 20 20z" fill="url(#SVGID_1_)"/></svg>