<svg xmlns="http://www.w3.org/2000/svg" xmlns:xlink="http://www.w3.org/1999/xlink" width="232" height="232" viewBox="0 0 232 232">
    <defs>
        <circle id="a" cx="114" cy="114" r="114"/>
    </defs>
    <g fill="none" fill-rule="evenodd">
        <g transform="translate(2 2)">
            <circle cx="114" cy="114" r="115" stroke="#273545" stroke-width="2"/>
            <rect width="182" height="144" x="23" y="30" fill="#F5F6FA" stroke="#273545" stroke-width="2" rx="5"/>
            <mask id="b" fill="#fff">
                <use xlink:href="#a"/>
            </mask>
            <use fill="#0DB0FF" xlink:href="#a"/>
            <g mask="url(#b)">
                <g transform="translate(24 31)">
                    <rect width="182" height="227" x="-1" y="-1" fill="#F5F6FA" stroke="#273545" stroke-width="2" rx="5"/>
                    <g transform="translate(24 24)">
                        <rect width="60" height="8" x="72" y="16" fill="#B9BBC5" rx="4"/>
                        <rect width="60" height="8" x="72" y="36" fill="#B9BBC5" rx="4"/>
                        <rect width="20" height="8" x="72" y="56" fill="#B9BBC5" rx="4"/>
                        <rect width="32" height="8" x="100" y="56" fill="#B9BBC5" rx="4"/>
                        <rect width="80" height="8" y="78" fill="#B9BBC5" rx="4"/>
                        <rect width="44" height="8" x="88" y="78" fill="#B9BBC5" rx="4"/>
                        <rect width="40" height="8" y="98" fill="#B9BBC5" rx="4"/>
                        <rect width="84" height="8" x="48" y="98" fill="#B9BBC5" rx="4"/>
                        <rect width="60" height="8" y="118" fill="#B9BBC5" rx="4"/>
                        <rect width="64" height="8" x="68" y="118" fill="#B9BBC5" rx="4"/>
                        <rect width="132" height="8" y="138" fill="#B9BBC5" rx="4"/>
                        <path fill="#5AACCC" d="M32 64C14.327 64 0 49.673 0 32 0 14.327 14.327 0 32 0c17.673 0 32 14.327 32 32 0 17.673-14.327 32-32 32"/>
                        <path fill="#EACEAC" d="M17.459 40.094c0 1.81-1.446 3.278-3.23 3.278-1.783 0-3.229-1.468-3.229-3.278 0-1.811 1.446-3.28 3.23-3.28 1.783 0 3.229 1.469 3.229 3.28"/>
                        <path stroke="#3F362B" stroke-linecap="round" stroke-linejoin="round" stroke-width="2" d="M17.459 40.094c0 1.81-1.446 3.278-3.23 3.278-1.783 0-3.229-1.468-3.229-3.278 0-1.811 1.446-3.28 3.23-3.28 1.783 0 3.229 1.469 3.229 3.28z"/>
                        <path fill="#EACEAC" d="M53.977 40.094c0 1.81-1.445 3.278-3.23 3.278-1.783 0-3.229-1.468-3.229-3.278 0-1.811 1.446-3.28 3.23-3.28s3.23 1.469 3.23 3.28"/>
                        <path stroke="#3F362B" stroke-linecap="round" stroke-linejoin="round" stroke-width="2" d="M53.977 40.094c0 1.81-1.445 3.278-3.23 3.278-1.783 0-3.229-1.468-3.229-3.278 0-1.811 1.446-3.28 3.23-3.28s3.23 1.469 3.23 3.28z"/>
                        <path fill="#EACEAC" d="M32.516 11.778c-10.05 0-18.196 8.27-18.196 18.471v9.189c0 10.214 8.142 18.496 18.196 18.525 10.054-.03 18.196-8.311 18.196-18.525v-9.189c0-10.202-8.147-18.471-18.196-18.471"/>
                        <path stroke="#3F362B" stroke-linecap="round" stroke-linejoin="round" stroke-width="2" d="M32.516 11.778c-10.05 0-18.196 8.27-18.196 18.471v9.189c0 10.214 8.142 18.496 18.196 18.525 10.054-.03 18.196-8.311 18.196-18.525v-9.189c0-10.202-8.147-18.471-18.196-18.471z"/>
                        <path fill="#DBADA9" d="M34.142 41.42c0 .86-.686 1.556-1.532 1.556a1.544 1.544 0 0 1-1.533-1.556c0-.86.686-1.556 1.533-1.556.846 0 1.532.697 1.532 1.556"/>
                        <path fill="#EFD9BF" d="M23.885 43.82h-4.139c-.989 0-1.79-.813-1.79-1.817s.801-1.818 1.79-1.818h4.139c.988 0 1.79.814 1.79 1.818s-.802 1.818-1.79 1.818M45.226 43.82h-4.138c-.989 0-1.79-.813-1.79-1.817s.801-1.818 1.79-1.818h4.138c.99 0 1.79.814 1.79 1.818s-.8 1.818-1.79 1.818"/>
                        <path stroke="#3F362B" stroke-linecap="round" stroke-linejoin="round" stroke-width="2" d="M34.435 41.79a2.175 2.175 0 0 1-1.995 1.327c-.893 0-1.66-.546-1.995-1.327"/>
                        <path fill="#FFF" d="M23.428 35.92v2.585"/>
                        <path stroke="#3F362B" stroke-linecap="round" stroke-linejoin="round" stroke-width="2" d="M23.428 35.92v2.585"/>
                        <path fill="#FFF" d="M41.826 35.92v2.585"/>
                        <path stroke="#3F362B" stroke-linecap="round" stroke-linejoin="round" stroke-width="2" d="M41.826 35.92v2.585M27.915 46.444s4.11 2.167 9.125 0M21.434 28.47h3.715M39.772 28.47h3.715"/>
                        <path fill="#876B54" d="M47.464 19.571a15.982 15.982 0 0 0-1.05-1.27c-3.962-5.222-1.93-8.309-1.93-8.309-3.583-.65-5.234.667-5.234.667C38.02 8 39.389 6 39.389 6c-7.836.815-11.41 6.265-11.41 6.265-.274-2.444.61-3.776.61-3.776-6.885 4.378-10.553 9.98-12.069 12.778a16.455 16.455 0 0 0-.77 1.555c-.057.131-.085.201-.085.201-1.644 3.954-1.32 7.418-1.32 7.418v2.772a1.513 1.513 0 0 0 1.494-1.477c.02-.69.055-1.321.1-1.9.529-6.74 7.26-11.11 13.476-8.681.229.09.448.182.656.276a6 6 0 0 0 4.941 0c.269-.12.554-.24.856-.352 6.132-2.287 12.73 2.046 13.268 8.656.049.605.087 1.27.109 2.001.024.82.685 1.473 1.493 1.477v-2.772s.537-5.735-3.274-10.87"/>
                        <path stroke="#3F362B" stroke-linecap="round" stroke-linejoin="round" stroke-width="2" d="M47.464 19.571a15.982 15.982 0 0 0-1.05-1.27c-3.962-5.222-1.93-8.309-1.93-8.309-3.583-.65-5.234.667-5.234.667C38.02 8 39.389 6 39.389 6c-7.836.815-11.41 6.265-11.41 6.265-.274-2.444.61-3.776.61-3.776-6.885 4.378-10.553 9.98-12.069 12.778a16.455 16.455 0 0 0-.77 1.555c-.057.131-.085.201-.085.201-1.644 3.954-1.32 7.418-1.32 7.418v2.772a1.513 1.513 0 0 0 1.494-1.477c.02-.69.055-1.321.1-1.9.529-6.74 7.26-11.11 13.476-8.681.229.09.448.182.656.276a6 6 0 0 0 4.941 0c.269-.12.554-.24.856-.352 6.132-2.287 12.73 2.046 13.268 8.656.049.605.087 1.27.109 2.001.024.82.685 1.473 1.493 1.477v-2.772s.537-5.735-3.274-10.87z"/>
                        <path stroke="#FFF" stroke-linecap="round" stroke-linejoin="round" stroke-width="2" d="M26.289 11.938s-5.074 3.738-7.543 8.298M36.716 7.765s-4.954 1.586-8.01 5.545"/>
                    </g>
                </g>
            </g>
        </g>
        <g transform="translate(134 134)">
            <circle cx="48" cy="48" r="48" fill="#51DA14" stroke="#273545" stroke-width="2"/>
            <path fill="#273545" d="M58.56 1.245C37.432 6.185 21.689 25.243 21.689 48S37.432 89.815 58.56 94.755A47.588 47.588 0 0 1 47.716 96C21.363 96 0 74.51 0 48S21.363 0 47.716 0c3.73 0 7.36.43 10.844 1.245z" opacity=".2"/>
        </g>
        <path fill="#FFF" stroke="#273545" stroke-linecap="round" stroke-width="2" d="M169.844 205.357a3.736 3.736 0 0 0 2.67 1.16h.049a3.743 3.743 0 0 0 2.652-1.087l34.63-34.302a3.743 3.743 0 0 0 0-5.305l-5.437-5.469a3.749 3.749 0 0 0-2.658-1.106 3.566 3.566 0 0 0-2.664 1.088l-25.34 25.102c-.266.254-.62.395-.988.395a1.361 1.361 0 0 1-.975-.425l-7.066-7.365a3.748 3.748 0 0 0-2.633-1.155 3.86 3.86 0 0 0-2.682 1.04l-5.572 5.31a3.744 3.744 0 0 0-.122 5.305l16.136 16.814z"/>
    </g>
</svg>
