<?xml version="1.0" encoding="utf-8"?>
<!-- Generator: Adobe Illustrator 23.0.2, SVG Export Plug-In . SVG Version: 6.00 Build 0)  -->
<svg version="1.1" id="Capa_1" xmlns="http://www.w3.org/2000/svg" xmlns:xlink="http://www.w3.org/1999/xlink" x="0px" y="0px"
	 viewBox="0 0 24 24" style="enable-background:new 0 0 24 24;" xml:space="preserve">
<style type="text/css">
	.st0{fill:#647177;}
</style>
<g>
	<path class="st0" d="M7.6,6.4C6.7,6,5.7,6.4,5.3,7.3C5,8.2,5.4,9.2,6.3,9.5c0.2,0.1,0.4,0.1,0.6,0.1c0.7,0,1.3-0.4,1.6-1.1
		c0,0,0,0,0,0C8.9,7.7,8.4,6.7,7.6,6.4z M7.6,8.2C7.4,8.6,7,8.7,6.7,8.6C6.3,8.4,6.1,8,6.3,7.7c0.1-0.3,0.4-0.4,0.7-0.4
		c0.1,0,0.2,0,0.3,0.1C7.6,7.4,7.7,7.8,7.6,8.2z"/>
	<path class="st0" d="M20.5,5c1.1,0,1.9-1.4,1.9-2.3c0-1-0.8-1.9-1.9-1.9c-1,0-1.9,0.8-1.9,1.9C18.7,3.6,19.4,5,20.5,5z M20.5,1.8
		c0.5,0,0.9,0.4,0.9,0.9c0,0.6-0.5,1.3-0.9,1.3c-0.4,0-0.9-0.7-0.9-1.3C19.7,2.2,20,1.8,20.5,1.8z"/>
	<path class="st0" d="M20.5,14.5c-0.3,0-0.5,0.2-0.5,0.5v8.3c0,0.3,0.2,0.5,0.5,0.5s0.5-0.2,0.5-0.5V15C21,14.8,20.8,14.5,20.5,14.5
		z"/>
	<path class="st0" d="M23.2,5.9c-1.6-0.4-1.9-0.1-2,0.2c-0.1,0.2-0.4,0.3-0.5,0.3c-0.4,0.1-0.9-0.1-1.2-0.4c-0.6-0.7-1.2-1-2-1h-4.9
		c-0.3,0-0.5,0.2-0.5,0.5V6c0,0.2,0.1,0.4,0.3,0.5l4.5,2.1c0.5,0.2,0.9,0.8,0.9,1.4l0,3.6l0.5,9.8c0,0.3,0.2,0.5,0.5,0.5
		c0.3,0,0.5-0.3,0.5-0.5l-0.5-9.8V9.9c0-1-0.6-1.9-1.5-2.3l-3.9-1.8h4.1c0.5,0,0.9,0.2,1.3,0.7c0.5,0.6,1.3,0.9,2,0.8
		c0.5-0.1,0.9-0.3,1.2-0.6c0.2,0,0.5,0,0.8,0.1c0.1,0.4,0.4,1.7,0.2,6.1c-0.2,0-0.3,0-0.5,0.2c-0.1,0.1-0.2,0.3-0.2,0.4l-0.5,9.8
		c0,0.3,0.2,0.5,0.5,0.5c0,0,0,0,0,0c0.3,0,0.5-0.2,0.5-0.5l0.5-9.4c0.1,0,0.3,0,0.5-0.2c0.1-0.1,0.2-0.3,0.2-0.4
		C24.2,6,23.5,5.9,23.2,5.9z"/>
	<path class="st0" d="M6.6,21.8c-0.1,0-0.1,0-0.2,0H5.3c-0.1,0-0.3,0.1-0.4,0.1c-0.6,0.6-1.2,0.6-1.9,0c-0.1-0.1-0.2-0.1-0.4-0.1h-1
		c-0.8,0-1.5,0.7-1.5,1.5c0,0.1,0,0.1,0,0.2c0,0.3,0.3,0.4,0.6,0.4c0.3,0,0.5-0.3,0.4-0.6c0-0.3,0.2-0.5,0.5-0.5h0.8
		c0.9,0.8,2,0.8,3,0l1,0c0.3,0,0.5,0.3,0.4,0.6c0,0.3,0.2,0.5,0.4,0.6c0,0,0,0,0.1,0c0.2,0,0.5-0.2,0.5-0.4
		C8,22.6,7.4,21.9,6.6,21.8z"/>
	<path class="st0" d="M14.6,21.8c-0.1,0-0.1,0-0.2,0h-1.1c-0.1,0-0.3,0.1-0.4,0.1c-0.6,0.6-1.2,0.6-1.9,0c-0.1-0.1-0.2-0.1-0.4-0.1
		h-1c-0.8,0-1.5,0.7-1.5,1.5c0,0.1,0,0.1,0,0.2c0,0.3,0.3,0.4,0.6,0.4c0.3,0,0.5-0.3,0.4-0.6c0-0.3,0.2-0.5,0.5-0.5h0.8
		c0.9,0.8,2,0.8,3,0l1,0c0.3,0,0.5,0.3,0.4,0.6s0.2,0.5,0.4,0.6c0,0,0,0,0.1,0c0.2,0,0.5-0.2,0.5-0.4C16,22.6,15.4,21.9,14.6,21.8z"
		/>
	<path class="st0" d="M10.3,10.4c0.2,0.1,0.4,0,0.6-0.2c0.2-0.4,0.4-0.7,0.5-1.2c0.1-0.2,0-0.4-0.2-0.6l-0.7-0.4c0-0.1,0-0.3,0-0.4
		l0.7-0.4c0.2-0.1,0.3-0.3,0.2-0.6c-0.1-0.4-0.3-0.8-0.5-1.2c-0.1-0.2-0.3-0.3-0.6-0.2L9.5,5.6C9.4,5.5,9.3,5.4,9.2,5.3l0.2-0.8
		c0.1-0.2,0-0.4-0.2-0.6C8.9,3.8,8.5,3.6,8.1,3.5c-0.2-0.1-0.4,0-0.6,0.2L7.1,4.4c-0.1,0-0.3,0-0.4,0L6.3,3.8C6.2,3.6,6,3.5,5.8,3.5
		C5.4,3.6,5,3.8,4.6,4C4.4,4.1,4.3,4.4,4.4,4.6l0.2,0.8C4.5,5.4,4.4,5.5,4.3,5.6L3.6,5.4C3.3,5.3,3.1,5.4,3,5.6
		C2.8,6,2.6,6.4,2.5,6.8C2.5,7,2.6,7.2,2.8,7.4l0.7,0.4c0,0.1,0,0.3,0,0.4L2.8,8.5C2.6,8.6,2.5,8.9,2.5,9.1C2.6,9.5,2.8,9.9,3,10.3
		c0.1,0.2,0.3,0.3,0.6,0.2l0.8-0.2c0.1,0.1,0.2,0.2,0.3,0.3l-0.2,0.8c-0.1,0.2,0,0.4,0.2,0.6c0.4,0.2,0.7,0.4,1.2,0.5
		c0,0,0.1,0,0.1,0c0.2,0,0.3-0.1,0.4-0.3l0.4-0.7c0.1,0,0.3,0,0.4,0l0.4,0.7c0.1,0.2,0.3,0.3,0.6,0.2c0.4-0.1,0.8-0.3,1.2-0.5
		c0.2-0.1,0.3-0.3,0.2-0.6l-0.2-0.8c0.1-0.1,0.2-0.2,0.3-0.3L10.3,10.4z M9,9.4C8.8,9.6,8.6,9.8,8.4,9.9c-0.2,0.1-0.2,0.3-0.2,0.5
		l0.2,0.7c-0.1,0-0.1,0.1-0.2,0.1l-0.4-0.6c-0.1-0.2-0.3-0.3-0.5-0.2c-0.3,0-0.5,0-0.8,0c-0.2,0-0.4,0.1-0.5,0.2l-0.4,0.6
		c-0.1,0-0.1-0.1-0.2-0.1l0.2-0.7c0.1-0.2,0-0.4-0.2-0.5C5.3,9.8,5.1,9.6,4.9,9.4C4.8,9.2,4.6,9.2,4.4,9.2L3.7,9.4
		c0-0.1-0.1-0.1-0.1-0.2l0.6-0.4c0.2-0.1,0.3-0.3,0.2-0.5c0-0.3,0-0.5,0-0.8c0-0.2-0.1-0.4-0.2-0.5L3.6,6.7c0-0.1,0.1-0.1,0.1-0.2
		l0.7,0.2c0.2,0.1,0.4,0,0.5-0.2c0.2-0.2,0.3-0.4,0.5-0.6c0.2-0.1,0.2-0.3,0.2-0.5L5.4,4.7c0.1,0,0.1-0.1,0.2-0.1L6,5.2
		c0.1,0.2,0.3,0.3,0.5,0.2c0.3,0,0.5,0,0.8,0c0.2,0,0.4-0.1,0.5-0.2l0.4-0.6c0.1,0,0.1,0.1,0.2,0.1L8.2,5.4c-0.1,0.2,0,0.4,0.2,0.5
		c0.2,0.2,0.4,0.3,0.6,0.5c0.1,0.2,0.3,0.2,0.5,0.2l0.7-0.2c0,0.1,0.1,0.1,0.1,0.2L9.6,7C9.5,7.1,9.4,7.3,9.4,7.5c0,0.3,0,0.5,0,0.8
		c0,0.2,0.1,0.4,0.2,0.5l0.6,0.4c0,0.1-0.1,0.1-0.1,0.2L9.5,9.2C9.3,9.1,9.1,9.2,9,9.4z"/>
	<path class="st0" d="M16.5,14.9H2v-13h14.5c0.3,0,0.5-0.2,0.5-0.5s-0.2-0.5-0.5-0.5H12V0.4c0-0.3-0.2-0.5-0.5-0.5S11,0.2,11,0.4
		v0.5H1.5c0,0,0,0-0.1,0h-1C0.2,0.9,0,1.1,0,1.4s0.2,0.5,0.5,0.5H1v13H0.5c-0.3,0-0.5,0.2-0.5,0.5s0.2,0.5,0.5,0.5h16
		c0.3,0,0.5-0.2,0.5-0.5S16.8,14.9,16.5,14.9z"/>
	<path class="st0" d="M4,21.5c1,0,1.7-1.1,1.7-2.1c0-0.9-0.8-1.7-1.7-1.7c-1,0-1.7,0.8-1.7,1.7C2.3,20.4,3.1,21.5,4,21.5z M4,18.7
		c0.4,0,0.7,0.3,0.7,0.7c0,0.5-0.4,1.1-0.7,1.1c-0.3,0-0.7-0.6-0.7-1.1C3.3,19,3.6,18.7,4,18.7z"/>
	<path class="st0" d="M12,21.5c1,0,1.7-1.1,1.7-2.1c0-0.9-0.8-1.7-1.7-1.7c-1,0-1.7,0.8-1.7,1.7C10.3,20.4,11.1,21.5,12,21.5z
		 M12,18.7c0.4,0,0.7,0.3,0.7,0.7c0,0.5-0.4,1.1-0.7,1.1s-0.7-0.6-0.7-1.1C11.3,19,11.6,18.7,12,18.7z"/>
</g>
</svg>
