<?xml version="1.0" encoding="utf-8"?>
<!-- Generator: Adobe Illustrator 23.0.1, SVG Export Plug-In . SVG Version: 6.00 Build 0)  -->
<svg version="1.1" id="Capa_1" xmlns="http://www.w3.org/2000/svg" xmlns:xlink="http://www.w3.org/1999/xlink" x="0px" y="0px"
	 viewBox="0 0 16 16" style="enable-background:new 0 0 16 16;" xml:space="preserve">
<style type="text/css">
	.st0{fill:#4382FF;}
</style>
<path class="st0" d="M15.8,7.4l-5-6c-0.4-0.4-1-0.5-1.4-0.1c-0.4,0.4-0.5,1-0.1,1.4L12.9,7H1C0.4,7,0,7.4,0,8s0.4,1,1,1h11.9
	l-3.6,4.4c-0.4,0.4-0.3,1.1,0.1,1.4C9.5,14.9,9.8,15,10,15c0.3,0,0.6-0.1,0.8-0.4l5-6C15.9,8.5,16,8.2,16,8c0,0,0,0,0,0c0,0,0,0,0,0
	c0,0,0,0,0,0C16,7.8,15.9,7.5,15.8,7.4z"/>
</svg>
