<?xml version="1.0" encoding="utf-8"?>
<!-- Generator: Adobe Illustrator 23.0.2, SVG Export Plug-In . SVG Version: 6.00 Build 0)  -->
<svg version="1.1" id="Capa_1" xmlns="http://www.w3.org/2000/svg" xmlns:xlink="http://www.w3.org/1999/xlink" x="0px" y="0px"
	 viewBox="0 0 18 22" enable-background="new 0 0 18 22" xml:space="preserve">
<g>
	<ellipse fill="#FFFFFF" cx="3.1" cy="12" rx="1.6" ry="1.3"/>
	<path fill="#2E3744" d="M3.1,13.5c-1,0-1.8-0.7-1.8-1.5s0.8-1.5,1.8-1.5s1.8,0.7,1.8,1.5S4,13.5,3.1,13.5z M3.1,10.8
		c-0.8,0-1.4,0.5-1.4,1.1s0.6,1.1,1.4,1.1c0.8,0,1.4-0.5,1.4-1.1S3.8,10.8,3.1,10.8z"/>
</g>
<g>
	<ellipse fill="#FFFFFF" cx="14.9" cy="12" rx="1.6" ry="1.3"/>
	<path fill="#2E3744" d="M14.9,13.5c-1,0-1.8-0.7-1.8-1.5s0.8-1.5,1.8-1.5c1,0,1.8,0.7,1.8,1.5S15.9,13.5,14.9,13.5z M14.9,10.8
		c-0.8,0-1.4,0.5-1.4,1.1s0.6,1.1,1.4,1.1c0.8,0,1.4-0.5,1.4-1.1S15.7,10.8,14.9,10.8z"/>
</g>
<g>
	<path fill="#F4F4FA" d="M10.4,1.6H7.5c-2.7,0-5,2.2-5,5v7V14c0,3.5,2.9,6.4,6.4,6.4h0c3.5,0,6.4-2.9,6.4-6.4v-0.5v-7
		C15.3,3.8,13.1,1.6,10.4,1.6z"/>
	<path fill="#2E3744" d="M8.9,20.6c-3.6,0-6.6-2.9-6.6-6.6V6.5c0-2.8,2.3-5.1,5.1-5.1h2.9c2.8,0,5.1,2.3,5.1,5.1V14
		C15.5,17.7,12.5,20.6,8.9,20.6z M7.5,1.7c-2.6,0-4.8,2.1-4.8,4.8V14c0,3.4,2.8,6.2,6.2,6.2s6.2-2.8,6.2-6.2V6.5
		c0-2.6-2.1-4.8-4.8-4.8H7.5z"/>
</g>
<g>
	<path fill="#676F75" d="M12.2,4.8c0-1.8,0-2.9,0-2.9c-0.6-0.2-1.2-0.4-1.9-0.4H7.5c-2.7,0-5,2.2-5,5v0.4h7.2
		C9.8,6.9,12.2,6.6,12.2,4.8z"/>
	<path fill="#2E3744" d="M9.8,7.1H2.3V6.5c0-2.8,2.3-5.1,5.1-5.1h2.9c0.7,0,1.3,0.1,1.9,0.4l0.1,0v3C12.4,6.7,9.8,7.1,9.8,7.1
		L9.8,7.1z M2.7,6.7h7.1c0.2,0,2.3-0.3,2.3-1.9V2c-0.5-0.2-1.1-0.3-1.7-0.3H7.5c-2.6,0-4.8,2.1-4.8,4.8V6.7z"/>
</g>
<g>
	<path fill="#676F75" d="M12.2,1.9v2.9c0.3,2.3,3.1,2.1,3.1,2.1V6.5C15.3,4.4,14,2.7,12.2,1.9z"/>
	<path fill="#2E3744" d="M15.2,7.1c-0.5,0-2.9-0.1-3.2-2.3l0,0V1.7l0.2,0.1c2,0.8,3.2,2.7,3.2,4.8v0.5l-0.2,0
		C15.3,7.1,15.3,7.1,15.2,7.1z M12.4,4.8c0.1,0.9,0.6,1.4,1.5,1.7c0.5,0.2,1,0.2,1.2,0.2V6.5c0-1.9-1.1-3.5-2.8-4.3V4.8z"/>
</g>
<g>
	<path fill="#676F75" d="M6.7,8.7h-2c-0.3,0-0.5-0.2-0.5-0.5v0c0-0.3,0.2-0.5,0.5-0.5h2c0.3,0,0.5,0.2,0.5,0.5v0
		C7.2,8.5,7,8.7,6.7,8.7z"/>
	<path fill="#2E3744" d="M6.7,8.8h-2C4.3,8.8,4,8.6,4,8.2c0-0.4,0.3-0.7,0.7-0.7h2c0.4,0,0.7,0.3,0.7,0.7C7.4,8.6,7.1,8.8,6.7,8.8z
		 M4.7,7.9C4.5,7.9,4.4,8,4.4,8.2c0,0.2,0.1,0.3,0.3,0.3h2C6.9,8.5,7,8.4,7,8.2C7,8,6.9,7.9,6.7,7.9H4.7z"/>
</g>
<g>
	<path fill="#676F75" d="M12.9,8.7h-2c-0.3,0-0.5-0.2-0.5-0.5v0c0-0.3,0.2-0.5,0.5-0.5h2c0.3,0,0.5,0.2,0.5,0.5v0
		C13.4,8.5,13.2,8.7,12.9,8.7z"/>
	<path fill="#2E3744" d="M12.9,8.8h-2c-0.4,0-0.7-0.3-0.7-0.7c0-0.4,0.3-0.7,0.7-0.7h2c0.4,0,0.7,0.3,0.7,0.7
		C13.6,8.6,13.3,8.8,12.9,8.8z M10.9,7.9c-0.2,0-0.3,0.1-0.3,0.3c0,0.2,0.1,0.3,0.3,0.3h2c0.2,0,0.3-0.1,0.3-0.3
		c0-0.2-0.1-0.3-0.3-0.3H10.9z"/>
</g>
<g>
	<line fill="#676F75" x1="5.6" y1="9.9" x2="5.6" y2="11.2"/>
	<path fill="#2E3744" d="M5.6,11.4c-0.1,0-0.2-0.1-0.2-0.2V9.9c0-0.1,0.1-0.2,0.2-0.2s0.2,0.1,0.2,0.2v1.2
		C5.9,11.3,5.8,11.4,5.6,11.4z"/>
</g>
<g>
	<line fill="#676F75" x1="12.1" y1="9.9" x2="12.1" y2="11.2"/>
	<path fill="#2E3744" d="M12.1,11.4c-0.1,0-0.2-0.1-0.2-0.2V9.9c0-0.1,0.1-0.2,0.2-0.2c0.1,0,0.2,0.1,0.2,0.2v1.2
		C12.3,11.3,12.2,11.4,12.1,11.4z"/>
</g>
<g>
	<path fill="#2E3744" d="M8.9,14.7c-0.3,0-0.5-0.1-0.7-0.3c-0.3-0.3-0.3-0.7-0.3-0.8c0-0.1,0.1-0.2,0.2-0.2c0.1,0,0.2,0.1,0.2,0.2
		c0,0,0,0.3,0.2,0.4c0.1,0.1,0.2,0.1,0.4,0.1c0.5,0,0.6-0.5,0.6-0.6c0-0.1,0.1-0.2,0.2-0.2c0.1,0,0.2,0.1,0.2,0.2
		C9.9,14.1,9.7,14.7,8.9,14.7z"/>
</g>
<g>
	<path fill="#2E3744" d="M8.6,16.1c-0.8,0-1.3-0.1-1.5-0.4c-0.1-0.1-0.2-0.3-0.2-0.4c0-0.1,0.1-0.2,0.2-0.2c0.1,0,0.2,0.1,0.2,0.2
		c0,0,0.2,0.4,1.6,0.3c1.3-0.1,1.5-0.3,1.6-0.3c0-0.1,0.1-0.2,0.2-0.2c0.1,0,0.2,0.1,0.3,0.2c0,0,0,0.2-0.1,0.3
		c-0.2,0.3-0.9,0.4-1.9,0.5C8.8,16.1,8.7,16.1,8.6,16.1z M10.5,15.4C10.5,15.4,10.5,15.4,10.5,15.4C10.5,15.4,10.5,15.4,10.5,15.4z
		 M10.5,15.4L10.5,15.4L10.5,15.4z M10.5,15.4L10.5,15.4L10.5,15.4z M7.3,15.4C7.3,15.4,7.3,15.4,7.3,15.4
		C7.3,15.4,7.3,15.4,7.3,15.4z M7.3,15.4C7.3,15.4,7.3,15.4,7.3,15.4C7.3,15.4,7.3,15.4,7.3,15.4z M7.3,15.4
		C7.3,15.4,7.3,15.4,7.3,15.4C7.3,15.4,7.3,15.4,7.3,15.4z"/>
</g>
<g>
	<path fill="#E8E8EB" d="M6,13.2H4.7c-0.4,0-0.7-0.3-0.7-0.7v0c0-0.4,0.3-0.7,0.7-0.7H6c0.4,0,0.7,0.3,0.7,0.7v0
		C6.6,12.9,6.3,13.2,6,13.2z"/>
</g>
<g>
	<path fill="#E8E8EB" d="M13.4,13.2h-1.3c-0.4,0-0.7-0.3-0.7-0.7v0c0-0.4,0.3-0.7,0.7-0.7h1.3c0.4,0,0.7,0.3,0.7,0.7v0
		C14.1,12.9,13.8,13.2,13.4,13.2z"/>
</g>
<g>
	<path fill="#676F75" d="M2.5,9c0,0,1.2,0.5,1.2-2.1H2.5V9z"/>
	<path fill="#2E3744" d="M2.7,9.2c-0.2,0-0.3,0-0.3-0.1l-0.1,0V6.7h1.5v0.2c0,1.1-0.2,1.9-0.7,2.2C3,9.2,2.9,9.2,2.7,9.2z M2.7,8.8
		c0.1,0,0.2,0,0.3-0.1c0.2-0.1,0.5-0.5,0.5-1.7H2.7V8.8z"/>
</g>
<g>
	<path fill="#676F75" d="M15.3,9c0,0-1.2,0.5-1.2-2.1h1.2V9z"/>
	<path fill="#2E3744" d="M15,9.2c-0.1,0-0.3,0-0.4-0.1c-0.4-0.3-0.7-1-0.7-2.2V6.7h1.5v2.4l-0.1,0C15.3,9.1,15.2,9.2,15,9.2z
		 M14.3,7.1c0,1.2,0.3,1.6,0.5,1.7c0.1,0.1,0.2,0.1,0.3,0.1V7.1H14.3z"/>
</g>
<g>
	<path fill="#FFFFFF" d="M3.8,4.6c0,0-0.1,0-0.1,0C3.6,4.5,3.5,4.4,3.6,4.3c0.6-1,2-2.3,4.5-2.4c0.1,0,0.2,0.1,0.2,0.2
		c0,0.1-0.1,0.2-0.2,0.2C6.3,2.4,4.9,3.1,4,4.5C4,4.6,3.9,4.6,3.8,4.6z"/>
</g>
<g>
	<path fill="#FFFFFF" d="M3.1,6.6C3.1,6.6,3.1,6.6,3.1,6.6c-0.1,0-0.2-0.1-0.2-0.3c0,0,0-0.4,0.2-0.9c0-0.1,0.2-0.2,0.3-0.1
		c0.1,0,0.2,0.2,0.1,0.3C3.4,6.1,3.3,6.4,3.3,6.4C3.3,6.5,3.2,6.6,3.1,6.6z"/>
</g>
<g>
	<path fill="#FFFFFF" d="M14.8,6.5C14.8,6.5,14.8,6.5,14.8,6.5C13,6.4,12.5,5,12.5,4.3c0-0.1,0.1-0.2,0.2-0.2c0.1,0,0.2,0.1,0.2,0.2
		l0,0c0,0.1,0.1,1.6,1.9,1.8c0.1,0,0.2,0.1,0.2,0.3C15,6.4,14.9,6.5,14.8,6.5z"/>
</g>
</svg>
