<svg xmlns="http://www.w3.org/2000/svg" width="24" height="24" viewBox="0 0 24 24">
    <g fill="none" fill-rule="evenodd">
        <path d="M0 0h24v24H0z"/>
        <g stroke="#647177" stroke-linecap="round" stroke-linejoin="round">
            <path d="M20.233 11H3.767C2.775 11 2 11.83 2 12.772V23h20V12.772C22 11.83 21.224 11 20.233 11zM12.206 3.459s-1.17.15-.963-.8c.207-.95.983-.98.757-1.682-.226-.701 1.77 2.295.206 2.482M7.706 3.459s-1.17.15-.963-.8c.207-.95.983-.98.757-1.682-.226-.701 1.77 2.295.206 2.482zM16.71 3.459s-1.169.15-.962-.8c.206-.95.983-.98.756-1.682-.226-.701 1.771 2.295.207 2.482zM1 23h22"/>
            <path d="M2.5 15.95s1.333 2.726 2.716 0c1.383-2.726 2.726 0 2.726 0s1.333 2.726 2.716 0c1.383-2.726 2.726 0 2.726 0M13.384 15.95s1.333 2.726 2.716 0c1.384-2.726 2.727 0 2.727 0s1.333 2.726 2.716 0M7.514 5.695v4.8M12.014 5.695v4.8M16.514 5.695v4.8"/>
        </g>
    </g>
</svg>
