<?xml version="1.0" encoding="utf-8"?>
<!-- Generator: Adobe Illustrator 23.0.2, SVG Export Plug-In . SVG Version: 6.00 Build 0)  -->
<svg version="1.1" id="Capa_1" xmlns="http://www.w3.org/2000/svg" xmlns:xlink="http://www.w3.org/1999/xlink" x="0px" y="0px"
	 viewBox="0 0 16 16" style="enable-background:new 0 0 16 16;" xml:space="preserve">
<style type="text/css">
	.st0{fill:#647177;}
</style>
<g>
	<path class="st0" d="M14.5,9.5c0.7,0,1.2-0.6,1.2-1.2V3.2c0-0.9-0.7-1.6-1.6-1.6h-0.3l0-0.1c-0.2-0.4-0.6-0.7-1.1-0.7h-1.5
		c-1.3,0-2.4,0.9-2.8,2.1l0.3-1.1c0-0.1,0-0.3-0.1-0.4S8.4,1.2,8.3,1.2c-0.2,0-0.3,0-0.4,0.1C7.5,1.6,7,1.7,6.6,1.6L3.7,0.9
		c-0.4-0.1-0.8,0-1.1,0.3L1.9,1.9H1.7c-0.6,0-1.1,0.5-1.1,1.1c0,0,0,1.1,0,1.5c0,0.2,0.1,0.5,0.2,1C0.7,5.7,0.6,5.9,0.6,6.1v0.3
		c0,0.5,0.4,0.8,0.8,0.9C1.6,8.2,2.2,9,3,9.4v0.4H2.6c-0.1,0-0.3,0-0.4,0.1C2.1,9.7,1.9,9.5,1.6,9.5H1.1c-0.4,0-0.8,0.4-0.8,0.8v1.2
		c0,0.2,0.1,0.4,0.2,0.6c0.1,0.1,0.1,0.1,0.2,0.1v2.4C0.7,14.8,0.8,15,1,15h6.6c0.1,0,0.2-0.1,0.2-0.2v-2.6h1.8v2.6
		c0,0.1,0.1,0.2,0.2,0.2h5.5c0.1,0,0.2-0.1,0.2-0.2v-3c0-1-0.8-1.9-1.9-1.9h-0.4V9.5H14.5z M8.8,7.1C8.9,7.2,9,7.2,9.2,7.2
		C9.3,8,9.7,8.6,10.2,9H9.5C9.1,9,8.8,8.7,8.8,8.3V7.1z M14.6,5.7h0.2c0.2,0,0.4,0.2,0.4,0.4v0.3c0,0.2-0.2,0.4-0.4,0.4h-0.2
		c-0.1,0-0.2,0.1-0.2,0.2c0,0.7-0.3,1.3-0.9,1.7c-0.5,0.4-1.2,0.6-1.8,0.5C10.6,9,9.7,8.1,9.7,7c0-0.1-0.1-0.2-0.2-0.2H9.2
		C9,6.7,8.9,6.6,8.9,6.4V6.1c0-0.2,0.2-0.4,0.4-0.4h0.2c0.1,0,0.2-0.1,0.2-0.2V4.3c0.3,0,0.6,0.1,0.9,0.1c0,0,0,0,0,0
		c1.3,0,2.6-0.4,3.6-1.2c0.2,0.3,0.2,0.6,0.2,0.9v1.3C14.4,5.6,14.5,5.7,14.6,5.7z M11.3,9.6c0.1,0,0.2,0.1,0.3,0.1
		c0.2,0,0.3,0,0.5,0c0.2,0,0.5,0,0.7-0.1v0.8c0,0.2-0.4,0.6-0.7,0.8c-0.3-0.2-0.7-0.6-0.7-0.8V9.6z M14.5,9h-0.7
		c0.6-0.5,0.9-1.1,1-1.8c0.2,0,0.3-0.1,0.4-0.1v1.2C15.2,8.7,14.9,9,14.5,9z M11.2,1.3h1.5c0.3,0,0.5,0.2,0.6,0.4l0.1,0.2
		C13.5,2,13.6,2,13.7,2h0.5c0.6,0,1.1,0.5,1.1,1.1v2.2c-0.1-0.1-0.2-0.1-0.4-0.1V4.2c0-0.5-0.2-1-0.5-1.5c0-0.1-0.1-0.1-0.2-0.1
		c-0.1,0-0.1,0-0.2,0.1c-1,0.8-2.2,1.3-3.5,1.3c0,0,0,0,0,0c-0.4,0-0.7,0-1.1-0.1c-0.1,0-0.1,0-0.2,0C9.2,3.9,9.2,4,9.2,4
		c0,0,0,0.1,0,0.1v1.1C9,5.2,8.9,5.3,8.8,5.4V3.7C8.8,2.3,9.9,1.3,11.2,1.3z M8.3,3.1c0,0.2-0.1,0.4-0.1,0.6v4.6
		c0,0.7,0.6,1.2,1.2,1.2h1.3v0.3H6.3c-0.1,0-0.2,0-0.3,0H5.5V9.4c0.5-0.2,0.9-0.5,1.1-1C6.9,8.1,7,7.7,7.1,7.2
		c0.5,0,0.8-0.4,0.8-0.9V6.1c0-0.2-0.1-0.4-0.2-0.5L8.3,3.1z M1,3.1c0-0.4,0.3-0.6,0.6-0.6H2c0.1,0,0.1,0,0.2-0.1L3,1.5
		c0.2-0.2,0.4-0.2,0.6-0.2L6.5,2c0.6,0.1,1.2,0,1.7-0.4L7.3,5.3c-0.1,0-0.1,0-0.2,0V3.5c0-0.1,0-0.2-0.1-0.2c-0.1,0-0.1-0.1-0.2,0
		C6.5,3.3,6.3,3.4,6,3.4C3.6,3.9,2.7,3.4,2.7,3.4c-0.1-0.1-0.2-0.1-0.3,0c-0.1,0-0.1,0.1-0.1,0.2c0,0.5-0.1,0.7-0.7,0.7
		c-0.1,0-0.2,0.1-0.2,0.2v0.7c-0.1,0-0.1,0-0.2,0C1.1,4.9,1.1,4.6,1,4.5C1,4.2,1,3.4,1,3.1z M1.9,7c0-0.1-0.1-0.2-0.2-0.2H1.5
		c-0.2,0-0.4-0.2-0.4-0.4V6.1c0-0.2,0.2-0.4,0.4-0.4h0.2c0.1,0,0.2-0.1,0.2-0.2V4.7c0.5-0.1,0.8-0.3,0.9-0.8c0.5,0.2,1.5,0.3,3.3,0
		c0.2,0,0.3-0.1,0.5-0.1v1.7c0,0.1,0.1,0.2,0.2,0.2h0.2c0.2,0,0.4,0.2,0.4,0.4v0.3c0,0.2-0.2,0.4-0.4,0.4H6.8C6.7,6.7,6.6,6.8,6.6,7
		c0,0.4-0.2,0.8-0.4,1.2c-0.5,0.7-1.4,1.1-2.3,1C2.8,9,2,8.1,1.9,7z M3.8,9.7c0.1,0,0.3,0,0.4,0c0.3,0,0.5,0,0.7-0.1v0.8
		c0,0.4-0.3,0.7-0.7,0.7s-0.7-0.3-0.7-0.7v-0.3c0,0,0,0,0,0s0,0,0,0V9.6C3.6,9.6,3.7,9.6,3.8,9.7z M0.8,10.3c0-0.2,0.1-0.3,0.3-0.3
		h0.6c0.1,0,0.2,0.1,0.2,0.2v1.5c0,0.1-0.1,0.2-0.2,0.2H1.1c0,0,0,0,0,0c-0.1,0-0.2,0-0.2-0.1c-0.1-0.1-0.1-0.1-0.1-0.2V10.3z
		 M7.3,14.5h-1v-1.7c0-0.1-0.1-0.2-0.2-0.2s-0.2,0.1-0.2,0.2v1.7H2.4v-1.7c0-0.1-0.1-0.2-0.2-0.2s-0.2,0.1-0.2,0.2v1.7H1.2v-2.1h0.4
		c0.4,0,0.7-0.3,0.7-0.7v-1.4c0.1,0,0.2-0.1,0.3-0.1H3v0.1c0,0.7,0.5,1.2,1.2,1.2s1.2-0.5,1.2-1.2v-0.1h0.4c0,0,0.1,0,0.1,0h0.2
		c0.6,0.1,1.1,0.7,1.1,1.3V14.5z M13.7,10.3c0.8,0,1.4,0.6,1.4,1.4v2.8h-0.8v-1.7c0-0.1-0.1-0.2-0.2-0.2s-0.2,0.1-0.2,0.2v1.7h-3.7
		v-2.6c0-0.1-0.1-0.2-0.2-0.2h-2c0-0.5-0.2-1-0.6-1.3h3.6v0.1c0,0.7,0.9,1.2,1.1,1.3c0,0,0.1,0,0.1,0s0.1,0,0.1,0
		c0.2-0.1,1.1-0.6,1.1-1.3v-0.1H13.7z"/>
	<path class="st0" d="M13,6.2c0.1,0,0.2-0.1,0.2-0.2V5.6c0-0.1-0.1-0.2-0.2-0.2s-0.2,0.1-0.2,0.2V6C12.7,6.1,12.8,6.2,13,6.2z"/>
	<path class="st0" d="M13.3,6.9C13.2,6.9,13,6.9,13,7c-0.2,0.4-0.5,0.6-0.9,0.6c0,0,0,0,0,0c-0.4,0-0.8-0.2-0.9-0.6
		c-0.1-0.1-0.2-0.2-0.3-0.1c-0.1,0.1-0.2,0.2-0.1,0.3c0.2,0.6,0.8,1,1.4,1c0,0,0,0,0,0c0.6,0,1.2-0.4,1.4-0.9
		C13.5,7.1,13.4,7,13.3,6.9z"/>
	<path class="st0" d="M11,6.2c0.1,0,0.2-0.1,0.2-0.2V5.6c0-0.1-0.1-0.2-0.2-0.2s-0.2,0.1-0.2,0.2V6C10.8,6.1,10.9,6.2,11,6.2z"/>
	<path class="st0" d="M3.3,6.2c0.1,0,0.2-0.1,0.2-0.2V5.6c0-0.1-0.1-0.2-0.2-0.2S3,5.4,3,5.6V6C3,6.1,3.1,6.2,3.3,6.2z"/>
	<path class="st0" d="M5.4,6.2c0.1,0,0.2-0.1,0.2-0.2V5.6c0-0.1-0.1-0.2-0.2-0.2S5.1,5.4,5.1,5.6V6C5.1,6.1,5.3,6.2,5.4,6.2z"/>
	<path class="st0" d="M4.3,8.2c0.6,0,1.2-0.4,1.4-0.9c0.1-0.1,0-0.3-0.1-0.3C5.4,6.9,5.3,6.9,5.2,7C5,7.4,4.7,7.7,4.3,7.7
		c0,0,0,0,0,0C3.8,7.7,3.5,7.4,3.3,7C3.3,6.9,3.1,6.9,3,6.9C2.9,7,2.8,7.1,2.8,7.2C3.1,7.8,3.6,8.2,4.3,8.2C4.2,8.2,4.3,8.2,4.3,8.2
		z"/>
</g>
</svg>
