<?xml version="1.0" encoding="utf-8"?>
<!-- Generator: Adobe Illustrator 23.0.2, SVG Export Plug-In . SVG Version: 6.00 Build 0)  -->
<svg version="1.1" id="Capa_1" xmlns="http://www.w3.org/2000/svg" xmlns:xlink="http://www.w3.org/1999/xlink" x="0px" y="0px"
	 viewBox="0 0 64 64" style="enable-background:new 0 0 64 64;" xml:space="preserve">
<style type="text/css">
	.st0{fill:none;}
	.st1{fill-rule:evenodd;clip-rule:evenodd;fill:#EACEAC;}
	.st2{fill:none;stroke:#3F362B;stroke-linecap:round;stroke-linejoin:round;}
	.st3{fill-rule:evenodd;clip-rule:evenodd;fill:#DBADA9;}
	.st4{fill-rule:evenodd;clip-rule:evenodd;fill:#EFD9BF;}
	.st5{fill-rule:evenodd;clip-rule:evenodd;fill:#FFFFFF;}
	.st6{fill-rule:evenodd;clip-rule:evenodd;fill:#876B54;}
	.st7{fill:none;stroke:#FFFFFF;stroke-linecap:round;stroke-linejoin:round;}
</style>
<g>
	<path class="st0" d="M6.4,6.4h51.1v51.1H6.4V6.4z"/>
	<path class="st1" d="M17.5,39.9c0,1.7-1.4,3.1-3.1,3.1s-3.1-1.4-3.1-3.1s1.4-3.1,3.1-3.1S17.5,38.2,17.5,39.9"/>
	<path class="st2" d="M17.5,39.9c0,1.7-1.4,3.1-3.1,3.1s-3.1-1.4-3.1-3.1s1.4-3.1,3.1-3.1S17.5,38.2,17.5,39.9z"/>
	<path class="st1" d="M53,39.9c0,1.7-1.4,3.1-3.1,3.1c-1.7,0-3.1-1.4-3.1-3.1c0,0,0,0,0,0c0-1.7,1.4-3.1,3.1-3.1
		C51.6,36.8,53,38.2,53,39.9"/>
	<path class="st2" d="M53,39.9c0,1.7-1.4,3.1-3.1,3.1c-1.7,0-3.1-1.4-3.1-3.1c0,0,0,0,0,0c0-1.7,1.4-3.1,3.1-3.1
		C51.6,36.8,53,38.2,53,39.9z"/>
	<path class="st1" d="M32.2,12.8c-9.8,0-17.7,7.9-17.7,17.7v8.8c0,9.8,7.9,17.7,17.7,17.7c9.8,0,17.7-8,17.7-17.7v-8.8
		C49.9,20.7,41.9,12.8,32.2,12.8"/>
	<path class="st2" d="M32.2,12.8c-9.8,0-17.7,7.9-17.7,17.7v8.8c0,9.8,7.9,17.7,17.7,17.7c9.8,0,17.7-8,17.7-17.7v-8.8
		C49.9,20.7,41.9,12.8,32.2,12.8L32.2,12.8z"/>
	<path class="st3" d="M33.7,41.2c0,0.8-0.7,1.5-1.5,1.5s-1.5-0.7-1.5-1.5c0-0.8,0.7-1.5,1.5-1.5S33.7,40.3,33.7,41.2"/>
	<path class="st4" d="M23.8,43.5h-4c-1,0-1.7-0.8-1.7-1.7c0-1,0.8-1.7,1.7-1.7h4c1,0,1.7,0.8,1.7,1.7C25.5,42.7,24.7,43.5,23.8,43.5
		 M44.5,43.5h-4c-1,0-1.7-0.8-1.7-1.7c0-1,0.8-1.7,1.7-1.7l0,0h4c1,0,1.7,0.8,1.7,1.7C46.3,42.7,45.5,43.5,44.5,43.5"/>
	<path class="st2" d="M34,41.5c-0.5,1.1-1.7,1.6-2.8,1.1c-0.5-0.2-0.9-0.6-1.1-1.1"/>
	<path class="st5" d="M23.3,35.9v2.5"/>
	<path class="st2" d="M23.3,35.9v2.5"/>
	<path class="st5" d="M41.2,35.9v2.5"/>
	<path class="st2" d="M41.2,35.9v2.5 M27.7,46c0,0,4,2.1,8.9,0 M21.4,28.8H25 M39.2,28.8h3.6"/>
	<path class="st6" d="M46.7,20.2c-0.3-0.4-0.7-0.8-1-1.2c-3.9-5-1.9-8-1.9-8c-3.5-0.6-5.1,0.6-5.1,0.6c-1.2-2.5,0.1-4.5,0.1-4.5
		c-7.6,0.8-11.1,6-11.1,6c-0.3-2.3,0.6-3.6,0.6-3.6c-6.7,4.2-10.3,9.6-11.7,12.2c-0.3,0.5-0.5,1-0.7,1.5c-0.1,0.1-0.1,0.2-0.1,0.2
		c-1.6,3.8-1.3,7.1-1.3,7.1v2.7c0.8,0,1.4-0.6,1.5-1.4c0-0.7,0.1-1.3,0.1-1.8c0.5-6.5,7.1-10.6,13.1-8.3c0.2,0.1,0.4,0.2,0.6,0.3
		c1.5,0.7,3.3,0.7,4.8,0c0.3-0.1,0.5-0.2,0.8-0.3c6-2.2,12.4,2,12.9,8.3c0,0.6,0.1,1.2,0.1,1.9c0,0.8,0.7,1.4,1.5,1.4v-2.7
		C49.9,30.7,50.4,25.2,46.7,20.2"/>
	<path class="st2" d="M46.7,20.2c-0.3-0.4-0.7-0.8-1-1.2c-3.9-5-1.9-8-1.9-8c-3.5-0.6-5.1,0.6-5.1,0.6c-1.2-2.5,0.1-4.5,0.1-4.5
		c-7.6,0.8-11.1,6-11.1,6c-0.3-2.3,0.6-3.6,0.6-3.6c-6.7,4.2-10.3,9.6-11.7,12.2c-0.3,0.5-0.5,1-0.7,1.5c-0.1,0.1-0.1,0.2-0.1,0.2
		c-1.6,3.8-1.3,7.1-1.3,7.1v2.7c0.8,0,1.4-0.6,1.5-1.4c0-0.7,0.1-1.3,0.1-1.8c0.5-6.5,7.1-10.6,13.1-8.3c0.2,0.1,0.4,0.2,0.6,0.3
		c1.5,0.7,3.3,0.7,4.8,0c0.3-0.1,0.5-0.2,0.8-0.3c6-2.2,12.4,2,12.9,8.3c0,0.6,0.1,1.2,0.1,1.9c0,0.8,0.7,1.4,1.5,1.4v-2.7
		C49.9,30.7,50.4,25.2,46.7,20.2z"/>
	<path class="st7" d="M26.1,12.9c0,0-4.9,3.6-7.3,7.9 M36.2,8.9c0,0-4.8,1.5-7.8,5.3"/>
</g>
</svg>
