<?xml version="1.0" encoding="utf-8"?>
<!-- Generator: Adobe Illustrator 23.0.2, SVG Export Plug-In . SVG Version: 6.00 Build 0)  -->
<svg version="1.1" id="Capa_1" xmlns="http://www.w3.org/2000/svg" xmlns:xlink="http://www.w3.org/1999/xlink" x="0px" y="0px"
	 viewBox="0 0 64 64" style="enable-background:new 0 0 64 64;" xml:space="preserve">
<style type="text/css">
	.st0{fill:none;}
	.st1{fill-rule:evenodd;clip-rule:evenodd;fill:#D18450;}
	.st2{fill:none;stroke:#3F362B;stroke-linecap:round;stroke-linejoin:round;}
	.st3{fill:none;stroke:#FFFFFF;stroke-linecap:round;stroke-linejoin:round;}
	.st4{fill-rule:evenodd;clip-rule:evenodd;fill:#EACEAC;}
	.st5{fill-rule:evenodd;clip-rule:evenodd;fill:#ECB6AE;}
	.st6{fill-rule:evenodd;clip-rule:evenodd;fill:#C1753D;}
	.st7{fill-rule:evenodd;clip-rule:evenodd;fill:#FFFFFF;}
</style>
<g>
	<path class="st0" d="M7.6,7.6h48.7v48.7H7.6V7.6z"/>
	<path class="st1" d="M17.6,55.9l-2.9-4.8c-3.2-5.1-1.6-11.9,3.5-15l2.9,4.8C24.3,46,22.7,52.7,17.6,55.9"/>
	<path class="st2" d="M17.6,55.9l-2.9-4.8c-3.2-5.1-1.6-11.9,3.5-15l2.9,4.8C24.3,46,22.7,52.7,17.6,55.9L17.6,55.9z M18,38.3
		c0,0,3.7,4.3,3.3,8.5"/>
	<path class="st3" d="M17.3,38.4c0,0-2.6,2.1-3.1,7.4"/>
	<path class="st1" d="M45.9,55.9l2.9-4.8c3.2-5.1,1.6-11.9-3.5-15l-2.9,4.8C39.2,46,40.8,52.7,45.9,55.9"/>
	<path class="st2" d="M45.9,55.9l2.9-4.8c3.2-5.1,1.6-11.9-3.5-15l-2.9,4.8C39.2,46,40.8,52.7,45.9,55.9z"/>
	<path class="st3" d="M42.9,42.4c0,0-2.3,6.4,1.7,10.2"/>
	<path class="st2" d="M46.5,38.7c0,0,3.3,3.1,2.7,7.3"/>
	<path class="st4" d="M18.6,32.3c0,1.5-1.3,2.8-2.8,2.8S13,33.9,13,32.3c0,0,0,0,0,0c0-1.5,1.3-2.8,2.8-2.8
		C17.3,29.5,18.6,30.8,18.6,32.3"/>
	<path class="st2" d="M18.6,32.3c0,1.5-1.3,2.8-2.8,2.8S13,33.9,13,32.3c0,0,0,0,0,0c0-1.5,1.3-2.8,2.8-2.8
		C17.3,29.5,18.6,30.8,18.6,32.3z"/>
	<path class="st4" d="M50.2,32.3c0,1.5-1.3,2.8-2.8,2.8s-2.8-1.3-2.8-2.8c0,0,0,0,0,0c0-1.5,1.3-2.8,2.8-2.8
		C49,29.5,50.2,30.8,50.2,32.3"/>
	<path class="st2" d="M50.2,32.3c0,1.5-1.3,2.8-2.8,2.8s-2.8-1.3-2.8-2.8c0,0,0,0,0,0c0-1.5,1.3-2.8,2.8-2.8
		C49,29.5,50.2,30.8,50.2,32.3z"/>
	<path class="st4" d="M31.7,47.6c-8,0-15.8-7.1-15.8-15.8V24c0-8.7,7.1-15.8,15.8-15.8c8.7,0,15.8,7.1,15.8,15.8v7.8
		C47.5,40.5,39.5,47.6,31.7,47.6"/>
	<path class="st5" d="M32.9,33.9c0,0.7-0.5,1.3-1.2,1.3c-0.7,0-1.3-0.5-1.3-1.2c0,0,0-0.1,0-0.1c0-0.7,0.6-1.2,1.3-1.2
		C32.3,32.8,32.8,33.3,32.9,33.9 M32.9,39.3c0,0.7-0.5,1.3-1.2,1.3c-0.7,0-1.3-0.5-1.3-1.2c0,0,0-0.1,0-0.1c0-0.7,0.6-1.2,1.3-1.2
		C32.3,38.1,32.8,38.6,32.9,39.3 M23.2,36.3h-1.8c-0.7,0-1.2-0.6-1.2-1.2s0.6-1.2,1.2-1.2c0,0,0,0,0,0h1.8c0.7,0,1.2,0.6,1.2,1.2
		S23.9,36.2,23.2,36.3C23.2,36.3,23.2,36.3,23.2,36.3 M41.7,36.3H40c-0.7,0-1.2-0.6-1.2-1.2c0-0.7,0.6-1.2,1.2-1.2c0,0,0,0,0,0h1.8
		c0.7,0,1.2,0.6,1.2,1.2C43,35.7,42.4,36.2,41.7,36.3C41.7,36.3,41.7,36.3,41.7,36.3"/>
	<path class="st2" d="M31.7,47.6c-8,0-15.8-7.1-15.8-15.8V24c0-8.7,7.1-15.8,15.8-15.8c8.7,0,15.8,7.1,15.8,15.8v7.8
		C47.5,40.5,39.5,47.6,31.7,47.6L31.7,47.6z"/>
	<path class="st6" d="M39.4,15.8v0.1c0,4.4,3.6,8,8,8c0-2.8-0.8-5.6-2.2-8.1H39.4z"/>
	<path class="st2" d="M39.4,15.8v0.1c0,4.4,3.6,8,8,8c0-2.8-0.8-5.6-2.2-8.1H39.4z M41.7,26.7c0,0-2.2-1.8-4.3-0.3 M21.5,26.7
		c0,0,2.2-1.8,4.3-0.3"/>
	<path class="st7" d="M23.7,28.8V31"/>
	<path class="st2" d="M23.7,28.8V31"/>
	<path class="st7" d="M39.6,28.8V31"/>
	<path class="st2" d="M39.6,28.8V31 M28.7,38.6c0,0,2.9,1.8,5.7,0 M30.1,34.6c0.9,0.5,2,0.5,2.9,0l0,0"/>
	<path class="st6" d="M15.8,23.8c4.3,0,7.9-3.6,7.9-7.9v-5.5C19.1,13.1,15.9,18,15.8,23.8"/>
	<path class="st2" d="M15.8,23.8c4.3,0,7.9-3.6,7.9-7.9v-5.5C19.1,13.1,15.9,18,15.8,23.8z"/>
	<path class="st3" d="M17.2,22.2c0.4-3.6,2.2-6.9,5-9.2"/>
	<path class="st1" d="M21.1,12.2c2.8,7.3,10.6,11.6,18.4,9.8l7.7-1.8c-2-8.5-10.4-13.8-18.9-11.8C25.5,9,23.1,10.3,21.1,12.2"/>
	<path class="st2" d="M21.1,12.2c2.8,7.3,10.6,11.6,18.4,9.8l7.7-1.8c-2-8.5-10.4-13.8-18.9-11.8C25.5,9,23.1,10.3,21.1,12.2
		L21.1,12.2z"/>
	<path class="st3" d="M29,19.2c-2.8-1.5-5-3.9-6.3-6.7c1.7-1.4,3.7-2.3,5.8-2.8"/>
</g>
</svg>
