<?xml version="1.0" encoding="utf-8"?>
<!-- Generator: Adobe Illustrator 23.0.1, SVG Export Plug-In . SVG Version: 6.00 Build 0)  -->
<svg version="1.1" id="Capa_1" xmlns="http://www.w3.org/2000/svg" xmlns:xlink="http://www.w3.org/1999/xlink" x="0px" y="0px"
	 viewBox="0 0 11.4 11.4" style="enable-background:new 0 0 11.4 11.4;" xml:space="preserve">
<path class="st0" d="M6.4,5.7l4.6-4.6c0.2-0.2,0.2-0.5,0-0.7s-0.5-0.2-0.7,0L5.7,5L1.1,0.4c-0.2-0.2-0.5-0.2-0.7,0s-0.2,0.5,0,0.7
	L5,5.7l-4.6,4.6c-0.2,0.2-0.2,0.5,0,0.7c0.1,0.1,0.2,0.1,0.4,0.1s0.3,0,0.4-0.1l4.6-4.6l4.6,4.6c0.1,0.1,0.2,0.1,0.4,0.1
	s0.3,0,0.4-0.1c0.2-0.2,0.2-0.5,0-0.7L6.4,5.7z"/>
</svg>
