<?xml version="1.0" encoding="utf-8"?>
<!-- Generator: Adobe Illustrator 23.0.2, SVG Export Plug-In . SVG Version: 6.00 Build 0)  -->
<svg version="1.1" id="Capa_1" xmlns="http://www.w3.org/2000/svg" xmlns:xlink="http://www.w3.org/1999/xlink" x="0px" y="0px"
	 viewBox="0 0 24 24" style="enable-background:new 0 0 24 24;" xml:space="preserve">
<style type="text/css">
	.st0{fill:#647177;}
</style>
<g>
	<path class="st0" d="M7,12.9v-3C7.5,10,8,10.3,8.2,10.7c0.2,0.2,0.5,0.3,0.7,0.1c0.2-0.2,0.3-0.5,0.1-0.7C8.6,9.5,7.9,9,7,8.9V8.3
		C7,8,6.8,7.8,6.5,7.8S6,8,6,8.3v0.6c-1.4,0.2-2.4,1.2-2.4,2.4c0,1.4,1.4,2,2.4,2.3v3c-0.6-0.1-1.4-0.5-1.9-0.9
		c-0.2-0.2-0.5-0.1-0.7,0.1c-0.2,0.2-0.1,0.5,0.1,0.7c0.7,0.6,1.7,1,2.5,1.1v0.6c0,0.3,0.2,0.5,0.5,0.5S7,18.6,7,18.3v-0.6
		c1.4-0.2,2.4-1.2,2.4-2.4C9.5,13.9,8.2,13.3,7,12.9z M6,12.6c-1-0.4-1.4-0.8-1.4-1.3c0-0.7,0.6-1.2,1.4-1.4V12.6z M7,16.7V14
		c1.3,0.5,1.4,0.9,1.4,1.3C8.5,16,7.9,16.5,7,16.7z"/>
	<path class="st0" d="M16.5,11.9h-4c-0.3,0-0.5,0.2-0.5,0.5s0.2,0.5,0.5,0.5h4c0.3,0,0.5-0.2,0.5-0.5S16.8,11.9,16.5,11.9z"/>
	<path class="st0" d="M21.1,0H5.9C4.3,0,3,1.3,3,2.9C3,2.9,3,3,3,3H2.9c0,0,0,0,0,0c-0.8,0-1.5,0.3-2,0.8C0.3,4.4,0,5.1,0,5.9v15.3
		C0,22.7,1.3,24,2.9,24h15.3c1.6,0,2.9-1.3,2.9-2.9V21c0,0,0.1,0,0.1,0c1.6,0,2.9-1.3,2.9-2.9V2.9C24,1.3,22.7,0,21.1,0z M20,21.1
		c0,1-0.8,1.9-1.9,1.9H2.9c-1,0-1.9-0.8-1.9-1.9V5.9C1,4.8,1.8,4,2.9,4h0h15.3c1,0,1.9,0.8,1.9,1.9V21.1z M23,18.1
		c0,1-0.8,1.9-1.9,1.9c0,0-0.1,0-0.1,0V5.9C21,4.3,19.7,3,18.1,3H4c0,0,0-0.1,0-0.1C4,1.8,4.8,1,5.9,1h15.3c1,0,1.9,0.8,1.9,1.9
		V18.1z"/>
	<path class="st0" d="M16.5,8.9h-4c-0.3,0-0.5,0.2-0.5,0.5s0.2,0.5,0.5,0.5h4c0.3,0,0.5-0.2,0.5-0.5S16.8,8.9,16.5,8.9z"/>
	<path class="st0" d="M16.5,17.9h-4c-0.3,0-0.5,0.2-0.5,0.5s0.2,0.5,0.5,0.5h4c0.3,0,0.5-0.2,0.5-0.5S16.8,17.9,16.5,17.9z"/>
	<path class="st0" d="M16.5,14.9h-4c-0.3,0-0.5,0.2-0.5,0.5s0.2,0.5,0.5,0.5h4c0.3,0,0.5-0.2,0.5-0.5S16.8,14.9,16.5,14.9z"/>
</g>
</svg>
