<?xml version="1.0" encoding="utf-8"?>
<!-- Generator: Adobe Illustrator 23.0.2, SVG Export Plug-In . SVG Version: 6.00 Build 0)  -->
<svg version="1.1" id="Capa_1" xmlns="http://www.w3.org/2000/svg" xmlns:xlink="http://www.w3.org/1999/xlink" x="0px" y="0px"
	 viewBox="0 0 16 16" style="enable-background:new 0 0 16 16;" xml:space="preserve">
<style type="text/css">
	.st0{fill:#647177;}
</style>
<g>
	<path class="st0" d="M15.4,15h-0.3v-3.8h0.3c0.2,0,0.4-0.2,0.4-0.4s-0.2-0.4-0.4-0.4h-1.6V8.7h0.3c0.2,0,0.4-0.2,0.4-0.4
		s-0.2-0.4-0.4-0.4h-3.7c0.7-0.7,1.2-1.6,1.4-2.6c0.2-0.9,0-1.7-0.5-2.4C11,2.2,10.3,1.8,9.5,1.7c-0.4-0.1-0.8,0-1.2,0.2
		c0-0.4,0.1-0.8,0.2-1.1c0.1-0.2,0.1-0.4-0.1-0.5C8.3,0.1,8.1,0.2,8,0.3c-0.3,0.4-0.4,1-0.4,1.5C7.2,1.7,6.8,1.6,6.5,1.7
		C5.7,1.8,5,2.2,4.6,2.9C4.1,3.5,3.9,4.4,4.1,5.3c0.1,0.9,0.5,1.8,1.1,2.4c0.1,0.1,0.2,0.1,0.2,0.2H3.1c-0.9,0-1.6,0.8-1.6,1.7
		c0,0.4,0.2,0.8,0.4,1c-1,0.4-1.7,1.3-1.7,2.5c0,1.5,1.2,2.6,2.6,2.6h12.6c0.2,0,0.4-0.2,0.4-0.4S15.6,15,15.4,15z M4.8,5.2
		c-0.1-0.7,0-1.4,0.4-1.9C5.5,2.8,6,2.5,6.6,2.4c0.1,0,0.1,0,0.2,0c0.4,0,0.8,0.2,1,0.3c0.1,0.1,0.3,0.1,0.4,0
		c0.3-0.2,0.7-0.4,1.2-0.3c0.6,0.1,1.1,0.4,1.4,0.9c0.4,0.5,0.5,1.2,0.4,1.9c-0.3,1.4-1.4,2.9-2.5,2.8c-0.2,0-0.3-0.1-0.5-0.1
		c-0.1,0-0.2,0-0.3,0C7.7,7.8,7.5,7.9,7.3,7.9C6.6,8,6,7.5,5.7,7.2C5.2,6.7,4.9,5.9,4.8,5.2z M3.2,8.7h4c0,0,0,0,0,0c0,0,0,0,0,0h6
		v0.5h-1.6c-0.2,0-0.4,0.2-0.4,0.4s0.2,0.4,0.4,0.4h1.6v0.5h-10c-0.5,0-0.9-0.4-0.9-0.9C2.3,9.1,2.7,8.7,3.2,8.7z M0.9,13.1
		c0-1,0.8-1.9,1.9-1.9h11.6v0.5h-2.9c-0.2,0-0.4,0.2-0.4,0.4s0.2,0.4,0.4,0.4h2.9v0.5h-1.6c-0.2,0-0.4,0.2-0.4,0.4s0.2,0.4,0.4,0.4
		h1.6V15H2.8C1.8,15,0.9,14.2,0.9,13.1z"/>
	<path class="st0" d="M5.8,5.6c0.2,0,0.4-0.2,0.3-0.4C6.1,4,6.7,3.7,6.7,3.6C6.9,3.6,7,3.3,6.9,3.1C6.8,3,6.6,2.9,6.4,3
		c0,0-1.2,0.5-1,2.4C5.4,5.5,5.6,5.7,5.8,5.6C5.8,5.7,5.8,5.7,5.8,5.6z"/>
</g>
</svg>
