<?xml version="1.0" encoding="utf-8"?>
<!-- Generator: Adobe Illustrator 23.0.2, SVG Export Plug-In . SVG Version: 6.00 Build 0)  -->
<svg version="1.1" id="Capa_1" xmlns="http://www.w3.org/2000/svg" xmlns:xlink="http://www.w3.org/1999/xlink" x="0px" y="0px"
	 viewBox="0 0 24 24" style="enable-background:new 0 0 24 24;" xml:space="preserve">
<style type="text/css">
	.st0{fill:#647177;}
</style>
<g>
	<path class="st0" d="M12,13.9H4c-0.3,0-0.5,0.2-0.5,0.5s0.2,0.5,0.5,0.5h8c0.3,0,0.5-0.2,0.5-0.5S12.3,13.9,12,13.9z"/>
	<path class="st0" d="M12,16.9H4c-0.3,0-0.5,0.2-0.5,0.5s0.2,0.5,0.5,0.5h8c0.3,0,0.5-0.2,0.5-0.5S12.3,16.9,12,16.9z"/>
	<path class="st0" d="M12,10.9H4c-0.3,0-0.5,0.2-0.5,0.5s0.2,0.5,0.5,0.5h8c0.3,0,0.5-0.2,0.5-0.5S12.3,10.9,12,10.9z"/>
	<path class="st0" d="M4,8.9h5.6c0.3,0,0.5-0.2,0.5-0.5S9.8,7.9,9.5,7.9H4c-0.3,0-0.5,0.2-0.5,0.5S3.7,8.9,4,8.9z"/>
	<path class="st0" d="M17.5,21.1c-0.3,0-0.5,0.2-0.5,0.5v1c0,0.2-0.1,0.3-0.3,0.3H1.3c-0.2,0-0.3-0.1-0.3-0.3V1.2
		c0-0.2,0.1-0.3,0.3-0.3l11.7,0v3.5c0,0.3,0.2,0.5,0.5,0.5H17v3.4c0,0.3,0.2,0.5,0.5,0.5S18,8.7,18,8.4V4.4c0-0.4-0.2-0.7-0.4-0.9
		l-3.3-3.3c-0.2-0.2-0.4-0.4-0.8-0.4H1.2C0.5-0.1,0,0.5,0,1.2v21.4c0,0.7,0.6,1.3,1.3,1.3h15.4c0.7,0,1.3-0.6,1.3-1.3v-1
		C18,21.4,17.7,21.1,17.5,21.1z M14,1.4l2.5,2.5H14V1.4z"/>
	<path class="st0" d="M22.5,11.6l-0.1-0.1c-0.9-0.9-2.2-1.4-3.5-1.4s-2.6,0.5-3.5,1.4C14.5,12.4,14,13.7,14,15
		c0,1.3,0.5,2.6,1.4,3.5c0.9,0.9,2.1,1.5,3.5,1.5c0,0,0.1,0,0.1,0c1.3,0,2.5-0.5,3.4-1.4C24.4,16.7,24.4,13.5,22.5,11.6z M21.7,17.8
		C21,18.6,20,18.9,19,18.9c0,0,0,0-0.1,0c-1,0-2-0.4-2.8-1.2C15.4,17,15,16,15,15s0.4-2,1.2-2.8c0.7-0.7,1.7-1.1,2.8-1.1
		s2,0.4,2.8,1.1c0,0,0,0,0,0l0.1,0.1C23.3,13.8,23.3,16.3,21.7,17.8z"/>
	<path class="st0" d="M20.8,13.8L18.2,16l-0.7-0.7c-0.2-0.2-0.5-0.2-0.7,0c-0.2,0.2-0.2,0.5,0,0.7l1.1,1c0.1,0.1,0.2,0.1,0.3,0.1
		c0.1,0,0.2,0,0.3-0.1l2.9-2.5c0.2-0.2,0.2-0.5,0.1-0.7C21.3,13.6,21,13.6,20.8,13.8z"/>
</g>
</svg>
