<?xml version="1.0" encoding="utf-8"?>
<!-- Generator: Adobe Illustrator 23.0.1, SVG Export Plug-In . SVG Version: 6.00 Build 0)  -->
<svg version="1.1" id="Capa_1" xmlns="http://www.w3.org/2000/svg" xmlns:xlink="http://www.w3.org/1999/xlink" x="0px" y="0px"
	 viewBox="0 0 22.1 20" style="enable-background:new 0 0 22.1 20;" xml:space="preserve">
<g>
	<path d="M20.8,3.1l-2.6-2.6c-0.5-0.5-1.3-0.5-1.8,0l-9.8,9.8c0,0,0,0,0,0l0,0l0,0c-0.1,0.1-0.2,0.2-2,4.7l0,0.1
		c-0.2,0.5-0.1,1,0.3,1.4c0.2,0.2,0.6,0.4,0.9,0.4c0.2,0,0.3,0,0.5-0.1l0.2-0.1c0.2-0.1,0.4-0.2,0.6-0.2c0,0,0,0,0,0
		c2.5-1,3.4-1.4,3.8-1.6c0,0,0,0,0.1,0c0.1-0.1,0.2-0.1,0.2-0.1c0,0,0,0,0,0c0,0,0,0,0,0c0,0,0,0,0.1-0.1c0.8-0.8,9.6-9.6,9.7-9.7
		c0,0,0,0,0,0c0.2-0.2,0.4-0.6,0.4-0.9C21.2,3.7,21.1,3.4,20.8,3.1z M8.7,13.5C8.7,13.5,8.7,13.5,8.7,13.5
		C8.7,13.5,8.7,13.5,8.7,13.5l0.5,0.5c-0.5,0.2-1.2,0.5-2.3,0.9l-0.4-0.4c0.4-1.1,0.7-1.9,0.9-2.3L8.7,13.5z M10.5,13.1L10.3,13
		l8.2-8.2c0.3-0.3,0.3-0.8,0-1.1c-0.3-0.3-0.8-0.3-1.1,0l-8.2,8.2l-1.1-1.1l9.1-9.1L19.6,4C18.6,5,13.4,10.2,10.5,13.1z"/>
	<path d="M16.5,10c-0.4,0-0.8,0.3-0.8,0.8v7.2c0,0.3-0.1,0.4-0.1,0.4c0,0,0,0-0.1,0H3.3c-0.3,0-0.5-0.2-0.5-0.5V5.7
		c0-0.1,0-0.3,0.5-0.3h7.1c0.4,0,0.8-0.3,0.8-0.8s-0.3-0.8-0.8-0.8H3.4c-1.9,0-2,1.3-2,1.8v12.2c0,1.1,0.8,2,2,2h12.3
		c0.4,0,1.7-0.1,1.7-2v-7.2C17.3,10.3,16.9,10,16.5,10z"/>
</g>
</svg>
