<?xml version="1.0" encoding="utf-8"?>
<!-- Generator: Adobe Illustrator 23.0.1, SVG Export Plug-In . SVG Version: 6.00 Build 0)  -->
<svg version="1.1" id="Capa_1" xmlns="http://www.w3.org/2000/svg" xmlns:xlink="http://www.w3.org/1999/xlink" x="0px" y="0px"
	 viewBox="0 0 24 24" style="enable-background:new 0 0 24 24;" xml:space="preserve">
<g>
	<path class="st0" d="M23,19h-5c-0.2-1.4-1.5-2.5-3-2.5s-2.7,1.1-3,2.5H1c-0.3,0-0.5,0.2-0.5,0.5S0.7,20,1,20H12
		c0.2,1.4,1.5,2.5,3,2.5s2.7-1.1,3-2.5h5c0.3,0,0.5-0.2,0.5-0.5S23.3,19,23,19z M15,21.5c-1.1,0-2-0.9-2-2s0.9-2,2-2
		c1.1,0,2,0.9,2,2c0,0,0,0,0,0s0,0,0,0C17.1,20.6,16.2,21.5,15,21.5z"/>
	<path class="st0" d="M23,11.5H9.9C9.7,10.1,8.4,9,6.9,9s-2.7,1.1-3,2.5H1c-0.3,0-0.5,0.2-0.5,0.5s0.2,0.5,0.5,0.5h3
		c0.2,1.4,1.5,2.5,3,2.5s2.7-1.1,3-2.5H23c0.3,0,0.5-0.2,0.5-0.5S23.3,11.5,23,11.5z M6.9,14c-1.1,0-2-0.9-2-2c0-1.1,0.9-2,2-2
		s2,0.9,2,2C9,13.1,8.1,14,6.9,14z"/>
	<path class="st0" d="M1,5.1h15c0.2,1.4,1.5,2.5,3,2.5s2.7-1.1,3-2.5H23c0.3,0,0.5-0.2,0.5-0.5S23.3,4.1,23,4.1h-1.1
		c-0.2-1.4-1.5-2.5-3-2.5s-2.7,1.1-3,2.5H1c-0.3,0-0.5,0.2-0.5,0.5S0.7,5.1,1,5.1z M18.9,2.5c1.1,0,2,0.9,2,2s-0.9,2-2,2s-2-0.9-2-2
		S17.8,2.5,18.9,2.5z"/>
</g>
</svg>
