<?xml version="1.0" encoding="utf-8"?>
<!-- Generator: Adobe Illustrator 23.0.3, SVG Export Plug-In . SVG Version: 6.00 Build 0)  -->
<svg version="1.1" id="Capa_1" xmlns="http://www.w3.org/2000/svg" xmlns:xlink="http://www.w3.org/1999/xlink" x="0px" y="0px"
	 viewBox="0 0 24 24" style="enable-background:new 0 0 24 24;" xml:space="preserve">
<style type="text/css">
	.st0{fill:#C39201;}
</style>
<g>
	<path class="st0" d="M22.4,3.4h-1.5c-0.1,0-0.2,0-0.2,0h-4.9l-0.7-2.2c-0.1-0.4-0.5-0.7-0.9-0.7H9.8c-0.4,0-0.8,0.3-0.9,0.7
		L8.2,3.4H3.3c-0.1,0-0.2,0-0.2,0H1.6c-0.5,0-1,0.4-1,1s0.4,1,1,1h0.9l1.2,16.4c0.1,1,1,1.8,2,1.8h12.7c1,0,1.9-0.8,2-1.8l1.2-16.4
		h0.8c0.5,0,1-0.4,1-1S22.9,3.4,22.4,3.4z M10.5,2.4h2.9l0.3,1h-3.5L10.5,2.4z M18.4,21.6C18.4,21.6,18.4,21.7,18.4,21.6L5.7,21.7
		c0,0-0.1,0-0.1-0.1L4.4,5.3h4.5h6.2h4.5L18.4,21.6z"/>
	<path class="st0" d="M7.6,6.4c-0.5,0-0.9,0.5-0.9,1l0.8,12.4c0,0.5,0.5,0.9,1,0.9c0,0,0,0,0.1,0c0.5,0,0.9-0.5,0.9-1L8.6,7.3
		C8.5,6.7,8.1,6.3,7.6,6.4z"/>
	<path class="st0" d="M15.5,20.6C15.5,20.6,15.6,20.6,15.5,20.6c0.6,0,1-0.4,1-0.9l0.8-12.4c0-0.5-0.4-1-0.9-1c-0.5,0-1,0.4-1,0.9
		l-0.8,12.4C14.6,20.1,15,20.6,15.5,20.6z"/>
	<path class="st0" d="M12,6.4c-0.5,0-1,0.4-1,1v12.4c0,0.5,0.4,1,1,1s1-0.4,1-1V7.3C13,6.8,12.5,6.4,12,6.4z"/>
</g>
</svg>
