<svg xmlns="http://www.w3.org/2000/svg" width="24" height="24" viewBox="0 0 24 24">
    <g fill="none" fill-rule="evenodd">
        <path d="M0 0h24v24H0z"/>
        <g stroke="#647177" stroke-linecap="round" stroke-linejoin="round">
            <path d="M11.985.658C5.744.658.667 5.734.667 11.976c0 6.24 5.077 11.318 11.318 11.318 6.24 0 11.318-5.078 11.318-11.318 0-6.242-5.077-11.318-11.318-11.318zM11.522 18.582v-.362"/>
            <path d="M11.522 15.62v-2.197c0-.34.219-.642.545-.758 1.983-.704 3.635-1.776 3.635-3.6 0-1.989-1.835-3.6-4.098-3.6-1.524 0-2.853.73-3.56 1.815"/>
        </g>
    </g>
</svg>
