<?xml version="1.0" encoding="utf-8"?>
<!-- Generator: Adobe Illustrator 23.0.2, SVG Export Plug-In . SVG Version: 6.00 Build 0)  -->
<svg version="1.1" id="Capa_1" xmlns="http://www.w3.org/2000/svg" xmlns:xlink="http://www.w3.org/1999/xlink" x="0px" y="0px"
	 viewBox="0 0 24 24" enable-background="new 0 0 24 24" xml:space="preserve">
<path fill="#231F20" d="M22.2,3.6h-1.3l-0.4-2.1c-0.1-0.3-0.3-0.4-0.6-0.4L7,3.8C6,1.6,5.4,1.6,5.2,1.6H1.8C1,1.6,0.4,2.2,0.4,3
	v18.4c0,0.8,0.6,1.4,1.4,1.4h20.4c0.8,0,1.4-0.6,1.4-1.4V5C23.6,4.2,23,3.6,22.2,3.6z M22.2,4.5c0.2,0,0.4,0.2,0.4,0.4v2.4h-0.9
	l-0.6-2.9H22.2z M20.8,7.4H4.3L3.9,5.4l15.7-3.2L20.8,7.4z M1.8,2.6h3.4C5.3,2.7,5.7,3.3,6,4L3.2,4.5C3.1,4.5,3,4.6,2.9,4.7
	C2.9,4.8,2.8,5,2.9,5.1l0.5,2.3h-2V3C1.3,2.8,1.5,2.6,1.8,2.6z M22.2,21.9H1.8c-0.2,0-0.4-0.2-0.4-0.4V8.4H4h17.4c0,0,0,0,0,0h1.2
	v13.1C22.6,21.7,22.4,21.9,22.2,21.9z"/>
</svg>
