<?xml version="1.0" encoding="utf-8"?>
<!-- Generator: Adobe Illustrator 23.0.1, SVG Export Plug-In . SVG Version: 6.00 Build 0)  -->
<svg version="1.1" id="Capa_1" xmlns="http://www.w3.org/2000/svg" xmlns:xlink="http://www.w3.org/1999/xlink" x="0px" y="0px"
	 viewBox="0 0 24 24" style="enable-background:new 0 0 24 24;" xml:space="preserve">
<g>
	<path class="st0" d="M16.3,16.8C16.3,16.8,16.3,16.8,16.3,16.8c-4.4-1.7-5.2-2.5-5.4-2.7v-0.5c0.5-0.6,0.9-1.3,1.1-2.1
		c0.3-0.3,0.5-0.7,0.6-1.1c0.1-0.4,0-0.9-0.3-1.3V7.4c0-2.4-1.4-3.7-3.9-3.7C6,3.7,4.6,5,4.6,7.4V9c-0.2,0.4-0.3,0.8-0.3,1.2
		c0,0.4,0.2,0.8,0.6,1.2C5.2,12.3,5.5,13,6,13.6v0.5c-0.1,0.2-1,1-5.4,2.7C0.3,17,0,17.4,0,17.8v2.1C0,20.5,0.5,21,1.1,21h14.8
		c0.6,0,1.1-0.5,1.1-1.1v-2.1C17,17.4,16.7,17,16.3,16.8z M16,17.8v2.1c0,0,0,0.1-0.1,0.1H1.1c0,0-0.1,0-0.1-0.1l0-2.1
		C6,15.8,6.8,15,7,14.4c0,0,0-0.1,0-0.1v-0.8c0-0.1,0-0.3-0.1-0.3c-0.5-0.5-0.9-1.2-1.1-2c0-0.1-0.1-0.2-0.2-0.3
		c-0.2-0.1-0.3-0.3-0.3-0.6c0-0.2,0-0.5,0.2-0.6c0.1-0.1,0.1-0.2,0.1-0.3V7.4c0-1.8,1-2.7,2.9-2.7c1.9,0,2.9,0.9,2.9,2.7v1.8
		c0,0.1,0,0.2,0.1,0.3c0.1,0.2,0.2,0.4,0.2,0.7c0,0.2-0.2,0.4-0.3,0.6c-0.1,0.1-0.2,0.2-0.2,0.3c-0.2,0.8-0.6,1.5-1.1,2
		C10,13.1,10,13.3,10,13.4v0.8c0,0,0,0.1,0,0.1C10.2,15,11,15.8,16,17.8l0.1-0.5L16,17.8z"/>
	<path class="st0" d="M23.4,17.6c-3.3-1.3-4-1.8-4.1-2v-0.3c0.4-0.4,0.7-1,0.9-1.6c0.5-0.5,0.7-1.3,0.3-1.9v-1.3c0-1.9-1.2-3-3.2-3
		c-2,0-3.2,1.1-3.2,3v1.3c-0.4,0.6-0.3,1.4,0.3,1.9c0.2,0.7,0.6,1.3,1,1.8c0.2,0.2,0.5,0.2,0.7,0c0.2-0.2,0.2-0.5,0-0.7
		c-0.4-0.4-0.6-0.9-0.8-1.5c0-0.1-0.1-0.2-0.2-0.3c-0.2-0.2-0.3-0.5-0.1-0.7c0.1-0.1,0.1-0.2,0.1-0.3v-1.4c0-1.3,0.8-2,2.2-2
		c1.4,0,2.2,0.7,2.2,2v1.4c0,0.1,0.1,0.3,0.1,0.3c0.2,0.2,0.1,0.6-0.1,0.7c-0.1,0.1-0.2,0.2-0.2,0.3c-0.2,0.6-0.5,1.1-0.8,1.5
		c-0.1,0.1-0.1,0.2-0.1,0.3v0.6c0,0,0,0.1,0,0.1c0.1,0.5,0.6,1.1,4.7,2.6l0.1,1.5h-4.6c-0.3,0-0.5,0.2-0.5,0.5s0.2,0.5,0.5,0.5h4.6
		c0.5,0,0.9-0.4,0.9-1v-1.6C24,18.1,23.8,17.7,23.4,17.6z"/>
</g>
</svg>
