<?xml version="1.0" encoding="utf-8"?>
<!-- Generator: Adobe Illustrator 23.0.2, SVG Export Plug-In . SVG Version: 6.00 Build 0)  -->
<svg version="1.1" id="Capa_1" xmlns="http://www.w3.org/2000/svg" xmlns:xlink="http://www.w3.org/1999/xlink" x="0px" y="0px"
	 viewBox="0 0 16 16" enable-background="new 0 0 16 16" xml:space="preserve">
<g>
	<path fill="#647177" d="M15.1,11.2C15.2,11.2,15.2,11.2,15.1,11.2c0-0.1,0-0.1,0-0.1c0,0,0,0,0-0.1c0,0,0,0,0-0.1c0,0,0,0,0,0
		c0,0,0,0,0,0c0,0,0,0,0,0c-0.7-0.8-2.4-2.9-2.2-6.3c0.1-2.3-1.2-3.5-2.4-4c-1.5-0.8-3.4-0.8-4.9,0c-1.1,0.6-2.4,1.7-2.4,4
		C3.4,8,1.7,10.1,1,10.9c0,0,0,0,0,0c0,0,0,0,0,0c0,0,0,0,0,0c0,0,0,0,0,0.1c0,0,0,0,0,0.1c0,0,0,0,0,0.1c0,0,0,0,0,0.1
		c0,0,0,0,0,0.1c0,0,0,0,0,0.1c0,0,0,0,0,0c0,0,0,0,0,0c0,0,0,0,0,0c1.9,1.5,4.5,2.3,7,2.3s5.1-0.8,7-2.3c0,0,0,0,0,0c0,0,0,0,0,0
		c0,0,0,0,0,0C15.1,11.3,15.1,11.3,15.1,11.2C15.1,11.3,15.1,11.2,15.1,11.2z M1.7,11.1c0.9-1,2.3-3.2,2.2-6.5
		C3.8,3,4.5,1.9,5.9,1.2c1.3-0.7,2.9-0.7,4.3,0c1.4,0.7,2,1.9,2,3.4c-0.1,3.3,1.3,5.5,2.2,6.5C10.8,13.7,5.2,13.7,1.7,11.1z"/>
	<path fill="#647177" d="M9.6,14.1c-0.2,0-0.3,0.2-0.3,0.3c0,0.5-0.5,0.9-1.2,0.9c-0.6,0-1.2-0.4-1.2-0.9c0-0.2-0.2-0.3-0.3-0.3
		c-0.2,0-0.3,0.2-0.3,0.3C6.2,15.3,7,16,8,16c1,0,1.9-0.7,1.9-1.5C9.9,14.3,9.7,14.1,9.6,14.1z"/>
</g>
</svg>
