<?xml version="1.0" encoding="utf-8"?>
<!-- Generator: Adobe Illustrator 23.0.2, SVG Export Plug-In . SVG Version: 6.00 Build 0)  -->
<svg version="1.1" id="Capa_1" xmlns="http://www.w3.org/2000/svg" xmlns:xlink="http://www.w3.org/1999/xlink" x="0px" y="0px"
	 viewBox="0 0 24 24" style="enable-background:new 0 0 24 24;" xml:space="preserve">
<style type="text/css">
	.st0{fill:#231F20;}
</style>
<path class="st0" d="M24,16.7C24,16.7,24,16.7,24,16.7c0-0.1,0-0.2-0.1-0.3c0,0,0,0,0,0c0,0-0.1-0.1-0.1-0.1c0,0,0,0,0,0
	c0,0,0,0,0,0l-3.5-1.9v-4.1c0-0.1,0-0.2-0.1-0.3c0,0,0,0,0,0c0-0.1-0.1-0.1-0.1-0.1c0,0,0,0,0,0c0,0,0,0,0,0l-3.6-1.9l0-4.1
	c0,0,0,0,0,0c0,0,0,0,0,0v0c0,0,0,0,0,0c0,0,0,0,0,0c0,0,0,0,0,0c0,0,0,0,0,0v0c0,0,0,0,0,0c0,0,0,0,0,0c0,0,0,0,0,0c0,0,0,0,0,0
	c0,0,0,0,0,0c0,0,0,0,0,0s0,0,0,0c0,0,0,0,0,0c0-0.1,0-0.1,0-0.2c0,0,0,0,0,0c0,0,0,0,0,0c0,0,0,0,0,0c0,0,0,0,0,0v0c0,0,0,0,0,0
	c0,0,0,0,0,0c0,0,0,0,0,0c0,0,0,0,0,0v0c0,0,0,0,0,0s0,0,0,0c0,0,0,0,0,0v0c0,0,0,0,0,0c0,0,0,0,0,0c0,0,0,0,0,0v0c0,0,0,0,0,0
	c0,0,0,0,0,0l0,0c0,0,0,0,0,0c0,0,0,0,0,0c0,0,0,0,0,0c0,0,0,0,0,0c0,0,0,0,0,0c0,0,0,0,0,0s0,0,0,0c0,0,0,0,0,0v0c0,0,0,0,0,0
	c0,0,0,0,0,0c0,0,0,0,0,0c0,0,0,0,0,0c0,0,0,0,0,0c0,0,0,0,0,0v0c0,0,0,0,0,0c0,0,0,0,0,0c0,0,0,0,0,0v0c0,0,0,0,0,0c0,0,0,0,0,0
	c0,0,0,0,0,0l0,0c0,0,0,0,0,0c0,0,0,0,0,0c0,0,0,0,0,0v0c0,0,0,0,0,0c0,0,0,0,0,0c0,0,0,0,0,0v0c0,0,0,0,0,0c0,0,0,0,0,0
	c0,0,0,0,0,0v0c0,0,0,0,0,0c0,0,0,0,0,0v0c0,0,0,0,0,0c0,0,0,0,0,0c0,0,0,0,0,0c0,0,0,0,0,0c0,0,0,0,0,0c0,0,0,0,0,0c0,0,0,0,0,0
	c0,0,0,0,0,0c0,0,0,0,0,0v0c0,0,0,0,0,0c0,0,0,0,0,0c0,0,0,0,0,0c0,0,0,0,0,0c0,0,0,0,0,0v0c0,0,0,0,0,0c0,0,0,0,0,0c0,0,0,0,0,0
	c0,0,0,0,0,0c0,0,0,0,0,0c0,0,0,0,0,0v0c0,0-0.1-0.1-0.1-0.1c0,0,0,0,0,0c0,0,0,0,0,0c0,0,0,0,0,0l-3.8-2.1c-0.1-0.1-0.3-0.1-0.5,0
	L8,3.3c0,0,0,0,0,0c0,0,0,0,0,0c0,0,0,0,0,0c0,0,0,0,0,0c0,0-0.1,0-0.1,0.1c0,0,0,0,0,0s0,0,0,0c0,0,0,0,0,0c0,0,0,0,0,0
	c0,0,0,0,0,0c0,0,0,0,0,0c0,0,0,0,0,0s0,0,0,0c0,0,0,0,0,0c0,0,0,0,0,0c0,0,0,0,0,0c0,0,0,0,0,0c0,0,0,0,0,0c0,0,0,0,0,0
	c0,0,0,0,0,0v0c0,0,0,0,0,0v0c0,0,0,0,0,0c0,0,0,0,0,0c0,0,0,0.1-0.1,0.1c0,0,0,0,0,0s0,0,0,0c0,0,0,0,0,0c0,0,0,0,0,0c0,0,0,0,0,0
	c0,0,0,0,0,0c0,0,0,0,0,0c0,0,0,0,0,0c0,0,0,0,0,0c0,0,0,0,0,0c0,0,0,0,0,0v0c0,0,0,0,0,0v0c0,0,0,0,0,0c0,0,0,0,0,0c0,0,0,0,0,0
	c0,0,0,0,0,0c0,0.1,0,0.1,0,0.2c0,0,0,0,0,0c0,0,0,0,0,0v0c0,0,0,0,0,0c0,0,0,0,0,0c0,0,0,0,0,0c0,0,0,0,0,0c0,0,0,0,0,0
	c0,0,0,0,0,0v0c0,0,0,0,0,0v0c0,0,0,0,0,0c0,0,0,0,0,0c0,0,0,0,0,0c0,0,0,0,0,0c0,0,0,0,0,0c0,0,0,0,0,0c0,0,0,0,0,0c0,0,0,0,0,0
	c0,0,0,0,0,0c0,0,0,0,0,0v0c0,0,0,0,0,0s0,0,0,0c0,0,0,0,0,0c0,0,0,0,0,0v4.1L4.2,9.8c0,0,0,0,0,0c0,0,0,0,0,0c0,0-0.1,0.1-0.1,0.1
	c0,0,0,0-0.1,0.1c0,0.1,0,0.1-0.1,0.2c0,0,0,0,0,0.1c0,0,0,0,0,0v4.1l-3.6,1.9c0,0,0,0,0,0c0,0,0,0,0,0c-0.1,0-0.1,0.1-0.1,0.1
	c0,0,0,0,0,0c0,0.1-0.1,0.2-0.1,0.3v4.4c0,0.2,0.1,0.4,0.3,0.4l3.8,2.1c0.1,0,0.2,0.1,0.2,0.1c0.1,0,0.2,0,0.2-0.1l3.6-1.9l3.6,1.9
	c0.1,0,0.2,0.1,0.2,0.1c0.1,0,0.2,0,0.3-0.1l3.6-1.9l3.6,1.9c0.1,0,0.2,0.1,0.2,0.1c0.1,0,0.2,0,0.3-0.1c0,0,0,0,0,0l3.8-2
	c0.2-0.1,0.3-0.3,0.3-0.4V16.7C24,16.7,24,16.7,24,16.7z M8.3,8.7l2.8,1.5l-2.8,1.5l-2.8-1.5L8.3,8.7z M15.4,15.9l-2.8-1.5V11
	l2.8,1.5L15.4,15.9z M8.7,12.6l2.8-1.5v3.3l-2.8,1.5V12.6z M12.1,15.2l2.7,1.5L12,18.2l-2.8-1.5L12.1,15.2z M19.2,14.3l-2.8,1.5
	v-3.3l2.8-1.5V14.3z M15.9,11.7l-2.8-1.5l2.8-1.5l2.7,1.5L15.9,11.7z M7.7,12.6v3.3l-2.8-1.5V11L7.7,12.6z M4.4,15.2l2.7,1.5
	l-2.8,1.5l-2.8-1.5L4.4,15.2z M19.7,18.2l-2.8-1.5l2.8-1.5l2.7,1.5L19.7,18.2z M15.4,7.8l-2.8,1.5V6.1l2.8-1.5L15.4,7.8z M12.1,2.2
	l2.7,1.5l-2.8,1.5L9.3,3.7L12.1,2.2z M11.6,6.1v3.3L8.7,7.8V4.5L11.6,6.1z M1.1,20.8v-3.3l2.8,1.5l0,3.3L1.1,20.8z M4.9,19.1
	l2.8-1.5l0,3.3l-2.8,1.5V19.1z M8.7,20.8v-3.3l2.8,1.5v3.3L8.7,20.8z M12.5,22.4v-3.3l2.8-1.5v3.3L12.5,22.4z M16.4,20.8v-3.3
	l2.8,1.5v3.3L16.4,20.8z M20.2,22.4v-3.3l2.8-1.5l0,3.3L20.2,22.4z"/>
</svg>
