<?xml version="1.0" encoding="utf-8"?>
<!-- Generator: Adobe Illustrator 23.0.3, SVG Export Plug-In . SVG Version: 6.00 Build 0)  -->
<svg version="1.1" id="Capa_1" xmlns="http://www.w3.org/2000/svg" xmlns:xlink="http://www.w3.org/1999/xlink" x="0px" y="0px"
	 viewBox="0 0 24 24" style="enable-background:new 0 0 24 24;" xml:space="preserve">
<style type="text/css">
	.st0{fill:#C39201;}
</style>
<g>
	<path class="st0" d="M13.6,18.2c-1.6,1.6-3.1,0.2-3.3,0c-0.2-0.2-0.5-0.2-0.7,0c-0.2,0.2-0.2,0.5,0,0.7c0.5,0.5,1.4,1,2.4,1
		c0.7,0,1.5-0.3,2.3-1c0.2-0.2,0.2-0.5,0-0.7S13.8,18,13.6,18.2z"/>
	<path class="st0" d="M10.5,13.5c0-0.3-0.2-0.5-0.5-0.5H9c-0.3,0-0.5,0.2-0.5,0.5S8.7,14,9,14h1C10.2,14,10.5,13.8,10.5,13.5z"/>
	<path class="st0" d="M15,13h-1c-0.3,0-0.5,0.2-0.5,0.5S13.8,14,14,14h1c0.3,0,0.5-0.2,0.5-0.5S15.3,13,15,13z"/>
	<path class="st0" d="M19.8,3.2c-1.7-2-4.3-3.1-7.9-3.1c-3.2,0-5.6,1-7.4,2.8C1.5,6.3,2,11.3,2,11.5c0,0.2,0.2,0.4,0.4,0.4
		c0,0,0.1,0,0.1,0c0.2,0,0.4-0.1,0.5-0.3c0.2-0.4,0.5-0.8,0.8-1.3c0,0,0,0.1,0,0.1c0.1,1,0.2,2.4,0.1,3.1C3.3,13.9,3,14.5,3,15.2
		c0,0.5,0.2,1,0.6,1.3c0.3,0.3,0.6,0.4,0.9,0.5c0.6,3.8,4.9,6.8,7.5,6.8c3,0,7-3.2,7.5-6.8c0.6-0.1,1.1-0.5,1.3-1.1
		c0.4-0.9,0.1-1.9-0.7-2.4c0-0.3,0.2-0.7,0.4-1c0.1-0.3,0.3-0.6,0.4-0.9c0,0,0,0,0.1,0c0.1,0.1,0.3,0,0.4,0c0.1-0.1,0.2-0.2,0.2-0.3
		C21.6,11.1,22.5,6.5,19.8,3.2z M5.3,3.6C6.8,2,9.1,1.1,11.9,1.1c3.3,0,5.7,0.9,7.1,2.7c1.9,2.3,1.8,5.4,1.6,6.7
		C19,10,14.7,8.6,11.4,8.6C9.7,8.6,8.2,9,7.5,10c-0.2,0.2-0.3,0.4-0.4,0.5C7,9.5,7.7,6.6,8.7,5.9C8.9,5.7,9,5.4,8.8,5.2
		S8.3,4.9,8.1,5.1C8,5.2,4.8,7.4,3,9.7C3.1,8.1,3.6,5.5,5.3,3.6z M19.2,14.1c0,0.1,0.1,0.2,0.3,0.3c0.4,0.2,0.7,0.7,0.5,1.2
		c-0.1,0.3-0.5,0.5-0.8,0.5c0,0,0,0,0,0c-0.3,0-0.5,0.2-0.5,0.5c-0.3,3.5-4.2,6.3-6.6,6.3c-2.4,0-6.3-2.9-6.6-6.3
		c0-0.3-0.3-0.5-0.5-0.5c-0.2,0-0.5-0.1-0.6-0.3C4.1,15.7,4,15.4,4,15.2c0-0.3,0.2-0.7,0.5-0.8c0.1-0.1,0.2-0.2,0.3-0.3
		c0.2-0.7,0.1-2,0-3.6c0-0.4-0.1-0.8-0.1-1.1C5.3,8.7,6,8,6.6,7.5C6.2,8.8,6,10.2,6.1,10.9c0.1,0.6,0.5,0.7,0.7,0.7
		c0.6,0.1,1.1-0.5,1.5-1c1.5-2.1,8.2-0.4,11.6,0.8c-0.1,0.3-0.2,0.5-0.3,0.8C19.3,12.8,19,13.5,19.2,14.1z"/>
</g>
</svg>
