<?xml version="1.0" encoding="utf-8"?>
<!-- Generator: Adobe Illustrator 23.0.1, SVG Export Plug-In . SVG Version: 6.00 Build 0)  -->
<svg version="1.1" id="Capa_1" xmlns="http://www.w3.org/2000/svg" xmlns:xlink="http://www.w3.org/1999/xlink" x="0px" y="0px"
	 viewBox="0 0 24 24" style="enable-background:new 0 0 24 24;" xml:space="preserve">
<g>
	<path class="st0" d="M21.1,0H2.7C1.2,0,0,1.2,0,2.8v18.4C0,22.8,1.2,24,2.7,24h18.4c1.6,0,2.9-1.2,2.9-2.8V2.8
		C24,1.2,22.8,0,21.1,0z M4,23H2.7c-1,0-1.7-0.7-1.7-1.8V20h3V23z M4,19H1v-3h3V19z M4,15H1v-3h3V15z M4,11H1V8h3V11z M9,23H5v-3h4
		V23z M9,19H5v-3h4V19z M9,15H5v-3h4V15z M9,11H5V8h4V11z M14,23h-4v-3h4V23z M14,19h-4v-3h4V19z M14,15h-4v-3h4V15z M14,11h-4V8h4
		V11z M19,23h-4v-3h4V23z M19,19h-4v-3h4V19z M19,15h-4v-3h4V15z M19,11h-4V8h4V11z M23,21.2c0,1-0.8,1.8-1.9,1.8H20v-3h3V21.2z
		 M23,19h-3v-3h3V19z M23,15h-3v-3h3V15z M23,11h-3V8h3V11z M23,7H1V2.8C1,1.7,1.7,1,2.7,1h18.4C22.2,1,23,1.8,23,2.8V7z"/>
	<path class="st0" d="M7.6,2.1c-0.8,0-1.5,0.7-1.5,1.5s0.7,1.5,1.5,1.5s1.5-0.7,1.5-1.5S8.5,2.1,7.6,2.1z M7.6,4.1
		c-0.3,0-0.5-0.2-0.5-0.5s0.2-0.5,0.5-0.5s0.5,0.2,0.5,0.5S7.9,4.1,7.6,4.1z"/>
	<path class="st0" d="M16.4,2.1c-0.8,0-1.5,0.7-1.5,1.5s0.7,1.5,1.5,1.5s1.5-0.7,1.5-1.5S17.2,2.1,16.4,2.1z M16.4,4.1
		c-0.3,0-0.5-0.2-0.5-0.5s0.2-0.5,0.5-0.5s0.5,0.2,0.5,0.5S16.6,4.1,16.4,4.1z"/>
</g>
</svg>
