<?xml version="1.0" encoding="utf-8"?>
<!-- Generator: Adobe Illustrator 23.0.1, SVG Export Plug-In . SVG Version: 6.00 Build 0)  -->
<svg version="1.1" id="Capa_1" xmlns="http://www.w3.org/2000/svg" xmlns:xlink="http://www.w3.org/1999/xlink" x="0px" y="0px"
	 viewBox="0 0 24 24" style="enable-background:new 0 0 24 24;" xml:space="preserve">
<g>
	<path class="st0" d="M19.6,4.8c1.1,0,1.9-1.4,1.9-2.4c0-1.1-0.8-1.9-1.9-1.9s-1.9,0.9-1.9,1.9C17.7,3.3,18.4,4.8,19.6,4.8z
		 M19.6,1.4c0.5,0,0.9,0.4,0.9,0.9c0,0.6-0.5,1.4-0.9,1.4S18.7,3,18.7,2.4C18.7,1.9,19.1,1.4,19.6,1.4z"/>
	<path class="st0" d="M11.5,15.4c1,0,1.7-1.2,1.7-2.1c0-0.9-0.8-1.7-1.7-1.7s-1.7,0.8-1.7,1.7C9.8,14.2,10.5,15.4,11.5,15.4z
		 M11.5,12.7c0.4,0,0.7,0.3,0.7,0.7c0,0.5-0.4,1.1-0.7,1.1c-0.3,0-0.7-0.6-0.7-1.1C10.8,13,11.1,12.7,11.5,12.7z"/>
	<path class="st0" d="M4.5,4.6c1.2,0,1.9-1.4,1.9-2.4c0,0,0-0.1,0-0.1c0-1.1-0.9-1.9-2-1.9c-1.1,0-1.9,0.9-1.9,2
		C2.6,3.1,3.3,4.6,4.5,4.6z M3.8,1.5C4,1.3,4.2,1.2,4.5,1.2c0,0,0,0,0,0c0.5,0,0.9,0.4,0.9,0.9l0.5,0.1l-0.5,0c0,0,0,0,0,0
		c0,0.6-0.5,1.4-0.9,1.4S3.6,2.7,3.6,2.1C3.5,1.9,3.6,1.7,3.8,1.5z"/>
	<path class="st0" d="M11.5,16.2c-1.3,0-2.3,1.3-2.3,2.9c0,1.1,0.7,4.8,2.3,4.8c1.6,0,2.3-3.7,2.3-4.8h0
		C13.9,17.5,12.8,16.2,11.5,16.2z M11.5,22.9c-0.5,0-1.3-2.3-1.3-3.8c0-1,0.6-1.9,1.3-1.9c0.3,0,0.7,0.2,0.9,0.5
		c0.3,0.4,0.4,0.9,0.4,1.4C12.8,20.6,12,22.9,11.5,22.9z"/>
	<path class="st0" d="M23.9,17.3l-2.2-5.5l0.4-2.3c0.1-3.9-0.1-4-0.5-4.2c0,0-0.1,0-0.1,0c-0.2-0.1-0.4-0.1-0.6-0.1h0
		c-0.1,0-0.3,0.1-0.4,0.2l-1,1.1l-1-1.1c-0.1-0.1-0.2-0.2-0.4-0.2h0c-0.2,0-0.4,0-0.6,0.1c0,0-0.1,0-0.1,0c-0.4,0.1-0.6,0.3-0.5,4.3
		l0.4,2.2l-2.2,5.5c-0.1,0.2,0,0.3,0.1,0.5c0.1,0.1,0.2,0.2,0.4,0.2H18v5.4c0,0.3,0.2,0.5,0.5,0.5s0.5-0.2,0.5-0.5v-5.9
		c0-0.3-0.2-0.5-0.5-0.5h-2.1l2-4.9c0-0.1,0-0.2,0-0.3L18,9.6c-0.1-2.2,0-3,0-3.2l1.2,1.3c0.1,0.1,0.2,0.2,0.4,0.2s0.3-0.1,0.4-0.2
		l1.2-1.3c0,0.3,0.1,1.1,0.1,3.2l-0.4,2.3c0,0.1,0,0.2,0,0.3l2,4.9h-2.1c-0.3,0-0.5,0.2-0.5,0.5v5.9c0,0.3,0.2,0.5,0.5,0.5
		s0.5-0.2,0.5-0.5V18h2.4c0.2,0,0.3-0.1,0.4-0.2C24,17.7,24,17.5,23.9,17.3z"/>
	<path class="st0" d="M7.5,5.2c-0.1,0-0.1-0.1-0.2-0.1c-0.1,0-0.2,0-0.7-0.1l-0.3,0C5.8,5,5.4,5.3,5.2,5.7C5.1,5.9,4.8,6.1,4.5,6.1
		h0c-0.3,0-0.6-0.1-0.7-0.4C3.6,5.3,3.1,5.1,2.7,5.1l-0.3,0c-0.5,0-0.7,0-0.7,0.1c-0.1,0-0.1,0.1-0.2,0.1C1.3,5.4,0.6,6,0.9,13.5
		c0,0.1,0.1,0.3,0.2,0.4c0.2,0.1,0.3,0.2,0.5,0.2l0.5,9.5c0,0.3,0.2,0.5,0.5,0.5c0.3,0,0.5-0.3,0.5-0.5l-0.6-9.9
		c0-0.1-0.1-0.3-0.2-0.4C2.2,13.1,2,13,1.9,13C1.7,7.9,2,6.4,2.1,6.1c0.1,0,0.2,0,0.4,0l0.3,0c0.1,0,0.1,0.1,0.1,0.1
		c0.3,0.6,0.9,0.9,1.6,0.9c0,0,0,0,0,0c0.7,0,1.3-0.3,1.6-0.9c0,0,0.1-0.1,0.1-0.1l0.3,0c0.1,0,0.2,0,0.3,0C7,6.5,7.3,8,7.1,13
		c-0.2,0-0.3,0-0.5,0.2c-0.1,0.1-0.2,0.3-0.2,0.4l-0.6,9.9C5.8,23.7,6,24,6.3,24c0,0,0,0,0,0c0.3,0,0.5-0.2,0.5-0.5l0.5-9.5
		c0.2,0,0.4,0,0.5-0.2c0.1-0.1,0.2-0.3,0.2-0.4C8.4,6,7.7,5.4,7.5,5.2z"/>
	<path class="st0" d="M4.5,15C4.2,15,4,15.3,4,15.5v7.9C4,23.8,4.2,24,4.5,24S5,23.8,5,23.5v-7.9C5,15.3,4.8,15,4.5,15z"/>
</g>
</svg>
