<svg xmlns="http://www.w3.org/2000/svg" width="32" height="32" viewBox="0 0 32 32">
    <g fill="none" fill-rule="evenodd">
        <path d="M0 0h32v32H0z"/>
        <g stroke="#4382FF" transform="translate(4)">
            <path d="M18.006.673v5.334h5.334"/>
            <path d="M23.34 30.273c0 .582-.472 1.067-1.056 1.067H1.723c-.582 0-1.05-.485-1.05-1.067V1.747c0-.582.468-1.074 1.05-1.074h16.283c.277 0 .406.12.603.313l4.416 4.359c.2.197.315.38.315.662v24.266z"/>
            <path d="M20.075 11.356H4.04c-.33 0-.598.253-.598.567v10.859c0 .312.268.566.598.566h16.034c.33 0 .598-.254.598-.566v-10.86c0-.313-.268-.566-.598-.566z"/>
            <ellipse cx="7.776" cy="15.825" rx="1.607" ry="1.522"/>
            <path d="M7.04 23.287l5.314-6.874 2.153 2.75 2.768-4.122 3.385 4.61"/>
        </g>
    </g>
</svg>
