<?xml version="1.0" encoding="utf-8"?>
<!-- Generator: Adobe Illustrator 23.0.3, SVG Export Plug-In . SVG Version: 6.00 Build 0)  -->
<svg version="1.1" id="Capa_1" xmlns="http://www.w3.org/2000/svg" xmlns:xlink="http://www.w3.org/1999/xlink" x="0px" y="0px"
	 viewBox="0 0 24 24" style="enable-background:new 0 0 24 24;" xml:space="preserve">
<style type="text/css">
	.st0{fill:#C39201;}
</style>
<g>
	<path class="st0" d="M23,13h-7.6l-1.2-2.7c-0.1-0.2-0.3-0.3-0.5-0.3c-0.2,0-0.4,0.2-0.4,0.4l-1,5l-2-8.4c-0.1-0.2-0.2-0.4-0.5-0.4
		C9.6,6.6,9.4,6.8,9.3,7l-1.6,6H1c-0.3,0-0.5,0.2-0.5,0.5S0.7,14,1,14h7.1c0.2,0,0.4-0.2,0.5-0.4l1.2-4.5l2,8.7
		c0.1,0.2,0.3,0.4,0.5,0.4c0,0,0,0,0,0c0.2,0,0.4-0.2,0.5-0.4l1.2-5.7l0.7,1.6c0.1,0.2,0.3,0.3,0.5,0.3H23c0.3,0,0.5-0.2,0.5-0.5
		S23.3,13,23,13z"/>
	<path class="st0" d="M17.9,15.3l-5.7,6.5C12,22,11.7,22,11.5,21.7L6,15.3c-0.2-0.2-0.5-0.2-0.7-0.1c-0.2,0.2-0.2,0.5-0.1,0.7
		l5.5,6.5c0.3,0.4,0.7,0.5,1.2,0.5c0.3,0,0.7-0.1,1-0.4c0.1,0,0.1-0.1,0.2-0.2l5.6-6.5c0.2-0.2,0.2-0.5,0-0.7
		C18.4,15,18.1,15.1,17.9,15.3z"/>
	<path class="st0" d="M2.3,12.1c0.1,0,0.2,0,0.3-0.1c0.2-0.2,0.2-0.5,0.1-0.7c-0.8-1-1.3-2.3-1.3-3.6c0-3.1,2.5-5.6,5.6-5.6
		c1.8,0,3.6,0.9,4.7,2.3c0.1,0.1,0.2,0.2,0.4,0.2c0,0,0,0,0,0c0.2,0,0.3-0.1,0.4-0.2c1.1-1.4,2.9-2.3,4.7-2.3c3.1,0,5.6,2.5,5.6,5.6
		c0,1.3-0.5,2.6-1.3,3.6c-0.2,0.2-0.1,0.5,0.1,0.7c0.2,0.2,0.5,0.2,0.7-0.1c1-1.2,1.5-2.7,1.5-4.2c0-3.6-3-6.6-6.6-6.6
		c-1.9,0-3.8,0.8-5.1,2.2c-1.3-1.4-3.2-2.2-5.1-2.2c-3.6,0-6.6,3-6.6,6.6c0,1.5,0.5,3,1.5,4.2C2,12,2.1,12.1,2.3,12.1z"/>
</g>
</svg>
