<?xml version="1.0" encoding="utf-8"?>
<!-- Generator: Adobe Illustrator 23.0.1, SVG Export Plug-In . SVG Version: 6.00 Build 0)  -->
<svg version="1.1" id="Capa_1" xmlns="http://www.w3.org/2000/svg" xmlns:xlink="http://www.w3.org/1999/xlink" x="0px" y="0px"
	 viewBox="0 0 24 24" style="enable-background:new 0 0 24 24;" xml:space="preserve">
<g>
	<path class="st0" d="M12,9.7c-0.7,0-1.4,0.2-1.9,0.7c-0.5,0.5-0.8,1.2-0.8,1.9v0.1c0,0.7,0.3,1.4,0.8,1.9c0.5,0.5,1.1,0.7,1.8,0.7
		c0,0,0,0,0.1,0c0.7,0,1.4-0.3,1.9-0.8c0.5-0.5,0.8-1.2,0.7-1.9C14.6,10.8,13.5,9.7,12,9.7z M13.6,12.3c0,0.4-0.2,0.9-0.5,1.2
		C12.9,13.8,12.5,14,12,14c-0.9,0-1.7-0.7-1.7-1.7c0-0.4,0.2-0.9,0.5-1.2c0.3-0.3,0.7-0.5,1.1-0.5c0,0,0,0,0,0
		C12.9,10.7,13.6,11.4,13.6,12.3L13.6,12.3z"/>
	<path class="st0" d="M16.5,13.2C16.5,13.2,16.5,13.2,16.5,13.2c-0.8,0-1.4,0.6-1.4,1.4c0,0,0,0.1,0,0.1c0,0,0,0,0,0.1v1.4
		c0,0.3,0.2,0.5,0.5,0.5h1.8c0.3,0,0.5-0.2,0.5-0.5v-1.4c0,0,0,0,0-0.1c0,0,0-0.1,0-0.1v0C17.9,13.8,17.2,13.2,16.5,13.2z
		 M16.9,14.9v0.8h-0.8v-0.9c0-0.1,0-0.2,0-0.2c0-0.1,0-0.2,0.1-0.3c0.1-0.1,0.2-0.1,0.3-0.1h0c0.1,0,0.2,0,0.3,0.1
		c0.1,0.1,0.1,0.2,0.1,0.3l0.5,0l-0.5,0.1C16.8,14.8,16.8,14.8,16.9,14.9z"/>
	<path class="st0" d="M18.8,16.7h1.8c0.3,0,0.5-0.2,0.5-0.5v-1.4c0,0,0,0,0-0.1c0,0,0-0.1,0-0.1c0,0,0,0,0,0c0-0.8-0.6-1.4-1.4-1.4
		c0,0,0,0,0,0c-0.8,0-1.4,0.6-1.4,1.4c0,0,0,0.1,0,0.1c0,0,0,0,0,0.1v1.4C18.3,16.5,18.5,16.7,18.8,16.7z M19.3,14.8
		c0-0.1,0-0.2,0-0.2c0-0.2,0.2-0.4,0.4-0.4c0,0,0,0,0,0c0.2,0,0.4,0.2,0.4,0.4l0.5,0l-0.5,0.1c0,0.1,0,0.1,0,0.2v0.8h-0.8V14.8z"/>
	<path class="st0" d="M17.4,17.5h-1.8c-0.3,0-0.5,0.2-0.5,0.5v2.2c0,0.3,0.2,0.5,0.5,0.5h1.8c0.3,0,0.5-0.2,0.5-0.5V18
		C17.9,17.7,17.6,17.5,17.4,17.5z M16.9,19.7h-0.8v-1.2h0.8V19.7z"/>
	<path class="st0" d="M20.6,17.5h-1.8c-0.3,0-0.5,0.2-0.5,0.5v2.2c0,0.3,0.2,0.5,0.5,0.5h1.8c0.3,0,0.5-0.2,0.5-0.5V18
		C21.1,17.7,20.9,17.5,20.6,17.5z M20.1,19.7h-0.8v-1.2h0.8V19.7z"/>
	<path class="st0" d="M12,11c-0.3,0-0.5,0.2-0.5,0.5V12H11c-0.3,0-0.5,0.2-0.5,0.5S10.7,13,11,13h1c0.3,0,0.5-0.2,0.5-0.5v-1
		C12.5,11.2,12.3,11,12,11z"/>
	<path class="st0" d="M3.4,16.7h1.8c0.3,0,0.5-0.2,0.5-0.5v-1.4c0,0,0,0,0-0.1c0,0,0-0.1,0-0.1c0,0,0,0,0,0c0-0.8-0.6-1.4-1.4-1.4
		c0,0,0,0,0,0c-0.8,0-1.4,0.6-1.4,1.4c0,0,0,0.1,0,0.1c0,0,0,0,0,0.1v1.4C2.9,16.5,3.1,16.7,3.4,16.7z M3.9,14.8c0-0.1,0-0.2,0-0.2
		c0-0.2,0.2-0.4,0.4-0.4c0,0,0,0,0,0c0.2,0,0.4,0.2,0.4,0.4l0.5,0l-0.5,0.1c0,0.1,0,0.1,0,0.2v0.8H3.9V14.8z"/>
	<path class="st0" d="M6.6,16.7h1.8c0.3,0,0.5-0.2,0.5-0.5v-1.4c0,0,0,0,0-0.1c0,0,0-0.1,0-0.1c0,0,0,0,0,0c0-0.8-0.6-1.4-1.4-1.4
		c0,0,0,0,0,0c-0.8,0-1.4,0.6-1.4,1.4c0,0,0,0.1,0,0.1c0,0,0,0,0,0.1v1.4C6.1,16.5,6.3,16.7,6.6,16.7z M7.1,14.8c0-0.1,0-0.2,0-0.2
		c0-0.2,0.2-0.4,0.4-0.4c0,0,0,0,0,0c0.2,0,0.4,0.2,0.4,0.4l0.5,0l-0.5,0.1c0,0.1,0,0.1,0,0.2v0.8H7.1V14.8z"/>
	<path class="st0" d="M8.4,17.5H6.6c-0.3,0-0.5,0.2-0.5,0.5v2.2c0,0.3,0.2,0.5,0.5,0.5h1.8c0.3,0,0.5-0.2,0.5-0.5V18
		C8.9,17.7,8.7,17.5,8.4,17.5z M7.9,19.7H7.1v-1.2h0.8V19.7z"/>
	<path class="st0" d="M5.2,17.5H3.4c-0.3,0-0.5,0.2-0.5,0.5v2.2c0,0.3,0.2,0.5,0.5,0.5h1.8c0.3,0,0.5-0.2,0.5-0.5V18
		C5.7,17.7,5.4,17.5,5.2,17.5z M4.7,19.7H3.9v-1.2h0.8V19.7z"/>
	<path class="st0" d="M23.5,21.5h-0.6v-8.7h0.2c0.2,0,0.3,0,0.5-0.1c0.4-0.3,0.5-0.8,0.3-1.2l-2.5-3.9c-0.2-0.2-0.4-0.4-0.7-0.4h-7
		l-1.2-1.2v-1h3.2c0.5,0,0.8-0.4,0.8-0.8c0-0.2,0-0.3-0.1-0.5l-0.4-0.5l0.4-0.5c0.3-0.4,0.2-0.9-0.2-1.2c-0.1-0.1-0.3-0.1-0.5-0.1
		h-3.2V1.1c0-0.3-0.2-0.5-0.5-0.5s-0.5,0.2-0.5,0.5v1c0,0,0,0,0,0v2c0,0,0,0,0,0V6l-1.1,1.1h-7c-0.3,0-0.6,0.1-0.7,0.4l-2.5,4
		c-0.3,0.4-0.1,0.9,0.3,1.2c0.1,0.1,0.3,0.1,0.5,0.1h0.2v8.7H0.5C0.2,21.5,0,21.7,0,22s0.2,0.5,0.5,0.5h1.1h20.8h1.1
		c0.3,0,0.5-0.2,0.5-0.5S23.8,21.5,23.5,21.5z M12.5,2.3l2.9,0l-0.4,0.6c-0.1,0.2-0.1,0.4,0,0.6l0.4,0.6h-2.9V2.3z M20.5,8.1
		l2.3,3.7h-0.5h-4.1l-3.7-3.7H20.5z M3.4,8.1h5.9l-3.7,3.7H1.6c0,0-0.1,0-0.1,0l-0.4,0L3.4,8.1z M13.8,17.2h-3.5v-0.3
		c0-0.3,0.2-0.6,0.5-0.6h2.6c0.3,0,0.5,0.2,0.5,0.6V17.2z M10.2,21.5v-3.3h1.2v3.3H10.2z M12.5,18.2h1.3v3.3h-1.3V18.2z M14.8,21.5
		v-4.6c0-0.9-0.7-1.6-1.5-1.6h-2.6c-0.8,0-1.5,0.7-1.5,1.6v4.6H2.1v-8.7h3.7h0.1c0.1,0,0.3-0.1,0.4-0.1L12,6.9l5.7,5.7
		c0.1,0.1,0.2,0.1,0.4,0.1h0h3.8v8.7H14.8z"/>
</g>
</svg>
