<?xml version="1.0" encoding="utf-8"?>
<!-- Generator: Adobe Illustrator 23.0.3, SVG Export Plug-In . SVG Version: 6.00 Build 0)  -->
<svg version="1.1" id="Capa_1" xmlns="http://www.w3.org/2000/svg" xmlns:xlink="http://www.w3.org/1999/xlink" x="0px" y="0px"
	 viewBox="0 0 24 24" style="enable-background:new 0 0 24 24;" xml:space="preserve">
<style type="text/css">
	.st0{fill:#C39201;}
</style>
<g>
	<path class="st0" d="M15.9,9.3c-0.1-0.1-0.3-0.1-0.4-0.1c-0.1,0-0.3,0.1-0.3,0.2c-1.4,2.3-3.7,3.7-6.2,3.7c-1,0-1.9-0.2-2.8-0.6
		c-0.1-0.1-0.3-0.1-0.4,0c-0.1,0.1-0.2,0.2-0.3,0.3c-0.3,0.9-0.5,1.8-0.5,2.8c0,4.4,3.2,8.2,6.9,8.2c3.7,0,6.9-3.8,6.9-8.2
		C18.8,13.1,17.7,10.7,15.9,9.3z M11.9,22.8c-3.1,0-5.9-3.4-5.9-7.2c0-0.7,0.1-1.3,0.3-2c0.8,0.3,1.7,0.5,2.6,0.5
		c2.6,0,5.1-1.4,6.7-3.7c1.3,1.3,2.1,3.2,2.1,5.2C17.8,19.4,15,22.8,11.9,22.8z"/>
	<path class="st0" d="M17.5,5.1c0.5-1.5,0.5-1.7,0.5-1.7c0-1.7-2.6-3.1-6-3.1c-3.4,0-6,1.4-6,3.1c0,0.1,0,0.2,0.5,1.8
		c-6.6,4.1-4,14.2-3.9,14.7c0,0.2,0.2,0.3,0.3,0.3l2.7,0.9c0.1,0,0.1,0,0.2,0c0.2,0,0.4-0.1,0.5-0.3c0.1-0.3,0-0.5-0.3-0.6l-2.4-0.9
		C3.1,17.8,1.5,9.6,6.7,6.1c0.1,0.3,0.2,0.6,0.3,0.9c0.6,1.4,2.6,1.5,4.9,1.5c2.6,0,4.3-0.1,4.9-1.5c0.1-0.3,0.2-0.7,0.3-0.9
		c5.4,3.4,3.8,11.7,3.4,13.2l-2.4,0.9c-0.3,0.1-0.4,0.4-0.3,0.6c0.1,0.2,0.3,0.3,0.5,0.3c0.1,0,0.1,0,0.2,0l2.7-0.9
		c0.2-0.1,0.3-0.2,0.3-0.3C21.5,19.7,24.3,9.2,17.5,5.1z M11.9,7.5c-1.9,0-3.6-0.1-3.9-0.8c-0.5-1.5-1-3.1-1.1-3.3
		c0-1,2.1-2.1,5-2.1c2.9,0,5,1.1,5,2.1c0,0.2-0.3,0.9-0.5,1.7c0,0,0,0,0,0c0,0.1-0.1,0.1-0.1,0.2c-0.2,0.5-0.3,0.9-0.5,1.4
		C15.6,7.5,14,7.5,11.9,7.5z"/>
	<path class="st0" d="M11,15.5c0-0.3-0.2-0.5-0.5-0.5h-1C9.2,15,9,15.2,9,15.5S9.2,16,9.5,16h1C10.8,16,11,15.8,11,15.5z"/>
	<path class="st0" d="M13,18.8c-0.3,0.3-0.7,0.5-1.1,0.5c0,0,0,0,0,0c-0.6,0-1.1-0.5-1.1-0.5c-0.2-0.2-0.5-0.2-0.7,0
		c-0.2,0.2-0.2,0.5,0,0.7c0,0,0.8,0.8,1.8,0.8c0,0,0,0,0,0c0.6,0,1.2-0.3,1.8-0.8c0.2-0.2,0.2-0.5,0-0.7S13.2,18.6,13,18.8z"/>
	<path class="st0" d="M13.5,4h-1V3c0-0.3-0.2-0.5-0.5-0.5S11.5,2.7,11.5,3v1h-1C10.2,4,10,4.2,10,4.5S10.2,5,10.5,5h1v1
		c0,0.3,0.2,0.5,0.5,0.5s0.5-0.2,0.5-0.5V5h1C13.8,5,14,4.8,14,4.5S13.8,4,13.5,4z"/>
	<path class="st0" d="M14.5,15h-1c-0.3,0-0.5,0.2-0.5,0.5s0.2,0.5,0.5,0.5h1c0.3,0,0.5-0.2,0.5-0.5S14.8,15,14.5,15z"/>
</g>
</svg>
