<?xml version="1.0" encoding="utf-8"?>
<!-- Generator: Adobe Illustrator 23.0.1, SVG Export Plug-In . SVG Version: 6.00 Build 0)  -->
<svg version="1.1" id="Capa_1" xmlns="http://www.w3.org/2000/svg" xmlns:xlink="http://www.w3.org/1999/xlink" x="0px" y="0px"
	 viewBox="0 0 24 24" style="enable-background:new 0 0 24 24;" xml:space="preserve">
<g>
	<path class="st0" d="M14.5,20.9c0.3,0,0.5-0.2,0.5-0.5V6.9h3v1.5c0,0,0,0,0,0v3c0,0,0,0,0,0v3c0,0,0,0,0,0v3c0,0,0,0,0,0v3
		c0,0,0,0,0,0c0,0.1,0,0.1,0,0.2v0c0,0.1,0.1,0.1,0.1,0.2c0,0,0.1,0.1,0.2,0.1h0c0.1,0.1,0.3,0,0.4,0h0c0.1,0,0.1-0.1,0.1-0.1v0
		c0,0,0,0,0,0l3.1-3.1v2.8c0,0.3,0.2,0.5,0.5,0.5s0.5-0.2,0.5-0.5v-17c0-0.3-0.2-0.5-0.5-0.5h-2c0,0,0,0,0,0h-2
		c-0.3,0-0.5,0.2-0.5,0.5v2c0,0,0,0,0,0v0.5h-3.5c-0.3,0-0.5,0.2-0.5,0.5v14C14,20.7,14.2,20.9,14.5,20.9z M19,3.9h0.3L19,4.2V3.9z
		 M19,6.4V5.6l1.7-1.7H22v0.3l-3,3V6.4z M19,8.6l3-3v1.6l-3,3V8.6z M19,11.6l3-3v1.6l-3,3V11.6z M19,14.6l3-3v1.6l-3,3V14.6z
		 M19,17.6l3-3v1.6l-3,3V17.6z"/>
	<path class="st0" d="M23.4,21.9H2V0.5C2,0.2,1.8,0,1.5,0S1,0.2,1,0.5v1.4H0.5C0.2,1.9,0,2.1,0,2.4s0.2,0.5,0.5,0.5H1v3H0.5
		C0.2,5.9,0,6.1,0,6.4s0.2,0.5,0.5,0.5H1v3H0.5C0.2,9.9,0,10.1,0,10.4s0.2,0.5,0.5,0.5H1v3H0.5c-0.3,0-0.5,0.2-0.5,0.5
		s0.2,0.5,0.5,0.5H1v3H0.5c-0.3,0-0.5,0.2-0.5,0.5s0.2,0.5,0.5,0.5H1v3H0.5c-0.3,0-0.5,0.2-0.5,0.5s0.2,0.5,0.5,0.5H1v0.6
		C1,23.8,1.2,24,1.5,24S2,23.8,2,23.5v-0.6h3v0.6C5,23.8,5.2,24,5.5,24S6,23.8,6,23.5v-0.6h3v0.6C9,23.8,9.2,24,9.5,24
		s0.5-0.2,0.5-0.5v-0.6h3v0.6c0,0.3,0.2,0.5,0.5,0.5s0.5-0.2,0.5-0.5v-0.6h3v0.6c0,0.3,0.2,0.5,0.5,0.5s0.5-0.2,0.5-0.5v-0.6h3v0.6
		c0,0.3,0.2,0.5,0.5,0.5s0.5-0.2,0.5-0.5v-0.6h1.4c0.3,0,0.5-0.2,0.5-0.5S23.7,21.9,23.4,21.9z"/>
	<path class="st0" d="M3.5,20.9c0.3,0,0.5-0.2,0.5-0.5v-7.5h3v4.5c0,0,0,0,0,0v3c0,0,0,0,0,0c0,0.1,0,0.1,0,0.2
		c0,0.1,0.1,0.1,0.1,0.2c0,0,0.1,0.1,0.2,0.1c0,0,0,0,0,0c0.1,0.1,0.3,0,0.4,0c0,0,0,0,0,0c0.1,0,0.1-0.1,0.1-0.1h0c0,0,0,0,0,0
		c0,0,0,0,0,0l3.1-3.1v2.8c0,0.3,0.2,0.5,0.5,0.5s0.5-0.2,0.5-0.5v-6c0-0.3-0.2-0.5-0.5-0.5h-1c0,0,0,0,0,0H8v-1.5
		c0-0.3-0.2-0.5-0.5-0.5h-4c-0.3,0-0.5,0.2-0.5,0.5v8C3,20.7,3.2,20.9,3.5,20.9z M8,14.9h1.3L8,16.2V14.9z M8,17.6l2.7-2.7H11v1.3
		l-3,3V17.6z"/>
</g>
</svg>
