<?xml version="1.0" encoding="utf-8"?>
<!-- Generator: Adobe Illustrator 23.0.1, SVG Export Plug-In . SVG Version: 6.00 Build 0)  -->
<svg version="1.1" id="Capa_1" xmlns="http://www.w3.org/2000/svg" xmlns:xlink="http://www.w3.org/1999/xlink" x="0px" y="0px"
	 viewBox="0 0 24 24" style="enable-background:new 0 0 24 24;" xml:space="preserve">
<g>
	<path class="st0" d="M20,21.3l-4.4-12V4c0.4-0.1,0.7-0.3,1-0.6C16.9,3,17.1,2.5,17.1,2c0-1-0.7-2-1.9-2H8.9C7.6,0,7,1,7,2
		c0,0.9,0.5,1.7,1.4,2v5.4l-1.8,4.9c0,0,0,0,0,0l-2.6,7c-0.2,0.5-0.2,1,0,1.5s0.6,0.8,1,1C5.3,23.9,5.5,24,5.8,24h12.5
		c0.5,0,1-0.2,1.4-0.6s0.6-0.8,0.6-1.4C20.2,21.8,20.1,21.6,20,21.3z M9.4,9.7c0-0.1,0-0.1,0-0.2V3.5C9.4,3.3,9.2,3,8.9,3
		C8.2,3,8,2.5,8,2C8,1.6,8.2,1,8.9,1h6.3c0.7,0,0.9,0.7,0.9,1c0,0.3-0.1,0.5-0.2,0.7C15.7,2.9,15.4,3,15.1,3c-0.3,0-0.5,0.2-0.5,0.5
		v5.9c0,0.1,0,0.1,0,0.2l1.4,3.8C15,13.9,11.2,14,7.8,14L9.4,9.7z M18.9,22.7c-0.2,0.2-0.4,0.3-0.6,0.3H5.8c-0.1,0-0.2,0-0.3-0.1
		c-0.2-0.1-0.4-0.3-0.5-0.5c-0.1-0.2-0.1-0.5,0-0.7L7.4,15c0.3,0,0.8,0,1.2,0c2.4,0,6.2-0.1,7.8-0.6l2.7,7.3c0,0,0,0,0,0
		c0,0.1,0.1,0.2,0.1,0.3C19.2,22.3,19.1,22.5,18.9,22.7z"/>
	<path class="st0" d="M14,17.7c-1.2,0-2.1,1-2.1,2.1c0,1.2,1,2.1,2.1,2.1c0,0,0,0,0,0c1.2,0,2.1-1,2.1-2.1S15.1,17.7,14,17.7z
		 M14,21L14,21c-0.6,0-1.1-0.5-1.1-1.1s0.5-1.1,1.1-1.1c0.6,0,1.1,0.5,1.1,1.1S14.6,21,14,21z"/>
	<path class="st0" d="M9.5,15.9c-0.9,0-1.5,0.7-1.5,1.5C8,18.3,8.6,19,9.5,19c0,0,0,0,0,0c0.9,0,1.5-0.7,1.5-1.5
		C11,16.6,10.4,15.9,9.5,15.9z M9.5,18L9.5,18C9.2,18,9,17.8,9,17.5s0.2-0.5,0.5-0.5c0.3,0,0.5,0.2,0.5,0.5S9.8,18,9.5,18z"/>
	<path class="st0" d="M11.5,12.9c0.8,0,1.5-0.7,1.5-1.5s-0.7-1.5-1.5-1.5S10,10.6,10,11.4S10.7,12.9,11.5,12.9z M11.5,10.9
		c0.3,0,0.5,0.2,0.5,0.5s-0.2,0.5-0.5,0.5S11,11.7,11,11.4S11.3,10.9,11.5,10.9z"/>
</g>
</svg>
