<?xml version="1.0" encoding="utf-8"?>
<!-- Generator: Adobe Illustrator 23.0.1, SVG Export Plug-In . SVG Version: 6.00 Build 0)  -->
<svg version="1.1" id="Capa_1" xmlns="http://www.w3.org/2000/svg" xmlns:xlink="http://www.w3.org/1999/xlink" x="0px" y="0px"
	 viewBox="0 0 24 24" style="enable-background:new 0 0 24 24;" xml:space="preserve">
<g>
	<path class="st0" d="M7.5,18.9h-3c-0.3,0-0.5,0.2-0.5,0.5s0.2,0.5,0.5,0.5h3c0.3,0,0.5-0.2,0.5-0.5S7.8,18.9,7.5,18.9z"/>
	<path class="st0" d="M7.5,20.9h-4c-0.3,0-0.5,0.2-0.5,0.5s0.2,0.5,0.5,0.5h4c0.3,0,0.5-0.2,0.5-0.5S7.8,20.9,7.5,20.9z"/>
	<path class="st0" d="M10.5,16.9h-4c-0.3,0-0.5,0.2-0.5,0.5s0.2,0.5,0.5,0.5h4c0.3,0,0.5-0.2,0.5-0.5S10.8,16.9,10.5,16.9z"/>
	<path class="st0" d="M3.5,7.9h4C7.8,7.9,8,7.7,8,7.4S7.8,6.9,7.5,6.9h-4C3.2,6.9,3,7.1,3,7.4S3.2,7.9,3.5,7.9z"/>
	<path class="st0" d="M4,9.4c0,0.3,0.2,0.5,0.5,0.5h5c0.3,0,0.5-0.2,0.5-0.5S9.8,8.9,9.5,8.9h-5C4.2,8.9,4,9.1,4,9.4z"/>
	<path class="st0" d="M9.5,14.9h-5c-0.3,0-0.5,0.2-0.5,0.5s0.2,0.5,0.5,0.5h5c0.3,0,0.5-0.2,0.5-0.5S9.8,14.9,9.5,14.9z"/>
	<path class="st0" d="M3.5,11.9h2c0.3,0,0.5-0.2,0.5-0.5s-0.2-0.5-0.5-0.5h-2c-0.3,0-0.5,0.2-0.5,0.5S3.2,11.9,3.5,11.9z"/>
	<path class="st0" d="M3.5,13.9h4c0.3,0,0.5-0.2,0.5-0.5s-0.2-0.5-0.5-0.5h-4c-0.3,0-0.5,0.2-0.5,0.5S3.2,13.9,3.5,13.9z"/>
	<path class="st0" d="M19.5,20.9h-4c-0.3,0-0.5,0.2-0.5,0.5s0.2,0.5,0.5,0.5h4c0.3,0,0.5-0.2,0.5-0.5S19.8,20.9,19.5,20.9z"/>
	<path class="st0" d="M15.5,11.9h2c0.3,0,0.5-0.2,0.5-0.5s-0.2-0.5-0.5-0.5h-2c-0.3,0-0.5,0.2-0.5,0.5S15.2,11.9,15.5,11.9z"/>
	<path class="st0" d="M15.5,13.9h4c0.3,0,0.5-0.2,0.5-0.5s-0.2-0.5-0.5-0.5h-4c-0.3,0-0.5,0.2-0.5,0.5S15.2,13.9,15.5,13.9z"/>
	<path class="st0" d="M24,4.3V1.5C24,0.7,23.3,0,22.5,0h-21C0.7,0,0,0.7,0,1.5v21C0,23.3,0.7,24,1.5,24h21c0.8,0,1.5-0.7,1.5-1.5
		v-18C24,4.5,24,4.4,24,4.3C24,4.4,24,4.3,24,4.3z M1,22.5V4.9h11v9.5c0,0.1,0.1,0.3,0.2,0.4l1.6,1.6L12.1,18
		c-0.1,0.1-0.1,0.2-0.1,0.4V23H1.5C1.2,23,1,22.8,1,22.5z M23,22.5c0,0.3-0.2,0.5-0.5,0.5H13v-4.4l1.9-1.8c0.1-0.1,0.1-0.2,0.1-0.4
		c0-0.1-0.1-0.3-0.2-0.4L13,14.2V4.9h10V22.5z M23,3.9H1V1.5C1,1.2,1.2,1,1.5,1h21C22.8,1,23,1.2,23,1.5V3.9z"/>
	<path class="st0" d="M15.5,7.9h4c0.3,0,0.5-0.2,0.5-0.5s-0.2-0.5-0.5-0.5h-4c-0.3,0-0.5,0.2-0.5,0.5S15.2,7.9,15.5,7.9z"/>
	<path class="st0" d="M20.5,16.9h-2c-0.3,0-0.5,0.2-0.5,0.5s0.2,0.5,0.5,0.5h2c0.3,0,0.5-0.2,0.5-0.5S20.8,16.9,20.5,16.9z"/>
	<path class="st0" d="M16,9.4c0,0.3,0.2,0.5,0.5,0.5h5c0.3,0,0.5-0.2,0.5-0.5s-0.2-0.5-0.5-0.5h-5C16.2,8.9,16,9.1,16,9.4z"/>
	<path class="st0" d="M19.5,18.9h-3c-0.3,0-0.5,0.2-0.5,0.5s0.2,0.5,0.5,0.5h3c0.3,0,0.5-0.2,0.5-0.5S19.8,18.9,19.5,18.9z"/>
	<path class="st0" d="M21.5,14.9h-5c-0.3,0-0.5,0.2-0.5,0.5s0.2,0.5,0.5,0.5h5c0.3,0,0.5-0.2,0.5-0.5S21.8,14.9,21.5,14.9z"/>
</g>
</svg>
