<?xml version="1.0" encoding="utf-8"?>
<!-- Generator: Adobe Illustrator 23.0.3, SVG Export Plug-In . SVG Version: 6.00 Build 0)  -->
<svg version="1.1" id="Capa_1" xmlns="http://www.w3.org/2000/svg" xmlns:xlink="http://www.w3.org/1999/xlink" x="0px" y="0px"
	 viewBox="0 0 24 24" style="enable-background:new 0 0 24 24;" xml:space="preserve">
<style type="text/css">
	.st0{fill:#C39201;}
</style>
<g>
	<path class="st0" d="M19.5,1.9L19.5,1.9c-1.2,0-2.3,0.5-3.2,1.3S15,5.2,15,6.4c0,1.2,0.5,2.3,1.3,3.2c0.8,0.8,2,1.3,3.2,1.3h0
		c2.5,0,4.5-2,4.5-4.5S22,1.9,19.5,1.9z M19.5,9.8L19.5,9.8c-0.9,0-1.8-0.4-2.4-1s-1-1.5-1-2.4c0-0.9,0.4-1.8,1-2.4s1.5-1,2.4-1h0
		c1.9,0,3.5,1.6,3.5,3.5S21.4,9.8,19.5,9.8z"/>
	<path class="st0" d="M16.5,11.9c-0.3,0-0.5,0.2-0.5,0.5v7.5c0,0.6-0.4,1-1,1s-1-0.4-1-1v-4.5c0-0.3-0.2-0.5-0.5-0.5
		S13,15.1,13,15.4v0.5H9.8v-7h3.7c0.3,0,0.5-0.2,0.5-0.5s-0.2-0.5-0.5-0.5h-7c0,0,0,0,0,0C4,7.9,2,9.9,2,12.4c0,0.7,0.2,1.4,0.5,2.1
		l1.7,3.4H2c-1.1,0-2,0.9-2,2s0.9,2,2,2h4c0,0,0,0,0,0c0.8,0,1.6-0.3,2.1-0.9C8.7,20.4,9,19.7,9,18.9c0-0.4-0.1-0.8-0.2-1.1
		l-0.3-0.9H13v3c0,1.1,0.9,2,2,2s2-0.9,2-2v-7.5C17,12.1,16.8,11.9,16.5,11.9z M7.4,20.3C7,20.7,6.5,20.9,6,20.9c0,0,0,0,0,0H2
		c-0.6,0-1-0.4-1-1s0.4-1,1-1h3c0.2,0,0.3-0.1,0.4-0.2c0.1-0.1,0.1-0.3,0-0.5L3.4,14c-0.2-0.4-0.3-0.8-0.4-1.3C5.3,12,6,13.4,6,13.6
		l1.8,4.6C8,18.4,8,18.6,8,18.9C8,19.4,7.8,19.9,7.4,20.3z M8.8,15.9H8L7,13.2c0,0-0.4-1-1.5-1.5c-0.7-0.3-1.5-0.3-2.4-0.1
		c0.1-0.7,0.5-1.3,1-1.8c0.7-0.7,1.5-1,2.5-1c0,0,0,0,0,0h2.3V15.9z"/>
</g>
</svg>
