<?xml version="1.0" encoding="utf-8"?>
<!-- Generator: Adobe Illustrator 23.0.1, SVG Export Plug-In . SVG Version: 6.00 Build 0)  -->
<svg version="1.1" id="Capa_1" xmlns="http://www.w3.org/2000/svg" xmlns:xlink="http://www.w3.org/1999/xlink" x="0px" y="0px"
	 viewBox="0 0 24 24" style="enable-background:new 0 0 24 24;" xml:space="preserve">
<g>
	<path class="st0" d="M17,5.6c1,0,1.7-1.1,1.7-2.1c0-0.9-0.8-1.7-1.7-1.7s-1.7,0.8-1.7,1.7C15.3,4.5,16.1,5.6,17,5.6z M17,2.8
		c0.4,0,0.7,0.3,0.7,0.7c0,0.5-0.4,1.1-0.7,1.1S16.3,4,16.3,3.5C16.3,3.2,16.6,2.8,17,2.8z"/>
	<path class="st0" d="M7,5.6c1,0,1.7-1.1,1.7-2.1C8.8,2.6,8,1.8,7,1.8c-1,0-1.7,0.8-1.7,1.7C5.3,4.5,6.1,5.6,7,5.6z M7,2.8
		c0.4,0,0.7,0.3,0.7,0.7C7.8,4,7.4,4.6,7,4.6S6.3,4,6.3,3.5C6.3,3.2,6.6,2.8,7,2.8z"/>
	<path class="st0" d="M23.5,9.9h-3.1l0.4-2.3C21,6.8,20.4,6,19.6,5.9c-0.1,0-0.1,0-0.2,0h-1.1c-0.1,0-0.3,0.1-0.4,0.1
		c-0.6,0.6-1.2,0.6-1.9,0c-0.1-0.1-0.2-0.1-0.4-0.1h-1c-0.4,0-0.8,0.2-1.1,0.4c-0.3,0.3-0.4,0.7-0.4,1.1c0,0.1,0,0.1,0,0.2l0.4,2.3
		h-3.2l0.4-2.3c0.1-0.4,0-0.8-0.3-1.1C10.3,6.2,10,6,9.6,5.9c-0.1,0-0.1,0-0.2,0H8.3C8.1,5.9,8,5.9,7.9,6C7.3,6.7,6.7,6.7,6,6
		C5.9,5.9,5.8,5.9,5.7,5.9h-1c-0.8,0-1.5,0.7-1.5,1.5c0,0.1,0,0.1,0,0.2l0.4,2.3H0.5C0.2,9.9,0,10.1,0,10.4v2c0,0.3,0.2,0.5,0.5,0.5
		h1.6v9.5c0,0.3,0.2,0.5,0.5,0.5s0.5-0.2,0.5-0.5v-1.5h18v1.5c0,0.3,0.2,0.5,0.5,0.5s0.5-0.2,0.5-0.5v-9.5h1.4
		c0.3,0,0.5-0.2,0.5-0.5v-2C24,10.1,23.8,9.9,23.5,9.9z M14.3,7c0.1-0.1,0.2-0.1,0.4-0.1h0.8c0.9,0.8,2,0.8,3,0l1,0
		c0.3,0,0.5,0.3,0.4,0.5l-0.4,2.4h-4.8l-0.4-2.5C14.2,7.2,14.2,7.1,14.3,7z M4.7,6.9h0.8c0.9,0.8,2,0.8,3,0l1,0
		c0.3,0,0.5,0.3,0.4,0.5L9.4,9.9H4.6L4.2,7.4C4.2,7.1,4.4,6.9,4.7,6.9z M21.1,19.9h-18v-7h18V19.9z M23,11.9h-1.4H1v-1h3.2
		c0,0,0,0,0,0h5.6c0,0,0,0,0,0h4.3c0,0,0,0,0,0h5.6c0,0,0,0,0,0H23V11.9z"/>
</g>
</svg>
