<?xml version="1.0" encoding="utf-8"?>
<!-- Generator: Adobe Illustrator 23.0.3, SVG Export Plug-In . SVG Version: 6.00 Build 0)  -->
<svg version="1.1" id="Capa_1" xmlns="http://www.w3.org/2000/svg" xmlns:xlink="http://www.w3.org/1999/xlink" x="0px" y="0px"
	 viewBox="0 0 24 24" style="enable-background:new 0 0 24 24;" xml:space="preserve">
<style type="text/css">
	.st0{fill:#C39201;}
</style>
<g>
	<path class="st0" d="M4.7,15.9h-1c-0.3,0-0.5,0.2-0.5,0.5s0.2,0.5,0.5,0.5h1c0.3,0,0.5-0.2,0.5-0.5S5,15.9,4.7,15.9z"/>
	<path class="st0" d="M4.7,17.9h-1c-0.3,0-0.5,0.2-0.5,0.5s0.2,0.5,0.5,0.5h1c0.3,0,0.5-0.2,0.5-0.5S5,17.9,4.7,17.9z"/>
	<path class="st0" d="M8.2,12.9h-1c-0.3,0-0.5,0.2-0.5,0.5s0.2,0.5,0.5,0.5h1c0.3,0,0.5-0.2,0.5-0.5S8.5,12.9,8.2,12.9z"/>
	<path class="st0" d="M11.7,17.9h-1c-0.3,0-0.5,0.2-0.5,0.5s0.2,0.5,0.5,0.5h1c0.3,0,0.5-0.2,0.5-0.5S12,17.9,11.7,17.9z"/>
	<path class="st0" d="M8.2,10.9h-1c-0.3,0-0.5,0.2-0.5,0.5s0.2,0.5,0.5,0.5h1c0.3,0,0.5-0.2,0.5-0.5S8.5,10.9,8.2,10.9z"/>
	<path class="st0" d="M19.7,0.8c-2.7,0-4.1,9.1-4.1,11.3c0,2.9,1.6,5.3,3.6,5.6v3.4c0,0.3,0.2,0.5,0.5,0.5s0.5-0.2,0.5-0.5v-3.4
		c2-0.3,3.6-2.7,3.6-5.6C23.8,10,22.5,0.8,19.7,0.8z M20.2,16.8v-3.3c0-0.3-0.2-0.5-0.5-0.5s-0.5,0.2-0.5,0.5v3.2
		c-1.5-0.4-2.6-2.3-2.6-4.6c0-3.2,1.8-10.3,3.1-10.3s3.1,7.1,3.1,10.3C22.8,14.5,21.7,16.4,20.2,16.8z"/>
	<path class="st0" d="M11.7,15.9h-1c-0.3,0-0.5,0.2-0.5,0.5s0.2,0.5,0.5,0.5h1c0.3,0,0.5-0.2,0.5-0.5S12,15.9,11.7,15.9z"/>
	<path class="st0" d="M13.2,11V8.4c0-0.3-0.2-0.5-0.5-0.5h-2c-0.2,0-0.3,0.1-0.4,0.2L8.3,6C8.1,5.8,7.8,5.8,7.6,6l-6.2,6.1
		c0,0,0,0,0,0l-1.1,1.1c-0.2,0.2-0.2,0.5,0,0.7C0.3,14,0.5,14,0.6,14c0.1,0,0.3,0,0.3-0.1l0.3-0.3v7.8c0,0.3,0.2,0.5,0.5,0.5h5h2h5
		c0.3,0,0.5-0.2,0.5-0.5v-7.9l0.4,0.4c0.2,0.2,0.5,0.2,0.7,0c0.2-0.2,0.2-0.5,0-0.7L13.2,11z M11.2,8.9h1V10l-1-1V8.9z M7.2,20.9v-3
		h1v3H7.2z M13.2,20.9h-4v-3.5c0-0.3-0.2-0.5-0.5-0.5h-2c-0.3,0-0.5,0.2-0.5,0.5v3.5h-4v-8.2l5.7-5.6l2.4,2.5c0,0,0,0,0,0l2,2
		c0,0,0,0,0,0l0.9,0.9V20.9z"/>
</g>
</svg>
