<?xml version="1.0" encoding="utf-8"?>
<!-- Generator: Adobe Illustrator 23.0.3, SVG Export Plug-In . SVG Version: 6.00 Build 0)  -->
<svg version="1.1" id="Capa_1" xmlns="http://www.w3.org/2000/svg" xmlns:xlink="http://www.w3.org/1999/xlink" x="0px" y="0px"
	 viewBox="0 0 16 16" style="enable-background:new 0 0 16 16;" xml:space="preserve">
<style type="text/css">
	.st0{fill:#4382FF;}
</style>
<g>
	<path class="st0" d="M4.9,8.5V6.8C5.1,6.9,5.2,7,5.4,7.2C5.5,7.4,5.8,7.5,6,7.3c0.2-0.2,0.3-0.5,0.1-0.7C5.9,6.2,5.4,5.9,4.9,5.8
		V5.5C4.9,5.3,4.6,5,4.4,5S3.9,5.3,3.9,5.5v0.3C2.9,6,2.3,6.7,2.3,7.6c0,1,0.9,1.5,1.6,1.7v1.7c-0.4-0.1-0.7-0.3-1-0.5
		c-0.2-0.2-0.5-0.1-0.7,0.1C2,10.7,2,11,2.2,11.2c0.5,0.4,1.1,0.7,1.6,0.8v0.3c0,0.3,0.2,0.5,0.5,0.5s0.5-0.2,0.5-0.5V12
		c0.9-0.2,1.6-0.9,1.6-1.8C6.5,9.2,5.5,8.7,4.9,8.5z M3.9,8.2C3.3,7.9,3.3,7.7,3.3,7.6c0-0.3,0.2-0.6,0.6-0.7V8.2z M4.9,10.9V9.6
		c0.6,0.3,0.6,0.5,0.6,0.6C5.5,10.5,5.2,10.8,4.9,10.9z"/>
	<path class="st0" d="M13.9,0H3.6C2.4,0,1.5,0.9,1.5,2.1C1.2,2.2,0.9,2.3,0.6,2.6C0.2,3,0,3.5,0,4V14c0,1.1,0.9,2,2,2H12
		c0.9,0,1.7-0.6,2-1.5c1.1,0,2.1-0.9,2.1-2.1V2.1C16,0.9,15.1,0,13.9,0z M13,14c0,0.6-0.5,1-1,1H2c-0.6,0-1-0.5-1-1V4
		c0-0.3,0.1-0.5,0.3-0.7S1.8,3,2,3h0H12c0.6,0,1,0.5,1,1V14z M15,12.4c0,0.6-0.4,1-1,1.1V4c0-1.1-0.9-2-2-2H2.5C2.6,1.4,3,1,3.6,1
		h10.3C14.5,1,15,1.5,15,2.1V12.4z"/>
	<path class="st0" d="M11,5.8H8.3C8.1,5.8,7.8,6,7.8,6.3s0.2,0.5,0.5,0.5H11c0.3,0,0.5-0.2,0.5-0.5S11.3,5.8,11,5.8z"/>
	<path class="st0" d="M11,7.8H8.3C8.1,7.8,7.8,8,7.8,8.3s0.2,0.5,0.5,0.5H11c0.3,0,0.5-0.2,0.5-0.5S11.3,7.8,11,7.8z"/>
	<path class="st0" d="M11,11.8H8.3c-0.3,0-0.5,0.2-0.5,0.5s0.2,0.5,0.5,0.5H11c0.3,0,0.5-0.2,0.5-0.5S11.3,11.8,11,11.8z"/>
	<path class="st0" d="M11,9.8H8.3c-0.3,0-0.5,0.2-0.5,0.5s0.2,0.5,0.5,0.5H11c0.3,0,0.5-0.2,0.5-0.5S11.3,9.8,11,9.8z"/>
</g>
</svg>
