<?xml version="1.0" encoding="utf-8"?>
<!-- Generator: Adobe Illustrator 23.0.1, SVG Export Plug-In . SVG Version: 6.00 Build 0)  -->
<svg version="1.1" id="Capa_1" xmlns="http://www.w3.org/2000/svg" xmlns:xlink="http://www.w3.org/1999/xlink" x="0px" y="0px"
	 viewBox="0 0 24 24" style="enable-background:new 0 0 24 24;" xml:space="preserve">
<g>
	<path class="st0" d="M12,0.3C5.5,0.3,0.2,5.6,0.2,12.1c0,6.5,5.3,11.8,11.8,11.8c6.5,0,11.8-5.3,11.8-11.8
		C23.8,5.6,18.5,0.3,12,0.3z M12,22.9C6.1,22.9,1.2,18,1.2,12.1C1.2,6.1,6.1,1.3,12,1.3c5.9,0,10.8,4.8,10.8,10.8
		C22.8,18,17.9,22.9,12,22.9z"/>
	<path class="st0" d="M21.1,8c-0.3,0-0.5,0.3-0.5,0.5c0,0.4-0.4,0.9-1.3,1.4c-1.3,0.7-1.1,1.3-0.6,2.7c0.4,1.1-1.7,4.6-2.6,5.3
		c-0.1-0.3-0.2-0.9-0.2-1.4c0-2,0-4.9-2.6-5.9c-0.7-0.3-1.7-0.6-2.3-0.8c0,0-0.1,0-0.2-0.3c0-0.4,0.2-0.9,0.6-1.1
		c0.2-0.1,0.4-0.1,0.6-0.1c0.2,0,0.5,0.1,0.7-0.2c0.3-0.3,0.3-0.7,0.2-1.5c-0.1-0.6-0.3-1.1-0.6-1.4c-0.6-0.5-1.3-0.4-1.9-0.3
		c-0.2,0-0.3,0-0.4,0C8.7,5,8.5,5.9,8.1,7.7L8.1,8.1c0,0,0,0,0,0C8,8.1,8,8,8,8c-0.1-0.2-0.2-1.2-0.2-2c0-0.2-0.2-0.4-0.4-0.5
		c-0.2-0.1-0.4,0-0.5,0.2L6,7.1c0,0,0,0,0,0.1c0,0-0.2,0.4-1.2,0.7C4.7,8,4.6,8,4.6,8C4.5,7.7,4.7,6.7,5.1,5.8
		c0.1-0.3,0-0.5-0.3-0.7C4.6,5,4.3,5.1,4.2,5.4c-0.3,0.8-1,2.6-0.3,3.3c0.2,0.2,0.6,0.4,1.3,0.2c1.2-0.4,1.6-1,1.7-1.2
		C6.9,8,7,8.3,7.1,8.4c0.1,0.1,0.5,0.9,1.2,0.8c0.4-0.1,0.7-0.4,0.8-1l0.1-0.4C9.5,6.2,9.5,6,9.8,6c0.2,0,0.3,0,0.5,0
		c0.4,0,0.9-0.1,1.2,0.1c0.2,0.1,0.2,0.4,0.3,0.7c0,0.3,0,0.4,0,0.6c-0.2,0-0.5,0-0.9,0.2C10,8,9.7,9,9.7,9.7c0.1,0.6,0.4,1,1,1.1
		c0.4,0.1,1.2,0.3,2.2,0.7c1.8,0.7,2,2.7,2,5c0,0.6,0.1,2,0.8,2.4c0.1,0,0.2,0.1,0.4,0.1c0.2,0,0.3,0,0.5-0.2
		c0.9-0.6,3.7-4.7,3.1-6.5c-0.4-1.2-0.4-1.2,0.2-1.5c1.3-0.7,1.9-1.5,1.8-2.3C21.6,8.2,21.4,8,21.1,8z"/>
	<path class="st0" d="M6.5,13.4c-0.3-0.1-0.8-0.3-0.9-0.4c-0.4-0.4-0.6-0.5-0.9-0.7c-0.2-0.1-0.4-0.2-0.6-0.4
		c-0.2-0.2-0.5-0.2-0.7-0.1c-0.2,0.1-0.8,0.3-1,3.1c0,0.3,0.2,0.5,0.5,0.5c0.3,0,0.5-0.2,0.5-0.5c0.1-0.8,0.2-1.7,0.4-2.1
		C3.8,13,4,13.1,4.1,13.2c0.2,0.1,0.4,0.3,0.7,0.5c0.3,0.3,0.8,0.5,1.3,0.7c0.2,0.1,0.5,0.2,0.8,0.3l-0.1,0.1
		c-0.7,0.6-1.1,1-2.1,3.8c-0.1,0.3,0.1,0.5,0.3,0.6c0.1,0,0.1,0,0.2,0c0.2,0,0.4-0.1,0.5-0.3c0.9-2.7,1.2-2.9,1.8-3.4
		c0.1-0.1,0.2-0.1,0.3-0.2C8,15,8,14.7,8,14.5C7.9,14,7.2,13.7,6.5,13.4z"/>
</g>
</svg>
