<?xml version="1.0" encoding="utf-8"?>
<!-- Generator: Adobe Illustrator 23.0.1, SVG Export Plug-In . SVG Version: 6.00 Build 0)  -->
<svg version="1.1" id="Capa_1" xmlns="http://www.w3.org/2000/svg" xmlns:xlink="http://www.w3.org/1999/xlink" x="0px" y="0px"
	 viewBox="0 0 24 24" style="enable-background:new 0 0 24 24;" xml:space="preserve">
<g>
	<path class="st0" d="M7.6,19.8c-0.3-0.1-0.5,0.1-0.6,0.4l-0.7,3c-0.1,0.3,0.1,0.5,0.4,0.6c0,0,0.1,0,0.1,0c0.2,0,0.4-0.2,0.5-0.4
		l0.7-3C8.1,20.1,7.9,19.8,7.6,19.8z"/>
	<path class="st0" d="M16.9,20.1c-0.1-0.3-0.3-0.4-0.6-0.4c-0.3,0.1-0.4,0.3-0.4,0.6l0.7,3c0.1,0.2,0.3,0.4,0.5,0.4c0,0,0.1,0,0.1,0
		c0.3-0.1,0.4-0.3,0.4-0.6L16.9,20.1z"/>
	<path class="st0" d="M23.5,1.8H16v-1c0-0.3-0.2-0.5-0.5-0.5c-0.3,0-0.5,0.2-0.5,0.5v1H9v-1c0-0.3-0.2-0.5-0.5-0.5
		C8.2,0.3,8,0.5,8,0.8v1H0.5C0.2,1.8,0,2,0,2.3v16c0,0.3,0.2,0.5,0.5,0.5h23c0.3,0,0.5-0.2,0.5-0.5v-16C24,2,23.7,1.8,23.5,1.8z
		 M23,17.8H1v-15h22V17.8z"/>
	<path class="st0" d="M11.9,9c-0.1,0-0.2,0-2.8,1.3l0.6-2.7c0-0.2,0-0.4-0.2-0.6C9.3,6.8,8.9,6.7,8.4,6.7c-1.6,0-4.1,1.2-4.5,4
		c-0.2,1.3,0.2,2.6,1.1,3.5c0.9,1,2.1,1.5,3.4,1.5c1.5,0,2.9-0.7,3.7-2c0.8-1.2,1-2.8,0.5-4.2C12.5,9.2,12.2,9,11.9,9z M11.3,13.2
		c-0.7,1-1.7,1.5-2.9,1.5c-1,0-2-0.4-2.6-1.2c-0.7-0.8-1-1.8-0.9-2.8c0.3-2.4,2.5-3.1,3.5-3.1c0.1,0,0.2,0,0.2,0l-0.8,3.5
		c0,0.2,0,0.4,0.2,0.5c0.2,0.1,0.4,0.1,0.5,0.1c1-0.5,2.6-1.3,3.2-1.6C12.1,11.2,12,12.3,11.3,13.2z"/>
	<path class="st0" d="M10.9,5.2c-0.5,0-0.7,0.3-0.7,0.6l0,0.1c-0.4,2.9-0.3,2.9-0.1,3.1c0.1,0.1,0.2,0.1,0.3,0.1
		c0,0,2.9-0.9,3.1-1.4c0.1-0.2,0.1-0.3,0-0.5C13,6,11.7,5.2,10.9,5.2z M10.9,8c0-0.3,0.1-0.9,0.2-1.7c0.4,0.1,1,0.5,1.4,1.1
		C12.1,7.5,11.4,7.8,10.9,8z"/>
	<path class="st0" d="M19.4,12.8h-4c-0.3,0-0.5,0.2-0.5,0.5c0,0.3,0.2,0.5,0.5,0.5h4c0.3,0,0.5-0.2,0.5-0.5
		C19.9,13,19.7,12.8,19.4,12.8z"/>
	<path class="st0" d="M19.4,9.8h-4c-0.3,0-0.5,0.2-0.5,0.5c0,0.3,0.2,0.5,0.5,0.5h4c0.3,0,0.5-0.2,0.5-0.5
		C19.9,10,19.7,9.8,19.4,9.8z"/>
	<path class="st0" d="M15,7.3c0,0.3,0.2,0.5,0.5,0.5h4c0.3,0,0.5-0.2,0.5-0.5c0-0.3-0.2-0.5-0.5-0.5h-4C15.2,6.8,15,7,15,7.3z"/>
</g>
</svg>
