<?xml version="1.0" encoding="utf-8"?>
<!-- Generator: Adobe Illustrator 23.0.1, SVG Export Plug-In . SVG Version: 6.00 Build 0)  -->
<svg version="1.1" id="Capa_1" xmlns="http://www.w3.org/2000/svg" xmlns:xlink="http://www.w3.org/1999/xlink" x="0px" y="0px"
	 viewBox="0 0 24 24" style="enable-background:new 0 0 24 24;" xml:space="preserve">
<g>
	<path class="st0" d="M17.6,3.6c-0.5-0.3-1.1-0.1-1.4,0.4s-0.1,1.1,0.4,1.4C19.3,7,21,9.8,21,12.9c0,4.8-4,8.7-9,8.7s-9-3.9-9-8.7
		c0-3,1.7-5.9,4.4-7.5C7.9,5.1,8.1,4.5,7.8,4S6.9,3.4,6.4,3.6C3.1,5.5,1,9.1,1,12.8c0,5.9,4.9,10.7,11,10.7s11-4.8,11-10.7
		C23,9.1,20.9,5.5,17.6,3.6z"/>
	<path class="st0" d="M12,11.5c0.6,0,1-0.4,1-1v-9c0-0.6-0.4-1-1-1s-1,0.4-1,1v9C11,11.1,11.4,11.5,12,11.5z"/>
</g>
</svg>
