<svg xmlns="http://www.w3.org/2000/svg" width="128" height="128" viewBox="0 0 128 128">
    <g fill="none" fill-rule="evenodd">
        <path d="M0 0h128v128H0z"/>
        <path fill="#464C51" fill-rule="nonzero" stroke="#273545" stroke-width="2" d="M33.748 69.268H23.617C17.762 69.268 13 64.506 13 58.652v-19.75c0-1.02.827-1.846 1.846-1.846h9.45a1.845 1.845 0 1 1 0 3.691h-7.605v17.905a6.932 6.932 0 0 0 6.926 6.925h10.13a1.846 1.846 0 0 1 0 3.69z"/>
        <path fill="#D9D7D8" fill-rule="nonzero" stroke="#273545" stroke-width="2" d="M42.666 67.422h63.29v22.522h-63.29z"/>
        <path fill="#273545" d="M42.666 67.422h15.068v22.522H42.666z" opacity=".2"/>
        <path fill="#768C9C" fill-rule="nonzero" stroke="#273545" stroke-width="2" d="M105.956 67.422h-63.29L47.319 6.47A5.921 5.921 0 0 1 53.223 1H95.4a5.921 5.921 0 0 1 5.903 5.47l4.653 60.952z"/>
        <path fill="#273545" d="M60.828 1h-7.605a5.921 5.921 0 0 0-5.904 5.47l-4.653 60.952h7.606L54.924 6.47A5.921 5.921 0 0 1 60.828 1z" opacity=".2"/>
        <path fill="#768C9C" fill-rule="nonzero" stroke="#273545" stroke-width="2" d="M46.774 127h-4.602a3.354 3.354 0 0 1-3.354-3.354V67.803h11.31v55.843A3.354 3.354 0 0 1 46.774 127z"/>
        <path fill="#273545" d="M43.889 123.646V67.803h-5.071v55.843A3.354 3.354 0 0 0 42.172 127h4.602c.08 0 .157-.007.234-.012a3.352 3.352 0 0 1-3.12-3.342z" opacity=".2"/>
        <path fill="#768C9C" fill-rule="nonzero" stroke="#273545" stroke-width="2" d="M106.45 127h-4.602a3.354 3.354 0 0 1-3.354-3.354V67.803h11.31v55.843A3.354 3.354 0 0 1 106.45 127z"/>
        <path fill="#273545" d="M103.564 123.646V67.803h-5.07v55.843a3.354 3.354 0 0 0 3.354 3.354h4.602c.08 0 .157-.007.234-.012a3.352 3.352 0 0 1-3.12-3.342z" opacity=".2"/>
        <path fill="#EFEDEE" fill-rule="nonzero" stroke="#273545" stroke-width="2" d="M74.945 45.873H21.817a6.972 6.972 0 0 1 0-13.943h53.128a6.972 6.972 0 0 1 0 13.943z"/>
        <path fill="#273545" d="M22.452 38.901a6.971 6.971 0 0 1 6.97-6.971h-7.605a6.971 6.971 0 1 0 0 13.943h7.606a6.972 6.972 0 0 1-6.971-6.972z" opacity=".2"/>
        <path fill="#EFEDEE" fill-rule="nonzero" stroke="#273545" stroke-width="2" d="M107.903 74.394H40.719a6.971 6.971 0 1 1 0-13.943h67.185a6.972 6.972 0 1 1-.001 13.943z"/>
        <path fill="#273545" d="M41.354 67.422a6.972 6.972 0 0 1 6.971-6.971h-7.606a6.972 6.972 0 0 0 0 13.943h7.606a6.971 6.971 0 0 1-6.971-6.972z" opacity=".2"/>
    </g>
</svg>
