<svg xmlns="http://www.w3.org/2000/svg" width="128" height="128" viewBox="0 0 128 128">
    <g fill="none" fill-rule="evenodd">
        <path d="M0 0h128v128H0z"/>
        <path fill="#FF004D" fill-rule="nonzero" stroke="#273545" stroke-width="2" d="M90.923 68.344H37.077a4.577 4.577 0 0 1-4.577-4.577V43.249a4.577 4.577 0 0 1 4.577-4.577h53.846a4.577 4.577 0 0 1 4.577 4.577v20.518a4.577 4.577 0 0 1-4.577 4.577z"/>
        <path fill="#273545" d="M91.155 38.678c.003.054.004.107.004.161v20.538a4.784 4.784 0 0 1-4.784 4.784H32.516a4.578 4.578 0 0 0 4.56 4.183h53.847a4.577 4.577 0 0 0 4.577-4.577V43.249c0-2.45-1.925-4.45-4.345-4.571z" opacity=".2"/>
        <path fill="#D40B4B" fill-rule="nonzero" stroke="#273545" stroke-width="2" d="M56.014 38.672H44.352V32.94A2.94 2.94 0 0 1 47.292 30h5.782a2.94 2.94 0 0 1 2.94 2.94v5.732zM83.648 38.672H71.986V32.94A2.94 2.94 0 0 1 74.926 30h5.781a2.94 2.94 0 0 1 2.94 2.94v5.732h.001z"/>
        <path fill="#51DA14" fill-rule="nonzero" stroke="#273545" stroke-width="2" d="M59.423 98.053H5.577A4.576 4.576 0 0 1 1 93.477v-20.52a4.576 4.576 0 0 1 4.577-4.575h53.846A4.576 4.576 0 0 1 64 72.958v20.519a4.576 4.576 0 0 1-4.577 4.576z"/>
        <path fill="#273545" d="M59.715 68.39v20.425a4.767 4.767 0 0 1-4.766 4.768H1.001a4.577 4.577 0 0 0 4.576 4.47h53.846A4.576 4.576 0 0 0 64 93.477v-20.52a4.577 4.577 0 0 0-4.285-4.566z" opacity=".2"/>
        <path fill="#48B91E" fill-rule="nonzero" stroke="#273545" stroke-width="2" d="M24.514 68.382H12.852V62.65a2.94 2.94 0 0 1 2.94-2.94h5.782a2.94 2.94 0 0 1 2.94 2.94v5.732z"/>
        <path fill="#4382FF" fill-rule="nonzero" stroke="#273545" stroke-width="2" d="M122.423 98.053H68.577A4.576 4.576 0 0 1 64 93.477v-20.52a4.576 4.576 0 0 1 4.577-4.575h53.846A4.576 4.576 0 0 1 127 72.958v20.519a4.576 4.576 0 0 1-4.577 4.576z"/>
        <path fill="#273545" d="M122.545 68.383v20.336a4.75 4.75 0 0 1-4.75 4.751H64v.007a4.576 4.576 0 0 0 4.577 4.576h53.846A4.576 4.576 0 0 0 127 93.477v-20.52a4.577 4.577 0 0 0-4.455-4.574z" opacity=".2"/>
        <path fill="#3D73DA" fill-rule="nonzero" stroke="#273545" stroke-width="2" d="M115.148 68.382h-11.662V62.65a2.94 2.94 0 0 1 2.94-2.94h5.781a2.94 2.94 0 0 1 2.94 2.94v5.732h.001z"/>
    </g>
</svg>
