<?xml version="1.0" encoding="utf-8"?>
<!-- Generator: Adobe Illustrator 23.0.2, SVG Export Plug-In . SVG Version: 6.00 Build 0)  -->
<svg version="1.1" id="Capa_1" xmlns="http://www.w3.org/2000/svg" xmlns:xlink="http://www.w3.org/1999/xlink" x="0px" y="0px"
	 viewBox="0 0 24 24" style="enable-background:new 0 0 24 24;" xml:space="preserve">
<style type="text/css">
	.st0{fill:#9B9B9C;}
</style>
<g>
	<path class="st0" d="M1.3,4.9l2.6-2.7V23c0,0.3,0.3,0.6,0.6,0.6c0.3,0,0.6-0.3,0.6-0.6V2.3l2.5,2.6c0.2,0.2,0.6,0.2,0.8,0
		s0.2-0.6,0-0.8L4.9,0.4l0,0C4.8,0.3,4.8,0.3,4.7,0.3s-0.1,0-0.2,0s-0.2,0-0.2,0c-0.1,0-0.1,0.1-0.2,0.1l0,0L0.5,4
		c-0.2,0.2-0.2,0.6,0,0.8C0.7,5.1,1.1,5.1,1.3,4.9z"/>
	<path class="st0" d="M9.1,10.3h14c0.3,0,0.6-0.3,0.6-0.6s-0.3-0.6-0.6-0.6h-14c-0.3,0-0.6,0.3-0.6,0.6S8.8,10.3,9.1,10.3z"/>
	<path class="st0" d="M23.1,12.6h-14c-0.3,0-0.6,0.3-0.6,0.6s0.3,0.6,0.6,0.6h14c0.3,0,0.6-0.3,0.6-0.6S23.5,12.6,23.1,12.6z"/>
	<path class="st0" d="M23.1,16.2h-14c-0.3,0-0.6,0.3-0.6,0.6c0,0.3,0.3,0.6,0.6,0.6h14c0.3,0,0.6-0.3,0.6-0.6
		C23.7,16.4,23.5,16.2,23.1,16.2z"/>
	<path class="st0" d="M16.1,19.7h-7c-0.3,0-0.6,0.3-0.6,0.6c0,0.3,0.3,0.6,0.6,0.6h7c0.3,0,0.6-0.3,0.6-0.6
		C16.7,20,16.5,19.7,16.1,19.7z"/>
</g>
</svg>
