<?xml version="1.0" encoding="utf-8"?>
<!-- Generator: Adobe Illustrator 23.0.2, SVG Export Plug-In . SVG Version: 6.00 Build 0)  -->
<svg version="1.1" id="Capa_1" xmlns="http://www.w3.org/2000/svg" xmlns:xlink="http://www.w3.org/1999/xlink" x="0px" y="0px"
	 viewBox="0 0 24 24" style="enable-background:new 0 0 24 24;" xml:space="preserve">
<style type="text/css">
	.st0{fill:#9B9B9C;}
</style>
<g>
	<path class="st0" d="M7.6,19L5,21.7V0.9c0-0.3-0.3-0.6-0.6-0.6c-0.3,0-0.6,0.3-0.6,0.6v20.7L1.3,19c-0.2-0.2-0.6-0.2-0.8,0
		c-0.2,0.2-0.2,0.6,0,0.8L4,23.5l0,0c0.1,0.1,0.1,0.1,0.2,0.1c0.1,0,0.1,0,0.2,0c0.1,0,0.2,0,0.2,0c0.1,0,0.1-0.1,0.2-0.1
		c0,0,0,0,0,0l3.6-3.6c0.2-0.2,0.2-0.6,0-0.8C8.2,18.8,7.8,18.8,7.6,19z"/>
	<path class="st0" d="M9.1,5h14c0.3,0,0.6-0.3,0.6-0.6s-0.3-0.6-0.6-0.6h-14c-0.3,0-0.6,0.3-0.6,0.6S8.8,5,9.1,5z"/>
	<path class="st0" d="M23.1,7.3h-14c-0.3,0-0.6,0.3-0.6,0.6c0,0.3,0.3,0.6,0.6,0.6h14c0.3,0,0.6-0.3,0.6-0.6
		C23.7,7.6,23.5,7.3,23.1,7.3z"/>
	<path class="st0" d="M23.1,10.9h-14c-0.3,0-0.6,0.3-0.6,0.6c0,0.3,0.3,0.6,0.6,0.6h14c0.3,0,0.6-0.3,0.6-0.6
		C23.7,11.1,23.5,10.9,23.1,10.9z"/>
	<path class="st0" d="M16.1,14.4h-7c-0.3,0-0.6,0.3-0.6,0.6s0.3,0.6,0.6,0.6h7c0.3,0,0.6-0.3,0.6-0.6S16.5,14.4,16.1,14.4z"/>
</g>
</svg>
