<?xml version="1.0" encoding="utf-8"?>
<!-- Generator: Adobe Illustrator 23.0.2, SVG Export Plug-In . SVG Version: 6.00 Build 0)  -->
<svg version="1.1" id="Capa_1" xmlns="http://www.w3.org/2000/svg" xmlns:xlink="http://www.w3.org/1999/xlink" x="0px" y="0px"
	 viewBox="0 0 24 24" style="enable-background:new 0 0 24 24;" xml:space="preserve">
<style type="text/css">
	.st0{fill:#647177;}
</style>
<g>
	<path class="st0" d="M21.4,16.6c-0.2-0.2-0.5-0.2-0.7,0l-3.1,3.1V3c0-0.3-0.2-0.5-0.5-0.5S16.5,2.7,16.5,3v16.8l-3.1-3.1
		c-0.2-0.2-0.5-0.2-0.7,0s-0.2,0.5,0,0.7l4,4c0,0,0,0,0,0c0,0,0,0,0,0c0,0,0,0,0,0c0,0,0.1,0.1,0.2,0.1c0.1,0,0.1,0,0.2,0
		c0,0,0,0,0,0c0,0,0,0,0,0c0,0,0,0,0,0s0,0,0,0c0,0,0,0,0,0c0,0,0,0,0,0c0.1,0,0.1,0,0.2,0c0.1,0,0.1-0.1,0.2-0.1c0,0,0,0,0,0
		c0,0,0,0,0,0c0,0,0,0,0,0l4-4C21.5,17.2,21.5,16.8,21.4,16.6z"/>
	<path class="st0" d="M7.4,2.6C7.4,2.6,7.3,2.6,7.4,2.6C7.3,2.6,7.3,2.6,7.4,2.6C7.3,2.6,7.2,2.6,7.2,2.5c-0.1,0-0.1,0-0.2,0
		c0,0,0,0,0,0c0,0,0,0,0,0h0c0,0,0,0,0,0h0c0,0,0,0,0,0c0,0,0,0,0,0c-0.1,0-0.1,0-0.2,0c-0.1,0-0.1,0.1-0.2,0.1c0,0,0,0,0,0
		c0,0,0,0,0,0l-4,4c-0.2,0.2-0.2,0.5,0,0.7s0.5,0.2,0.7,0l3.1-3.1V21c0,0.3,0.2,0.5,0.5,0.5s0.5-0.2,0.5-0.5V4.2l3.1,3.1
		c0.2,0.2,0.5,0.2,0.7,0s0.2-0.5,0-0.7L7.4,2.6z"/>
</g>
</svg>
