<svg xmlns="http://www.w3.org/2000/svg" width="128" height="128" viewBox="0 0 128 128">
    <g fill="none" fill-rule="evenodd">
        <path d="M0 0h128v128H0z"/>
        <path fill="#CC9F56" fill-rule="nonzero" stroke="#273545" stroke-width="2" d="M77.999 107.442c0 1.868-.765 3.57-1.998 4.803a6.778 6.778 0 0 1-4.804 1.999H18.94c-3.742 0-6.801-3.063-6.801-6.802 0-1.872.765-3.57 1.998-4.803a6.772 6.772 0 0 1 4.803-2h52.256c3.664 0 6.68 2.938 6.797 6.579.005.073.005.148.005.224z"/>
        <path fill="#EDC472" fill-rule="nonzero" stroke="#273545" stroke-width="2" d="M95.676 93.83c0 1.87-.765 3.57-2 4.804a6.778 6.778 0 0 1-4.803 1.998H36.62c-3.741 0-6.802-3.063-6.802-6.802 0-1.871.765-3.573 1.998-4.804a6.776 6.776 0 0 1 4.804-1.998h52.253c3.667 0 6.68 2.938 6.798 6.578.005.073.005.148.005.224z"/>
        <path fill="#CC9F56" fill-rule="nonzero" stroke="#273545" stroke-width="2" d="M83.62 80.218c0 1.868-.766 3.57-1.999 4.804a6.776 6.776 0 0 1-4.803 1.998H24.562c-3.74 0-6.802-3.063-6.802-6.802 0-1.87.765-3.57 1.998-4.803a6.778 6.778 0 0 1 4.804-2h52.256c3.666 0 6.68 2.938 6.796 6.579.005.073.005.149.005.224z"/>
        <path fill="#EDC472" fill-rule="nonzero" stroke="#273545" stroke-width="2" d="M72.98 66.63c0 1.868-.765 3.57-2 4.8a6.78 6.78 0 0 1-4.802 1.999H13.925c-3.742 0-6.803-3.06-6.803-6.8 0-1.87.766-3.57 1.998-4.803a6.773 6.773 0 0 1 4.805-1.999h52.253c3.666 0 6.68 2.938 6.797 6.579.005.073.005.148.005.224z"/>
        <path fill="#CC9F56" fill-rule="nonzero" stroke="#273545" stroke-width="2" d="M71.169 53.023c0 1.87-.765 3.572-1.998 4.803a6.784 6.784 0 0 1-4.805 2H12.11c-3.742 0-6.802-3.06-6.802-6.803 0-1.87.765-3.572 2-4.803a6.776 6.776 0 0 1 4.802-2h52.256c3.664 0 6.68 2.939 6.798 6.58.005.072.005.148.005.223z"/>
        <path fill="#EDC472" fill-rule="nonzero" stroke="#273545" stroke-width="2" d="M91.968 39.412c0 1.87-.765 3.57-2 4.803a6.776 6.776 0 0 1-4.802 1.998H32.912c-3.742 0-6.802-3.06-6.802-6.801 0-1.869.766-3.57 1.998-4.805a6.781 6.781 0 0 1 4.804-1.998h52.254c3.666 0 6.68 2.941 6.796 6.579.006.075.006.148.006.224z"/>
        <path fill="#CC9F56" fill-rule="nonzero" stroke="#273545" stroke-width="2" d="M84.595 25.8a6.776 6.776 0 0 1-1.998 4.803 6.781 6.781 0 0 1-4.803 1.998H25.537c-3.739 0-6.801-3.06-6.801-6.802 0-1.87.765-3.57 1.998-4.803a6.786 6.786 0 0 1 4.803-1.998h52.257c3.666 0 6.679 2.94 6.796 6.577.005.074.005.149.005.224z"/>
        <path fill="#DBAD5C" fill-rule="nonzero" d="M77.994 108.218H27.528c-3.667 0-6.68-2.94-6.797-6.578h50.466c3.664 0 6.68 2.937 6.797 6.578z"/>
        <path fill="#FFDE91" fill-rule="nonzero" d="M95.67 94.606H45.206c-3.664 0-6.68-2.937-6.797-6.578h50.465c3.667 0 6.68 2.938 6.798 6.578z"/>
        <path fill="#DBAD5C" fill-rule="nonzero" d="M83.614 80.994H33.15c-3.664 0-6.68-2.938-6.797-6.578h50.466c3.666 0 6.68 2.937 6.796 6.578z"/>
        <path fill="#FFDE91" fill-rule="nonzero" d="M72.975 67.406H22.509c-3.665 0-6.68-2.94-6.797-6.579h50.466c3.666 0 6.68 2.938 6.797 6.579z"/>
        <path fill="#DBAD5C" fill-rule="nonzero" d="M71.164 53.8H20.698c-3.667 0-6.68-2.939-6.797-6.58h50.465c3.664 0 6.68 2.939 6.798 6.58z"/>
        <path fill="#FFDE91" fill-rule="nonzero" d="M92.7 40.6H41.584c-3.711 0-6.765-3.126-6.884-7h51.116c3.714 0 6.766 3.13 6.884 7z"/>
        <path fill="#DBAD5C" fill-rule="nonzero" d="M75.328 26H33.025c-3.07 0-5.6-2.68-5.697-6h42.303c3.073 0 5.599 2.682 5.697 6z"/>
        <path fill="#EDC472" fill-rule="nonzero" stroke="#273545" stroke-width="2" d="M114.307 107.442a6.78 6.78 0 0 1-1.999 4.803 6.78 6.78 0 0 1-4.803 1.999H55.249c-3.742 0-6.802-3.063-6.802-6.802 0-1.872.765-3.57 1.998-4.803a6.778 6.778 0 0 1 4.804-2h52.256c3.659 0 6.669 2.93 6.796 6.56.003.081.006.161.006.243z"/>
        <path fill="#FFE89C" fill-rule="nonzero" stroke="#273545" stroke-width="2" d="M123.894 93.83c0 1.87-.765 3.57-2 4.804a6.78 6.78 0 0 1-4.803 1.998H64.835c-3.74 0-6.802-3.063-6.802-6.802 0-1.871.765-3.573 1.998-4.804a6.787 6.787 0 0 1 4.804-1.998h52.256c3.661 0 6.669 2.93 6.797 6.56.003.08.006.161.006.242z"/>
        <path fill="#EDC472" fill-rule="nonzero" stroke="#273545" stroke-width="2" d="M114.307 80.218c0 1.868-.765 3.57-1.999 4.804a6.783 6.783 0 0 1-4.803 1.998H55.249c-3.742 0-6.802-3.063-6.802-6.802 0-1.87.765-3.57 1.998-4.803a6.778 6.778 0 0 1 4.804-2h52.256c3.659 0 6.669 2.931 6.796 6.56.003.081.006.163.006.243z"/>
        <path fill="#FFDE91" fill-rule="nonzero" d="M113.247 80.976H63.252c-3.613 0-6.582-2.93-6.708-6.56h50.293c4.163 0 6.264 2.332 6.41 6.56z"/>
        <path fill="#FFE89C" fill-rule="nonzero" stroke="#273545" stroke-width="2" d="M107.76 62.55a36.5 36.5 0 0 1-21.767 11.491c-10.51 1.51-21.587-1.538-30.018-9.276C41.062 51.075 40.073 27.89 53.76 12.98 62.264 3.719 74.429-.172 86.001 1.489a36.472 36.472 0 0 1 19.544 9.276c14.91 13.69 15.902 36.876 2.215 51.785z"/>
        <path fill="#FCF2B6" fill-rule="nonzero" d="M106.78 61.678c-5.68 6.252-13.073 9.967-20.787 11.087-6.74-.976-13.27-3.946-18.664-8.95-14.242-13.208-15.189-35.578-2.115-49.963C70.894 7.6 78.287 3.885 86 2.765c6.74.977 13.27 3.947 18.664 8.95 14.24 13.208 15.186 35.578 2.115 49.963z"/>
        <path fill="#DBAD5C" fill-rule="nonzero" d="M106.768 41.548c-1.67 11.491-10.585 20.178-21.44 22.096a26.05 26.05 0 0 1-8.336.124 26.342 26.342 0 0 1-17.934-11.205 26.21 26.21 0 0 1-4.288-18.571c1.01-6.945 4.663-13.081 10.286-17.278 5.626-4.198 12.547-5.95 19.493-4.942a26.364 26.364 0 0 1 17.934 11.205 26.195 26.195 0 0 1 4.285 18.571z"/>
        <path fill="#EDC472" fill-rule="nonzero" d="M106.768 41.548c-1.67 11.491-10.585 20.178-21.44 22.096a26.34 26.34 0 0 1-17.162-11.08 26.21 26.21 0 0 1-4.288-18.572c1.01-6.945 4.662-13.081 10.286-17.278a26.197 26.197 0 0 1 11.124-4.824 26.364 26.364 0 0 1 17.195 11.087 26.195 26.195 0 0 1 4.285 18.571z"/>
        <path fill="#FFDE91" fill-rule="nonzero" d="M113.301 108.2h-49.96c-3.661 0-6.67-2.93-6.797-6.56h50.961c3.659 0 5.669 2.93 5.796 6.56z"/>
        <path fill="#FCF2B6" fill-rule="nonzero" d="M123.888 94.587h-50.96c-3.662 0-6.67-2.93-6.797-6.559h50.96c3.661 0 5.669 2.93 5.797 6.56h1z"/>
        <path fill="#273545" d="M80.111 49.892c-3.105 0-4.505-1.375-5.527-2.378-.565-.555-1.012-.994-1.59-.994-1.04 0-1.93 1.267-1.93 2.305 0 1.843 3.033 4.541 7.743 5.02v4.047a1.952 1.952 0 0 0 3.904 0v-4.187c4.474-.827 7.072-4.03 7.072-8.918 0-11.52-13.694-8.131-13.694-14.693 0-3.255 2.867-3.937 5.27-3.937 2.298 0 3.549.644 4.461 1.114.506.261.906.467 1.326.467 1.24 0 1.888-1.501 1.888-2.305 0-1.961-3.465-2.866-6.323-3.084v-4.711a1.951 1.951 0 0 0-3.904 0v4.88l.001.008c-2.989.543-6.996 2.313-6.996 7.902 0 10.383 13.695 6.738 13.695 14.692 0 3.077-1.917 4.772-5.396 4.772z"/>
        <path fill="#EDC472" fill-rule="nonzero" stroke="#273545" stroke-width="2" d="M68.882 120.045c0 1.872-.766 3.57-2 4.804a6.774 6.774 0 0 1-4.803 1.998H9.826c-3.742 0-6.802-3.06-6.802-6.802 0-1.87.765-3.57 1.998-4.803a6.782 6.782 0 0 1 4.804-1.998H62.08c3.667 0 6.68 2.938 6.798 6.578.005.073.005.148.005.223z"/>
        <path fill="#FFDE91" fill-rule="nonzero" d="M68.877 120.822H18.41c-3.664 0-6.68-2.938-6.798-6.578H62.08c3.667 0 6.68 2.938 6.798 6.578z"/>
        <path fill="#FFE89C" fill-rule="nonzero" stroke="#273545" stroke-width="2" d="M122.298 120.045c0 1.872-.765 3.57-1.999 4.804a6.774 6.774 0 0 1-4.803 1.998H63.24c-3.739 0-6.8-3.06-6.8-6.802 0-1.87.766-3.57 1.999-4.803a6.771 6.771 0 0 1 4.801-1.998h52.256c3.662 0 6.67 2.93 6.797 6.56.002.08.005.16.005.241z"/>
        <path fill="#FCF2B6" fill-rule="nonzero" d="M71.332 120.803c-3.658 0-6.668-2.93-6.796-6.559h50.96c3.662 0 5.67 2.93 5.797 6.56h-49.96z"/>
    </g>
</svg>
