<?xml version="1.0" encoding="utf-8"?>
<!-- Generator: Adobe Illustrator 23.0.2, SVG Export Plug-In . SVG Version: 6.00 Build 0)  -->
<svg version="1.1" id="Capa_1" xmlns="http://www.w3.org/2000/svg" xmlns:xlink="http://www.w3.org/1999/xlink" x="0px" y="0px"
	 viewBox="0 0 16 16" style="enable-background:new 0 0 16 16;" xml:space="preserve">
<style type="text/css">
	.st0{fill:#647177;}
</style>
<g>
	<path class="st0" d="M7,2.8C6.8,2.8,6.5,3,6.5,3.3v5.2c0,0.2,0.1,0.3,0.2,0.4l2.6,2C9.4,11,9.5,11,9.6,11c0.1,0,0.3-0.1,0.4-0.2
		c0.2-0.2,0.1-0.5-0.1-0.7L7.5,8.2v-5C7.5,3,7.3,2.8,7,2.8z"/>
	<path class="st0" d="M12.8,4.5c0.1,0,0.2,0,0.3-0.1c0.2-0.2,0.3-0.5,0.1-0.7c0,0-0.1-0.1-0.1-0.1c-0.2-0.2-0.5-0.2-0.7-0.1
		c-0.2,0.2-0.2,0.5-0.1,0.7C12.5,4.4,12.6,4.5,12.8,4.5z"/>
	<path class="st0" d="M13.3,5.9c0.1,0.2,0.3,0.3,0.5,0.3c0.1,0,0.1,0,0.2,0c0.3-0.1,0.4-0.4,0.3-0.6c0,0,0-0.1,0-0.1
		c-0.1-0.3-0.4-0.3-0.6-0.2C13.3,5.3,13.2,5.6,13.3,5.9z"/>
	<path class="st0" d="M9.4,2.1c0.1,0,0.1,0,0.2,0C9.8,2.2,10,2,10,1.8c0.1-0.3-0.1-0.5-0.3-0.6l-0.1,0C9.4,1.1,9.1,1.2,9,1.5
		C9,1.7,9.2,2,9.4,2.1z"/>
	<path class="st0" d="M11.3,3.1c0.2,0,0.3-0.1,0.4-0.2c0.2-0.2,0.1-0.5-0.1-0.7l-0.1-0.1C11.3,1.9,11,2,10.9,2.2
		C10.7,2.5,10.8,2.8,11,3C11.1,3,11.2,3.1,11.3,3.1z"/>
	<path class="st0" d="M15.8,8.7l-1.3-1.3c0,0,0,0,0,0c0,0,0,0-0.1,0c0,0-0.1,0-0.1-0.1c0,0-0.1,0-0.1,0c0,0-0.1,0-0.1,0c0,0,0,0,0,0
		c0,0,0,0-0.1,0c0,0-0.1,0-0.1,0c0,0-0.1,0-0.1,0.1c0,0,0,0,0,0l0,0c0,0,0,0,0,0l-1.4,1.2c-0.2,0.2-0.2,0.5-0.1,0.7
		c0.1,0.1,0.2,0.2,0.4,0.2c0.1,0,0.2,0,0.3-0.1l0.6-0.5c-0.2,1.3-0.7,2.5-1.6,3.4c-1.1,1.2-2.7,2-4.4,2.1c-1.7,0.1-3.3-0.5-4.5-1.6
		c-1.2-1.1-2-2.7-2.1-4.4C0.9,5,3.6,2,7.1,1.8c0.1,0,0.2,0,0.3,0c0,0,0.1,0,0.1,0c0,0,0,0,0,0c0,0,0,0,0,0c0,0,0,0,0,0
		c0.3,0,0.5-0.2,0.5-0.5c0-0.3-0.2-0.5-0.5-0.5c0,0-0.1,0-0.1,0c0,0,0,0,0,0c-0.2,0-0.3,0-0.5,0C3,1-0.1,4.4,0.1,8.5
		c0.1,1.9,0.9,3.7,2.4,5.1c1.4,1.2,3.1,1.9,4.9,1.9c0.1,0,0.2,0,0.4,0c1.9-0.1,3.7-0.9,5.1-2.4c1-1.1,1.7-2.6,1.8-4.1l0.5,0.5
		c0.2,0.2,0.5,0.2,0.7,0S16,8.9,15.8,8.7z"/>
</g>
</svg>
