<svg xmlns="http://www.w3.org/2000/svg" width="128" height="128" viewBox="0 0 128 128">
    <g fill="none" fill-rule="evenodd">
        <path d="M0 0h128v128H0z"/>
        <path fill="#F5F6FA" fill-rule="nonzero" stroke="#273545" stroke-width="2" d="M92.454 113.98H18.583a4.345 4.345 0 0 1-4.345-4.346V5.345c0-2.4 1.945-4.345 4.345-4.345h56.49L96.8 22.727v86.907c0 2.4-1.946 4.345-4.346 4.345z"/>
        <path fill="#273545" d="M59.864 53.144c-6 0-10.863 4.864-10.863 10.864v49.971h43.453c2.4 0 4.346-1.945 4.346-4.345v-56.49H59.864z" opacity=".2"/>
        <path fill="#E8E9ED" fill-rule="nonzero" stroke="#273545" stroke-linecap="round" stroke-linejoin="round" stroke-width="2" d="M75.073 1v15.209c0 3.6 2.918 6.518 6.518 6.518H96.8L75.073 1z"/>
        <path fill="#51DA14" fill-rule="nonzero" d="M33.792 23.38v-6.793c1.334.487 2.173 1.372 2.173 2.202a2.171 2.171 0 1 0 4.346 0c0-3.28-2.737-5.937-6.519-6.69v-.236c0-1.2-.972-2.173-2.173-2.173-1.2 0-2.173.972-2.173 2.173v.235c-3.782.754-6.518 3.412-6.518 6.69 0 4.585 3.604 6.517 6.518 7.631v6.793c-1.334-.488-2.172-1.372-2.172-2.202 0-1.2-.972-2.173-2.173-2.173a2.171 2.171 0 0 0-2.173 2.173c0 3.279 2.736 5.936 6.518 6.69v.235c0 1.201.972 2.173 2.173 2.173 1.2 0 2.173-.972 2.173-2.173V37.7c3.782-.754 6.518-3.411 6.518-6.69 0-4.585-3.604-6.516-6.518-7.63zm-6.518-4.591c0-.83.838-1.715 2.172-2.202v5.07c-1.775-.92-2.172-1.736-2.172-2.868zm6.518 14.422v-5.069c1.775.918 2.173 1.735 2.173 2.868 0 .83-.839 1.714-2.173 2.201z"/>
        <path fill="#B9BBC5" fill-rule="nonzero" d="M64.21 18.381H46.827c-1.201 0-2.173-.971-2.173-2.173 0-1.2.972-2.172 2.173-2.172h17.381a2.172 2.172 0 1 1 0 4.346zM49 35.763h-2.172c-1.201 0-2.173-.972-2.173-2.173s.972-2.173 2.173-2.173H49c1.2 0 2.172.972 2.172 2.173a2.172 2.172 0 0 1-2.172 2.173z"/>
        <path fill="#4382FF" fill-rule="nonzero" d="M85.936 50.972H25.101c-1.2 0-2.173-.972-2.173-2.173s.972-2.173 2.173-2.173h60.835c1.201 0 2.173.972 2.173 2.173a2.171 2.171 0 0 1-2.173 2.173z"/>
        <path fill="#C4C7CC" fill-rule="nonzero" d="M44.655 64.008h-6.518c-1.2 0-2.173-.972-2.173-2.173s.972-2.173 2.173-2.173h6.518c1.201 0 2.173.972 2.173 2.173a2.172 2.172 0 0 1-2.173 2.173zM29.446 64.008h-4.345c-1.2 0-2.173-.972-2.173-2.173s.972-2.173 2.173-2.173h4.345c1.201 0 2.173.972 2.173 2.173a2.171 2.171 0 0 1-2.173 2.173zM44.655 72.698h-6.518a2.171 2.171 0 1 1 0-4.346h6.518c1.201 0 2.173.973 2.173 2.174a2.172 2.172 0 0 1-2.173 2.172zM29.446 72.698h-4.345a2.171 2.171 0 1 1 0-4.346h4.345c1.201 0 2.173.973 2.173 2.174a2.171 2.171 0 0 1-2.173 2.172zM44.655 81.389h-6.518c-1.2 0-2.173-.972-2.173-2.173 0-1.2.972-2.173 2.173-2.173h6.518c1.201 0 2.173.972 2.173 2.173a2.172 2.172 0 0 1-2.173 2.173zM29.446 81.389h-4.345c-1.2 0-2.173-.972-2.173-2.173 0-1.2.972-2.173 2.173-2.173h4.345c1.201 0 2.173.972 2.173 2.173a2.171 2.171 0 0 1-2.173 2.173zM44.655 90.08h-6.518c-1.2 0-2.173-.972-2.173-2.173s.972-2.173 2.173-2.173h6.518c1.201 0 2.173.972 2.173 2.173a2.172 2.172 0 0 1-2.173 2.173zM29.446 90.08h-4.345c-1.2 0-2.173-.972-2.173-2.173s.972-2.173 2.173-2.173h4.345c1.201 0 2.173.972 2.173 2.173a2.171 2.171 0 0 1-2.173 2.173zM44.655 98.77h-6.518a2.171 2.171 0 1 1 0-4.346l6.518.001c1.201 0 2.173.972 2.173 2.173a2.172 2.172 0 0 1-2.173 2.173z"/>
        <g fill-rule="nonzero">
            <path fill="#C4C7CC" d="M29.446 98.77h-4.345a2.171 2.171 0 1 1 0-4.346l4.345.001c1.201 0 2.173.972 2.173 2.173a2.171 2.171 0 0 1-2.173 2.173z"/>
            <path fill="#B9BBC5" d="M70.727 35.763h-2.172c-1.201 0-2.173-.972-2.173-2.173s.972-2.173 2.173-2.173h2.172c1.201 0 2.173.972 2.173 2.173a2.172 2.172 0 0 1-2.173 2.173zM81.59 35.763h-2.172c-1.2 0-2.173-.972-2.173-2.173s.972-2.173 2.173-2.173h2.173c1.2 0 2.173.972 2.173 2.173a2.172 2.172 0 0 1-2.173 2.173zM59.864 35.763h-2.173c-1.2 0-2.173-.972-2.173-2.173s.972-2.173 2.173-2.173h2.173c1.2 0 2.173.972 2.173 2.173a2.172 2.172 0 0 1-2.173 2.173z"/>
        </g>
        <g fill="#B9BBC5" fill-rule="nonzero">
            <path d="M68.555 27.072H46.828c-1.201 0-2.173-.972-2.173-2.173 0-1.2.972-2.173 2.173-2.173h21.727c1.2 0 2.172.972 2.172 2.173a2.171 2.171 0 0 1-2.172 2.173z"/>
            <path stroke="#273545" stroke-linecap="round" stroke-linejoin="round" stroke-width="2" d="M59.864 127.016h47.799c3.6 0 6.518-2.919 6.518-6.519v-56.49c0-3.6-2.918-6.518-6.518-6.518H59.864a6.518 6.518 0 0 0-6.518 6.519v56.49c0 3.599 2.918 6.518 6.518 6.518z"/>
        </g>
        <path fill="#0DB0FF" fill-rule="nonzero" stroke="#273545" stroke-linecap="round" stroke-linejoin="round" stroke-width="2" d="M103.318 79.216H64.209c-1.2 0-2.172-.972-2.172-2.172v-8.69c0-1.2.972-2.174 2.172-2.174h39.109c1.2 0 2.172.973 2.172 2.173v8.69c0 1.2-.972 2.173-2.172 2.173z"/>
        <path fill="#647177" fill-rule="nonzero" stroke="#273545" stroke-linecap="round" stroke-linejoin="round" stroke-width="2" d="M68.555 98.77h-4.346c-1.2 0-2.172-.972-2.172-2.172v-4.346c0-1.2.972-2.172 2.172-2.172h4.346c1.2 0 2.172.973 2.172 2.172v4.346c0 1.2-.972 2.173-2.172 2.173z"/>
        <path fill="#51DA14" fill-rule="nonzero" stroke="#273545" stroke-linecap="round" stroke-linejoin="round" stroke-width="2" d="M103.318 98.77h-4.346c-1.2 0-2.172-.972-2.172-2.172v-4.346c0-1.2.972-2.172 2.172-2.172h4.346c1.2 0 2.172.973 2.172 2.172v4.346c0 1.2-.972 2.173-2.172 2.173z"/>
        <g fill="#647177" fill-rule="nonzero" stroke="#273545" stroke-linecap="round" stroke-linejoin="round" stroke-width="2">
            <path d="M85.936 98.77h-4.345c-1.2 0-2.173-.972-2.173-2.172v-4.346c0-1.2.973-2.172 2.173-2.172h4.345c1.2 0 2.173.973 2.173 2.172v4.346c0 1.2-.973 2.173-2.173 2.173zM68.555 116.152h-4.346c-1.2 0-2.172-.973-2.172-2.173v-4.345c0-1.2.972-2.173 2.172-2.173h4.346c1.2 0 2.172.973 2.172 2.173v4.345c0 1.2-.972 2.173-2.172 2.173z"/>
        </g>
        <path fill="#C39201" fill-rule="nonzero" stroke="#273545" stroke-linecap="round" stroke-linejoin="round" stroke-width="2" d="M103.318 116.152h-4.346c-1.2 0-2.172-.973-2.172-2.173v-4.345c0-1.2.972-2.173 2.172-2.173h4.346c1.2 0 2.172.973 2.172 2.173v4.345c0 1.2-.972 2.173-2.172 2.173z"/>
        <path fill="#647177" fill-rule="nonzero" stroke="#273545" stroke-linecap="round" stroke-linejoin="round" stroke-width="2" d="M85.936 116.152h-4.345c-1.2 0-2.173-.973-2.173-2.173v-4.345c0-1.2.973-2.173 2.173-2.173h4.345c1.2 0 2.173.973 2.173 2.173v4.345c0 1.2-.973 2.173-2.173 2.173z"/>
        <path fill="#273545" d="M103.318 66.18H64.209c-1.2 0-2.172.973-2.172 2.173v4.345c0-1.2.972-2.172 2.172-2.172h39.109c1.2 0 2.172.973 2.172 2.172v-4.345c0-1.2-.972-2.173-2.172-2.173z" opacity=".2"/>
    </g>
</svg>
