<?xml version="1.0" encoding="utf-8"?>
<!-- Generator: Adobe Illustrator 23.0.1, SVG Export Plug-In . SVG Version: 6.00 Build 0)  -->
<svg version="1.1" id="Capa_1" xmlns="http://www.w3.org/2000/svg" xmlns:xlink="http://www.w3.org/1999/xlink" x="0px" y="0px"
	 viewBox="0 0 16 16" style="enable-background:new 0 0 16 16;" xml:space="preserve">
<g>
	<path class="st0" d="M16,13.1L9.5,1.5C9,0.7,8,0.4,7.1,0.9C6.9,1,6.7,1.3,6.5,1.5L0.2,12.6c-0.5,0.8-0.2,1.9,0.7,2.3
		c0.3,0.1,0.5,0.2,0.8,0.2h12.6c1,0,1.7-0.8,1.7-1.7C16,13.3,16,13.2,16,13.1L16,13.1z M14.3,14.2H1.7c-0.1,0-0.2,0-0.4-0.1
		c-0.3-0.2-0.5-0.6-0.3-1L7.4,2c0.1-0.1,0.2-0.2,0.3-0.3C7.8,1.7,7.9,1.7,8,1.7c0.3,0,0.5,0.1,0.6,0.4l6,10.6l0,0l0.3,0.5
		c0.1,0.1,0.1,0.2,0.1,0.4C15,13.8,14.7,14.2,14.3,14.2z"/>
	<path class="st0" d="M8,10.8C8,10.8,8,10.8,8,10.8c-0.3,0-0.5,0.2-0.5,0.5l0,1c0,0.3,0.2,0.5,0.5,0.5c0,0,0,0,0,0
		c0.3,0,0.5-0.2,0.5-0.5l0-1C8.5,11.1,8.3,10.8,8,10.8z"/>
	<path class="st0" d="M8,4.5C7.7,4.5,7.5,4.7,7.5,5v4c0,0.3,0.2,0.5,0.5,0.5S8.5,9.3,8.5,9V5C8.5,4.7,8.3,4.5,8,4.5z"/>
</g>
</svg>
