<?xml version="1.0" encoding="utf-8"?>
<!-- Generator: Adobe Illustrator 23.0.2, SVG Export Plug-In . SVG Version: 6.00 Build 0)  -->
<svg version="1.1" id="Capa_1" xmlns="http://www.w3.org/2000/svg" xmlns:xlink="http://www.w3.org/1999/xlink" x="0px" y="0px"
	 viewBox="0 0 16 16" style="enable-background:new 0 0 16 16;" xml:space="preserve">
<g>
	<path class="st0" d="M5.4,8.7c0.4,0,0.8-0.2,1-0.6h7.1c0.3,0,0.5-0.2,0.5-0.5s-0.2-0.5-0.5-0.5H6.4c-0.2-0.4-0.5-0.6-1-0.6
		C4.8,6.5,4.3,7,4.3,7.6C4.3,8.2,4.8,8.7,5.4,8.7z M5.4,7.5C5.5,7.5,5.5,7.6,5.4,7.5C5.5,7.7,5.3,7.7,5.4,7.5
		C5.3,7.6,5.4,7.5,5.4,7.5z"/>
	<path class="st0" d="M13.9,0.1H2.1c-1.1,0-2,0.9-2,2v11.8c0,1.1,0.9,2,2,2h11.8c1.1,0,2-0.9,2-2V2.1C15.9,1,15,0.1,13.9,0.1z
		 M14.9,13.9c0,0.6-0.5,1-1,1H2.1c-0.6,0-1-0.5-1-1V3.6h13.9V13.9z M14.9,2.6H1.1V2.1c0-0.6,0.5-1,1-1h11.8c0.6,0,1,0.5,1,1V2.6z"/>
	<path class="st0" d="M10.9,11h-0.6c-0.3,0-0.5,0.2-0.5,0.5S10,12,10.3,12h0.6c0.3,0,0.5-0.2,0.5-0.5S11.2,11,10.9,11z"/>
	<path class="st0" d="M10.9,9.1h-0.6c-0.3,0-0.5,0.2-0.5,0.5s0.2,0.5,0.5,0.5h0.6c0.3,0,0.5-0.2,0.5-0.5S11.2,9.1,10.9,9.1z"/>
	<path class="st0" d="M8.3,11H7.7c-0.3,0-0.5,0.2-0.5,0.5S7.4,12,7.7,12h0.6c0.3,0,0.5-0.2,0.5-0.5S8.6,11,8.3,11z"/>
	<path class="st0" d="M3.2,11H2.6c-0.3,0-0.5,0.2-0.5,0.5S2.3,12,2.6,12h0.6c0.3,0,0.5-0.2,0.5-0.5S3.5,11,3.2,11z"/>
	<path class="st0" d="M13.5,11h-0.6c-0.3,0-0.5,0.2-0.5,0.5s0.2,0.5,0.5,0.5h0.6c0.3,0,0.5-0.2,0.5-0.5S13.7,11,13.5,11z"/>
	<path class="st0" d="M3.2,12.9H2.6c-0.3,0-0.5,0.2-0.5,0.5s0.2,0.5,0.5,0.5h0.6c0.3,0,0.5-0.2,0.5-0.5S3.5,12.9,3.2,12.9z"/>
	<path class="st0" d="M8.3,12.9H7.7c-0.3,0-0.5,0.2-0.5,0.5s0.2,0.5,0.5,0.5h0.6c0.3,0,0.5-0.2,0.5-0.5S8.6,12.9,8.3,12.9z"/>
	<path class="st0" d="M5.7,12.9H5.1c-0.3,0-0.5,0.2-0.5,0.5s0.2,0.5,0.5,0.5h0.6c0.3,0,0.5-0.2,0.5-0.5S6,12.9,5.7,12.9z"/>
	<path class="st0" d="M5.7,11H5.1c-0.3,0-0.5,0.2-0.5,0.5S4.8,12,5.1,12h0.6c0.3,0,0.5-0.2,0.5-0.5S6,11,5.7,11z"/>
	<path class="st0" d="M5.1,6.2h0.6C6,6.2,6.2,6,6.2,5.7S6,5.2,5.7,5.2H5.1c-0.3,0-0.5,0.2-0.5,0.5S4.8,6.2,5.1,6.2z"/>
	<path class="st0" d="M5.1,1.3L5.1,1.3c-0.3,0-0.5,0.2-0.5,0.5s0.2,0.5,0.5,0.5s0.5-0.2,0.5-0.5S5.4,1.3,5.1,1.3z"/>
	<path class="st0" d="M2.5,8.1h0.6c0.3,0,0.5-0.2,0.5-0.5S3.4,7.1,3.2,7.1H2.5C2.3,7.1,2,7.3,2,7.6S2.3,8.1,2.5,8.1z"/>
	<path class="st0" d="M2.5,10.1H7c0.2,0.3,0.5,0.6,1,0.6c0.6,0,1.1-0.5,1.1-1.1S8.6,8.5,8,8.5c-0.4,0-0.8,0.2-1,0.6H2.5
		C2.3,9.1,2,9.3,2,9.6S2.3,10.1,2.5,10.1z M8,9.5C8,9.5,8.1,9.5,8,9.5C8.1,9.7,7.9,9.7,8,9.5C7.9,9.6,7.9,9.6,8,9.5
		C7.9,9.6,7.9,9.6,8,9.5C7.9,9.5,7.9,9.5,8,9.5z"/>
	<path class="st0" d="M13.5,9.1h-0.6c-0.3,0-0.5,0.2-0.5,0.5s0.2,0.5,0.5,0.5h0.6c0.3,0,0.5-0.2,0.5-0.5S13.7,9.1,13.5,9.1z"/>
	<path class="st0" d="M10.9,1.3L10.9,1.3c-0.3,0-0.5,0.2-0.5,0.5s0.2,0.5,0.5,0.5s0.5-0.2,0.5-0.5S11.2,1.3,10.9,1.3z"/>
	<path class="st0" d="M12.9,6.2h0.6C13.7,6.2,14,6,14,5.7s-0.2-0.5-0.5-0.5h-0.6c-0.3,0-0.5,0.2-0.5,0.5S12.6,6.2,12.9,6.2z"/>
	<path class="st0" d="M2.6,6.2h0.6c0.3,0,0.5-0.2,0.5-0.5S3.5,5.2,3.2,5.2H2.6c-0.3,0-0.5,0.2-0.5,0.5S2.3,6.2,2.6,6.2z"/>
	<path class="st0" d="M10.3,6.2h0.6c0.3,0,0.5-0.2,0.5-0.5s-0.2-0.5-0.5-0.5h-0.6c-0.3,0-0.5,0.2-0.5,0.5S10,6.2,10.3,6.2z"/>
	<path class="st0" d="M7.7,6.2h0.6c0.3,0,0.5-0.2,0.5-0.5S8.6,5.2,8.3,5.2H7.7c-0.3,0-0.5,0.2-0.5,0.5S7.4,6.2,7.7,6.2z"/>
</g>
</svg>
